<?xml version="1.0" encoding="UTF-8"?>
<svg width="24" height="24" version="1.1" viewBox="0 0 24 24" xml:space="preserve" xmlns="http://www.w3.org/2000/svg"><path id="path" d="m12 22.05c-5.5416 0-10.05-4.5084-10.05-10.05 0-5.5416 4.5084-10.05 10.05-10.05 5.5416 0 10.05 4.5084 10.05 10.05 0 5.5416-4.5084 10.05-10.05 10.05zm0-18.565c-4.6944 0-8.5146 3.8195-8.5146 8.5146 0 4.695 3.8202 8.5146 8.5146 8.5146 4.695 0 8.5146-3.8195 8.5146-8.5146 0-4.695-3.8195-8.5146-8.5146-8.5146z"/><path d="m9.125 12v-3.3877c0-0.48377 0.52518-0.78481 0.94256-0.54095l5.8111 3.3995c0.41146 0.24057 0.4141 0.83542 4e-3 1.0793l-5.8111 3.458c-0.41739 0.24846-0.94651-0.052581-0.94651-0.53832z"/></svg>
