<?xml version="1.0" encoding="UTF-8"?>
<svg width="24" height="24" version="1.1" viewBox="0 0 24 24" xml:space="preserve" xmlns="http://www.w3.org/2000/svg"><path id="path" transform="matrix(.63763 0 0 .63763 .52197 .5016)" d="m20.671 9.287c2.024 2.031 4.012 4.026 6.035 6.055-0.133 0.158-0.224 0.282-0.331 0.389-2.608 2.614-5.218 5.226-7.827 7.838-3.259 3.262-6.52 6.521-9.775 9.787-0.265 0.266-0.539 0.403-0.931 0.398-1.647-0.02-3.295-7e-3 -4.942-8e-3 -0.175 0-0.35-0.018-0.58-0.03-0.023-0.191-0.059-0.359-0.06-0.528-4e-3 -1.701 9e-3 -3.401-0.01-5.101-4e-3 -0.363 0.154-0.596 0.385-0.828 2.425-2.421 4.848-4.843 7.27-7.268 2.921-2.924 5.839-5.85 8.759-8.775 0.549-0.55 1.101-1.098 1.654-1.644 0.087-0.084 0.189-0.153 0.353-0.285z" stroke-width="2.4097"/><path transform="matrix(.63763 0 0 .63763 .52197 .5016)" d="m29.799 12.2c-2.017-2.012-4.008-3.998-6.007-5.992 0.084-0.137 0.124-0.239 0.195-0.309 0.949-0.947 1.889-1.904 2.858-2.831 0.933-0.894 2.152-1.068 3.281-0.482 0.293 0.152 0.559 0.374 0.798 0.605 0.673 0.649 1.343 1.303 1.982 1.986 1.125 1.203 1.127 2.813-6e-3 4.008-0.898 0.947-1.834 1.859-2.756 2.782-0.071 0.073-0.171 0.118-0.345 0.233z" stroke-width="2.4097"/></svg>
