<?xml version="1.0" encoding="UTF-8"?>
<svg width="24" height="24" fill="none" version="1.1" viewBox="0 0 24 24" xml:space="preserve" xmlns="http://www.w3.org/2000/svg"><defs><style>
            .a {
                fill: none;
                stroke: #b1b5bd;
                stroke-linecap: round;
                stroke-linejoin: round;
                isolation: isolate;
                opacity :0.63;
            }
        </style></defs><path d="m12 2a10 10 0 0 0-10 10 10 10 0 0 0 10 10 10 10 0 0 0 10-10 10 10 0 0 0-10-10zm0 1.2424c4.1693 0 7.554 3.385 7.554 7.5543 0 2.3389-1.065 4.4311-2.7365 5.8171-0.27904 0.23142-0.69351 0.19266-0.92493-0.08638-0.23131-0.27904-0.19266-0.69341 0.08638-0.92472 1.3811-1.1452 2.2614-2.8735 2.2614-4.806 0-3.4442-2.7962-6.2406-6.2404-6.2406s-6.2406 2.7964-6.2406 6.2406c0 1.9325 0.88059 3.6608 2.2617 4.806 0.27904 0.23131 0.31769 0.64568 0.08638 0.92472-0.23142 0.27904-0.6459 0.3178-0.92493 0.08638-1.6715-1.386-2.7367-3.4781-2.7367-5.8171 0-4.1693 3.385-7.5543 7.5543-7.5543zm0 2.8646c2.5882 0 4.6894 2.1015 4.6894 4.6897 0 0.97231-0.29674 1.8759-0.80413 2.6253-0.20328 0.30016-0.61194 0.37871-0.9121 0.17554-0.30016-0.20328-0.37882-0.61194-0.17554-0.9121 0.36508-0.53914 0.57814-1.1893 0.57814-1.8888 0-1.8632-1.5126-3.376-3.3758-3.376s-3.376 1.5129-3.376 3.376c0 0.70936 0.22148 1.3407 0.59674 1.8836 0.20613 0.2982 0.13121 0.70747-0.16698 0.9136s-0.70747 0.13142-0.9136-0.16677c-0.52392-0.75797-0.82979-1.6401-0.82979-2.6305 0-2.5882 2.1015-4.6897 4.6897-4.6897zm0 2.8558c0.96475 0 1.7479 0.78334 1.7479 1.7481 0 0.52064-0.228 0.9883-0.58968 1.3087l2.7746 7.8626c0.12064 0.34187-0.05902 0.71728-0.40089 0.83791-0.34187 0.12064-0.71739-0.05891-0.83791-0.40068l-0.83663-2.3707c-0.59431 0.15052-1.2165 0.2307-1.8573 0.2307s-1.2631-0.08018-1.8576-0.2307l-0.83663 2.3707c-0.12053 0.34176-0.49582 0.52131-0.8377 0.40068s-0.52152-0.49604-0.40089-0.83791l2.7744-7.8626c-0.36169-0.32042-0.58968-0.78808-0.58968-1.3087 0-0.96475 0.78334-1.7481 1.7481-1.7481zm0 3.722-1.4182 4.0189c0.45572 0.10608 0.9305 0.16207 1.4182 0.16207s0.96246-0.05599 1.4182-0.16207z" fill="#000" stroke-linecap="round" stroke-linejoin="round" stroke-width=".1642"/></svg>
