<?xml version="1.0" encoding="UTF-8"?>
<svg width="24" height="24" version="1.1" viewBox="0 0 24 24" xmlns="http://www.w3.org/2000/svg">
 <path d="m2.1869 4.147 12.09 12.09a0.51419 0.51419 0 0 0 0.72732 0l2.2531-2.2531a1.4427 1.4427 0 0 0 0-2.04l-8.666-8.6664a1.7559 1.7559 0 0 0-1.2417-0.51419h-4.5895a0.81061 0.81061 0 0 0-0.57305 1.3837z"/>
 <path d="m9.0787 14.745v6.1072a0.54331 0.54331 0 0 0 0.92727 0.38416l2.7819-2.7821a1.3114 1.3114 0 0 0 0-1.8545l-2.3978-2.398a0.76832 0.76832 0 0 0-1.3114 0.54331z"/>
 <path d="m18.278 9.2558v-6.1072a0.54331 0.54331 0 0 0-0.92727-0.38416l-2.7821 2.7819a1.3114 1.3114 0 0 0 0 1.8547l2.398 2.3978a0.76832 0.76832 0 0 0 1.3114-0.54311z"/>
 <path d="m21.881 4.324-1.5995-1.5995a0.40732 0.40732 0 0 0-0.69544 0.28791v1.3116a0.98379 0.98379 0 0 0 0.98356 0.98358h0.9041a0.57624 0.57624 0 0 0 0.40732-0.98378z"/>
</svg>
