<svg width="24" height="24" viewBox="0 0 24 24" fill="none" xmlns="http://www.w3.org/2000/svg">
<path d="M12 20C16.4183 20 20 16.4183 20 12C20 11.5095 19.9559 11.0294 19.8713 10.5633L21.6234 9.27227C21.8687 10.1394 22 11.0544 22 12C22 17.5228 17.5228 22 12 22C6.47715 22 2 17.5228 2 12C2 6.47715 6.47715 2 12 2C14.7302 2 17.2049 3.09415 19.0095 4.86789L17.3865 6.0851C15.965 4.78978 14.0747 4 12 4C7.58172 4 4 7.58172 4 12C4 16.4183 7.58172 20 12 20Z" fill="#FFF1C0"/>
<path d="M20 6.00001L20.0029 6.00294C20.0305 6.03962 20.0577 6.07648 20.0848 6.11354C20.352 6.47987 20.5948 6.86505 20.8111 7.26671C20.8146 7.27335 20.8182 7.27999 20.8218 7.28664C20.9133 7.45759 21 7.63152 21.0817 7.80823L12 14.5L8 12V9.5L12 12L20 6.00001Z" fill="#FFF1C0"/>
</svg>
