<svg xmlns="http://www.w3.org/2000/svg" viewBox="0 0 24 24"><path d="M11.508236 13.393636c0 .632353-.109412 1.201764-.327648 1.686471a3.2788236 3.2788236 0 0 1-.944117 1.223529c-.407648.326471-.914118.579412-1.4905887.737647-.5858823.168824-1.2411764.252941-1.9764705.252941-.7258824 0-1.3911765-.08412-1.9776471-.252941-.5858824-.168824-1.0929411-.411176-1.5-.738235a3.2047059 3.2047059 0 0 1-.9541177-1.222941C2.1094118 14.5954 2 14.025989 2 13.394224c0-.631765.1094118-1.201765.337647-1.687058a3.4094118 3.4094118 0 0 1 .9541177-1.222942 4.1617647 4.1617647 0 0 1 1.5-.737647c.5864706-.168824 1.2517647-.252941 1.9770589-.252941.7252941 0 1.3911764.08412 1.977647.252941.5858824.168823 1.0823524.411176 1.4900004.737647a3.2788236 3.2788236 0 0 1 .944117 1.223529c.218235.495295.327648 1.054118.327648 1.686471zm10.114117 0c0 .632353-.108822 1.201764-.327647 1.686471a3.2788236 3.2788236 0 0 1-.944118 1.223529c-.407059.326471-.914117.579412-1.49.737647-.58647.168824-1.241765.252941-1.977059.252941-.725293 0-1.391176-.08412-1.977058-.252941-.586471-.168824-1.092942-.411176-1.5-.738235a3.2047059 3.2047059 0 0 1-.954118-1.222941c-.228823-.484707-.338235-1.054118-.338235-1.686471 0-.632353.109411-1.201765.338235-1.687059a3.4094118 3.4094118 0 0 1 .953529-1.222941 4.1623529 4.1623529 0 0 1 1.5-.737647c.586471-.168824 1.252354-.252942 1.977647-.252942.725294 0 1.390589.08412 1.976471.252942.586471.168823 1.083529.411177 1.490588.737647a3.2788236 3.2788236 0 0 1 .944118 1.22353c.218235.495293.327647 1.054117.327647 1.68647zm-.575882-3.584706-.764707-.7588237c-.685882-.6429412-1.6-.9488235-2.504117-.8329412l-1.381176.1794118-.168824-1.4764706 1.381176-.1788235c1.311765-.1688236 2.622941.2741176 3.605883 1.2017646l.01056.010589L22 8.7230474 21.047059 9.80893Z"/></svg>