<?xml version="1.0" encoding="UTF-8"?>
<svg width="24" height="24" fill="none" version="1.1" viewBox="0 0 24 24" xmlns="http://www.w3.org/2000/svg">
 <path d="m9.2446 2.8532c-0.7134 0.27866-1.4196 0.50217-2.1001 0.61402-1.5956 0.26228-3.3022-1.1926-4.138-1.4923-0.56327 3.5632-0.74839 5.405-0.57769 7.0507 0.20352 1.9622 0.77042 3.6187 1.5216 5.0943 0.75106 1.4753 2.3341 3.665 3.4621 4.8768 0.77852 0.83631 1.5804 1.5953 2.2935 2.2267 1.2394 1.0975 3.3986 1.0547 4.6375-0.04511 0.91845-0.81534 1.787-1.6698 2.6566-2.684 1.0779-1.2572 2.6286-3.4712 3.3293-4.9704 0.65942-1.4108 1.0484-2.7951 1.2239-4.1837 0.20745-1.6412-0.026756-4.3379-0.32557-5.9667-0.14139-0.77068-0.65974-1.0658-1.1172-0.64951-3.5719 0.63164-4.4224 0.45228-5.3879 0.11992-1.565-0.53872-3.9352-0.59339-5.4782 0.0093147zm5.5388 2.2025c0.75898 0.23762 1.3957 0.37698 1.9497 0.45034 1.6349 0.21649 3.166 1.1961 3.0718 2.8488-0.07945 1.3939-1.557 1.6909-2.8884 0.70474-1.2636-0.93597-2.4954-1.8589-3.6783-2.7616-1.3171-1.0052-1.8688-2.0582-1.2482-2.3315zm-7.8784 1.8805 8.1307 5.3035a0.2821 0.2821 117.74 0 1-0.2615 0.49715l-7.792-3.2072c-1.5321-0.63063-2.8161-2.4928-2.6031-4.1346 0.0070241-0.054138 1.1382 0.63588 2.526 1.5411zm-0.37769 4.3529c1.927 1.6555 3.9185 3.3097 5.8149 4.9376 1.2564 1.0785 1.3541 2.9827 0.04195 3.992-0.24517 0.18858-1.4464-0.5637-2.6308-1.7222-2.068-2.0227-3.6539-3.8991-4.6446-6.3074-0.62924-1.5295 0.16192-1.9797 1.4186-0.90005z" fill="#000" fill-rule="evenodd"/>
</svg>
