<svg xmlns="http://www.w3.org/2000/svg" xml:space="preserve" viewBox="0 0 24 24"><path d="m5.8610329 18.282982-.1502348-3.228236h.4075118c.020657.933353.086384 2.477047.06385 2.788792.1183098-.35306.9333333-1.983141 1.3089201-2.788792h.3962441c.031924.719264.1070422 2.413196.095774 2.777523.1389672-.375595.8356807-1.800977 1.2863859-2.777523h.418779l-1.5868546 3.228236h-.4507042c-.031925-.707995-.095775-2.262958-.086385-2.679868-.170892.482639-.9107981 1.951215-1.2657276 2.679868zm5.5962441-1.425381c0 .621609-.353051 1.468576-1.25446 1.468576-.569014 0-.890141-.364328-.890141-.954011 0-.653535.396244-1.500502 1.243193-1.500502.537089.02066.901408.364327.901408.985937zm-1.737089.514565c0 .386862.18216.62161.525822.62161.557746 0 .803756-.664804.803756-1.15871 0-.396254-.170893-.632878-.525823-.632878-.535211.01127-.803755.67607-.803755 1.169978zm2.242253-.75119c.04319-.236625.09578-.482639.138968-.696728h.375587c0 .06386-.04319.289208-.08639.493906.170891-.332401.461971-.535222.82629-.535222l-.08639.40752c-.450705.03192-.783099.364328-.890141.89016l-.23662 1.092981h-.396244zm1.124883 1.662006.719248-3.399132h.396245l-.719249 3.399132zm3.613146-3.399132-.578404 2.745598c-.04319.225356-.09578.439445-.129578.653534h-.386855c0-.06384.03192-.214089.06386-.364326-.161502.246015-.386855.418788-.771831.418788-.503286 0-.760564-.375595-.760564-.910817 0-.696728.407513-1.532427 1.233804-1.532427.396244 0 .600939.214089.653521.364327l.289202-1.36153zm-2.153991 2.488316c0 .418788.18216.610341.493897.610341.482628 0 .728638-.439446.835681-.954011.09578-.493907-.04319-.803773-.493897-.803773-.557747.01127-.835681.642267-.835681 1.147443zm.04319-8.6217774c-.471359-.4713714-1.136148-.7192638-1.951171-.7192638h-.02066c-1.029108 0-1.898591.3755946-2.520188 1.0929806-.559624.6460226-.869483 1.5023786-.869483 2.4150746 0 .751189.23662 1.393456.685446 1.84417.461972.461981 1.126761.707996 1.939906.707996h.01127c1.092958 0 1.994366-.386863 2.604694-1.115517.514555-.610341.815024-1.459186.815024-2.326809.0019-.794383-.234741-1.4366499-.694836-1.8986314zM13.29202 12.138253c-.311738.482639-.771831.739921-1.31831.739921h-.01127c-.375586 0-.676056-.12958-.890141-.375594-.202817-.236624-.311737-.589683-.311737-1.017862 0-.569026.170893-1.136174.450705-1.554962.225352-.332401.632863-.7192638 1.275117-.7192638h.01127c.783098 0 1.211267.4826388 1.211267 1.3502638.01127.580293-.150235 1.160587-.416901 1.577497zM6.6967137 8.0649282h-.011268c-.9220657 0-1.4366197.3324015-1.7802817.6760705l-.3530513 1.6188133c.3117371-.676071.8469483-1.0403974 1.5323943-1.0403974h.011268c.3868544 0 .685446.1183124.8788732.3530594.1821597.214088.2685446.525833.2685446.922085 0 .569025-.170892 1.136174-.4507043 1.554962-.2253522.332401-.6441315.728653-1.3183099.728653h-.011268c-.4187794 0-.7399061-.12958-.942723-.375594-.1708918-.202821-.2572768-.493907-.2572768-.835698l-.3755869 1.682664c.1934273.332402.6328639.771847 1.6619719.771847h.011268c1.0084507 0 1.8441315-.396252 2.4450704-1.147442.5258214-.664802.8262909-1.57562.8262909-2.552165-.0018781-1.414115-.8582162-2.3568578-2.1352114-2.3568578ZM5.3032863 5.663H2.9539907l-.2779344 1.2976798h.8469484L2 13.941108l1.4704226.020658ZM19.864789 8.0649282c-.933333 0-1.447888.3324015-1.79155.6760705l-.353051 1.6188133c.311736-.676071.846949-1.0403974 1.532394-1.0403974h.01127c.386854 0 .685445.1183124.878873.3530594.182159.214088.268545.525833.268545.922085 0 .569025-.170893 1.136174-.450705 1.554962-.225352.332401-.644131.728653-1.31831.728653h-.01127c-.418779 0-.739906-.12958-.942723-.375594-.170892-.202821-.257277-.493907-.257277-.835698l-.375587 1.682664c.193428.332402.632864.771847 1.661972.771847h.01127c1.00845 0 1.844131-.396252 2.44507-1.147442.52582-.664802.82629-1.57562.82629-2.552165-.001878-1.414115-.848827-2.3568578-2.135211-2.3568578ZM18.469483 5.663h-2.33615l-.279812 1.2976798h.837559l-1.523004 6.9804282 1.479812.02065z"/></svg>