<svg width="24" height="24" viewBox="0 0 24 24" fill="none" xmlns="http://www.w3.org/2000/svg">
<path fill-rule="evenodd" clip-rule="evenodd" d="M12.5582 10.8433V8.11844C12.5582 5.997 10.8384 4.27724 8.71696 4.27724C6.59552 4.27724 4.87576 5.997 4.87576 8.11844V15.7302C4.87576 17.2741 6.12735 18.5257 7.67126 18.5257H15.283C17.4045 18.5257 19.1242 16.806 19.1242 14.6845C19.1242 12.5631 17.4045 10.8433 15.283 10.8433H12.5582ZM15.283 8.36905C18.771 8.36905 21.5985 11.1966 21.5985 14.6845C21.5985 18.1725 18.771 21 15.283 21H7.67126C4.76084 21 2.40148 18.6406 2.40148 15.7302V8.11844C2.40148 4.6305 5.22902 1.80296 8.71696 1.80296C12.2049 1.80296 15.0324 4.6305 15.0324 8.11844V8.36905H15.283Z" fill="#FFF1C0"/>
</svg>
