<?xml version="1.0" encoding="UTF-8" standalone="no"?>
<!-- Created with Inkscape (http://www.inkscape.org/) -->

<svg
   width="192"
   height="192"
   viewBox="0 0 50.799999 50.799999"
   version="1.1"
   id="svg5"
   sodipodi:docname="burger_king.svg"
   inkscape:version="1.1.1 (c3084ef, 2021-09-22)"
   xmlns:inkscape="http://www.inkscape.org/namespaces/inkscape"
   xmlns:sodipodi="http://sodipodi.sourceforge.net/DTD/sodipodi-0.dtd"
   xmlns="http://www.w3.org/2000/svg"
   xmlns:svg="http://www.w3.org/2000/svg">
  <sodipodi:namedview
     id="namedview7"
     pagecolor="#ffffff"
     bordercolor="#999999"
     borderopacity="1"
     inkscape:pageshadow="0"
     inkscape:pageopacity="0"
     inkscape:pagecheckerboard="0"
     inkscape:document-units="mm"
     showgrid="false"
     units="px"
     width="192px"
     inkscape:zoom="3.54"
     inkscape:cx="-24.293785"
     inkscape:cy="96.892655"
     inkscape:window-width="3042"
     inkscape:window-height="1246"
     inkscape:window-x="229"
     inkscape:window-y="67"
     inkscape:window-maximized="0"
     inkscape:current-layer="layer1" />
  <defs
     id="defs2">
    <clipPath
       clipPathUnits="userSpaceOnUse"
       id="clipPath417">
      <path
         id="path419"
         style="fill:#ff0000;fill-opacity:1;fill-rule:nonzero;stroke:none;stroke-width:0.264583"
         d="M -0.04030762,-0.03100586 V 17.330208 C -0.00392971,17.178918 0.03763136,17.029425 0.08784993,16.880623 1.015994e-4,16.754671 0.0498055,16.559021 0.15141194,16.380912 0.20212404,16.20655 0.30297705,16.04375 0.41599527,15.892053 c 0.0214117,-0.322975 0.0338196,-0.492019 0.14831137,-0.926042 0.04135,-0.156752 0.10764134,-0.305724 0.16898194,-0.455786 C 0.89991748,14.102591 1.0757796,13.73561 1.3110311,13.368176 1.498271,12.92338 1.6959836,12.508154 1.9879923,12.12019 c 0.017081,-0.0227 0.044269,-0.06842 0.066146,-0.08682 -0.00809,-0.0066 -0.016601,-0.01266 -0.024288,-0.01964 -0.046204,-0.04194 0.1248399,-0.242264 0.2516642,-0.377237 0.00478,-0.0072 0.011064,-0.013 0.01757,-0.0186 0.052722,-0.05541 0.096414,-0.09973 0.1054199,-0.106454 0.3559171,-0.269489 0.1846061,-0.164031 0.4805909,-0.321944 0.020722,-0.01105 0.04732,-0.03381 0.073897,-0.05633 -4.233e-4,-0.02608 -0.00209,-0.05207 -0.00156,-0.07803 0.1217557,-0.110505 0.2300533,-0.238322 0.3653525,-0.331762 0.073875,-0.05102 0.1681311,-0.06167 0.2516643,-0.09457 0.090128,-0.0355 0.1792356,-0.07502 0.2692341,-0.111621 C 3.3304503,9.6903474 3.1285523,8.6030332 3.1310643,7.6465623 c 0.00156,-0.5960565 0.3024013,-0.8940017 0.603064,-0.8940025 0.3006629,-5e-7 0.600997,0.2979439 0.600997,0.8940025 0,0.5845241 -0.023455,0.3769323 0.1131713,1.0790039 0.041524,0.2133714 0.08752,0.3931357 0.1431438,0.5586222 C 4.6874165,9.1282197 4.7830252,8.9719925 4.8725602,8.8123826 4.9907994,8.601602 5.0736317,8.4029447 5.2069068,8.2031173 5.4046244,8.2132826 5.6788719,7.7687392 5.9060889,7.618657 5.9361805,7.4624327 5.9488979,7.3852733 6.0042739,7.1132615 6.0395196,6.9401328 6.0298591,6.7323086 6.1510351,6.6037317 6.3727131,6.3685179 6.6365323,6.6788205 6.4905492,6.5189825 6.1777789,6.4056644 5.3754355,6.1211269 5.3257624,6.0270229 5.2484104,5.8804821 5.217221,5.7509619 5.2141413,5.6332485 4.1327953,5.8832901 3.2098067,4.7300737 4.0819106,2.9858647 4.5870113,1.9756641 4.4065586,2.4227685 4.8353532,0.99373833 4.9372842,0.65403495 5.0295235,0.31138593 5.1221573,-0.03100533 Z M 0.15141194,16.380912 c -0.0348992,0.119993 -0.045516,0.245196 -0.019637,0.375688 0.010361,-0.02807 0.0189901,-0.05619 0.0299723,-0.08423 0.001096,-0.0028 0.002488,-0.0055 0.003617,-0.0083 -0.0533389,-0.08415 -0.0222569,-0.181097 0.0408244,-0.30024 -0.0123624,-0.01519 -0.0164525,-0.0312 -0.0165365,-0.04754 -0.0138176,0.021 -0.0258406,0.04286 -0.0382406,0.06459 z M 0.1317749,16.7566 c -0.0152475,0.0413 -0.0299573,0.08264 -0.04392497,0.124023 0.03897494,0.05594 0.10491136,0.09788 0.20515545,0.117822 -0.0750954,-0.05301 -0.1330656,-0.119778 -0.15451254,-0.205672 -0.003051,-0.01222 -0.004312,-0.02404 -0.006718,-0.03617 z M 47.514412,-0.03100586 C 47.453482,0.24038752 47.376374,0.58116351 47.31494,1.0133748 47.482868,2.2918637 47.757011,2.0140551 47.214174,1.966805 47.101927,1.9664981 47.033421,2.020421 46.903598,2.020032 45.310303,2.015262 43.728614,1.8986741 42.140579,1.7849043 41.391763,1.7265163 40.631872,1.6310825 39.87922,1.6991213 c -0.277424,-0.00865 -0.541965,0.084828 -0.814938,0.109554 -0.150159,0.013601 -0.300966,0.019543 -0.451652,0.026872 0.0217,0.017459 0.04393,0.034252 0.06563,0.051677 0.02506,0.00478 0.05066,0.008 0.07545,0.012919 0.140724,0.027937 0.270714,0.09435 0.406178,0.1415934 0.145142,0.078903 0.295386,0.1493686 0.435631,0.236678 0.482333,0.3002742 0.910989,0.6775927 1.288293,1.101225 0.06893,0.06027 0.137213,0.1209204 0.202573,0.1850014 0.06977,0.068405 0.124209,0.1515486 0.192752,0.2211753 0.08106,0.082329 0.180739,0.1439251 0.266652,0.221175 0.226986,0.2041067 0.280702,0.2584328 0.476972,0.4480348 0.376434,0.3255269 0.776441,0.6212107 1.158587,0.9399942 0.33845,0.2620055 0.532757,0.4407911 0.798917,0.824239 0.0016,0.00228 0.0026,0.00493 0.0041,0.00723 0.135435,0.1116372 0.262615,0.2311794 0.373621,0.3684529 0.03822,0.031829 0.07521,0.061881 0.11989,0.1038696 0.04779,0.046218 0.245507,0.2358422 0.294556,0.3105756 0.14964,0.1097177 0.297651,0.2211099 0.453718,0.3209105 -0.198263,-0.9631532 0.416644,-0.086623 0.837676,0.6206339 0.404505,0.2508531 0.808265,0.4459528 1.126029,0.8402587 -0.0031,-0.00285 -0.0114,-0.00823 -0.01497,-0.011369 0.341895,0.2876709 0.543663,0.6406994 0.648539,1.1007079 2.64e-4,0.00217 0.0019,0.00667 0.0026,0.0093 0.0032,0.00548 -2.65e-4,9.34e-5 0.110585,0.1875855 0.07562,0.181592 0.19187,0.311636 0.318328,0.460953 0.05953,0.0703 0.113136,0.146243 0.179316,0.210324 0.167738,0.162426 0.387369,0.265352 0.540536,0.444934 0.174125,0.162445 0.342215,0.329974 0.498163,0.506945 7.93e-4,-0.196718 0.0019,-0.373887 0.02739,-0.968933 0.0035,-0.08073 0.0214,-0.160195 0.03204,-0.240295 0.01003,-0.06507 0.02657,-0.129587 0.02998,-0.195337 0.0035,-0.06778 -0.0066,-0.135805 -0.0098,-0.203605 -0.03358,-1.0159234 0.03263,-2.0278269 0.09612,-3.0416745 0.0075,-0.1350388 0.0113,-0.2703412 0.02222,-0.4051432 0.0019,-0.023511 0.0056,0.093846 0.0047,0.07028 -0.04391,-1.063983 -0.129953,-2.1258692 -0.205671,-3.1879191 -0.0593,-0.7868513 -0.08758,-1.581403 -0.254249,-2.354895 -0.100954,-0.46852359 -0.0975,-0.86604008 -0.03256,-1.20406082 z M 46.063855,7.9509358 c -0.02384,-0.014785 -0.04748,-0.028171 -0.07131,-0.043408 -0.0059,-0.00379 -0.01474,-0.00968 -0.02119,-0.013951 0.0079,0.00947 0.01717,0.018044 0.02376,0.028422 0.139216,0.2181228 0.233381,0.4653444 0.392743,0.6692099 0.109146,0.1396293 -0.07372,-0.2198294 -0.324012,-0.6402711 z m -0.0925,-0.057361 c -0.02453,-0.029571 -0.05216,-0.056928 -0.08113,-0.082165 -0.284533,-0.2478455 -0.267205,-0.2267659 -0.519348,-0.3927411 -0.04981,-0.027163 -0.09719,-0.057988 -0.144695,-0.088367 0.01558,0.07576 0.03109,0.1514268 0.05736,0.2511475 0.15553,0.057814 0.314092,0.1083514 0.466637,0.1736328 0.06214,0.026593 0.153292,0.093436 0.221176,0.1384928 z M 10.027295,1.2355835 C 9.8607253,1.2340595 9.6940555,1.2340277 9.5275839,1.2360994 9.3056215,1.2388595 9.0836028,1.24592 8.8619915,1.2593539 8.5477157,1.278405 8.2539279,1.4293974 7.9421508,1.4732944 7.8636529,1.4843463 7.7843732,1.4796735 7.7049561,1.4727784 7.5011193,2.1867781 7.2898273,2.8595631 7.0011232,3.6116661 6.9956728,3.625853 6.9877617,3.6389602 6.9820017,3.6530072 7.0466728,3.6367036 7.1098251,3.6219999 7.1778553,3.6008139 7.9028597,3.3750333 8.6191619,3.1233326 9.3399972,2.8845786 10.349735,2.5363984 10.855315,2.3546161 11.280964,2.216919 11.603182,1.9999418 11.959087,1.8312316 12.322761,1.6949871 12.654303,1.5707809 13.193089,1.5052324 13.615188,1.6014527 h 5.29e-4 c 0.208182,-0.1186414 0.353972,-0.1970712 0.480591,-0.2563151 -0.8565,-0.033696 -1.712992,-0.068703 -2.569869,-0.0894 -0.499541,6.853e-4 -0.999425,-0.015582 -1.499133,-0.020154 z m 16.935916,0.263033 c -0.500205,0.012104 -1.000464,0.019916 -1.500683,0.03359 -0.178008,-0.00161 -0.392469,-0.00761 -0.607715,-0.00982 -0.08281,0.011693 -0.165824,0.02282 -0.248047,0.037207 -0.03347,0.025995 -0.08215,0.03121 -0.121956,0.048576 -0.186925,0.082737 -0.384214,0.1390925 -0.578776,0.2005045 -0.03035,0.00958 -0.0596,0.023479 -0.09095,0.028939 -0.163033,0.028417 -0.327217,0.048649 -0.490927,0.072864 -0.09619,-0.00344 -0.192671,-0.013605 -0.288871,-0.010335 -0.05789,0.00197 0.115706,0.00628 0.173116,0.013953 0.0044,5.794e-4 -0.0065,0.00719 -0.01085,0.00775 -0.150952,0.019271 -0.302045,0.039325 -0.453719,0.051676 -0.140834,0.011466 -0.289055,0.00515 -0.432015,0 -0.104645,0.027908 -0.209274,0.055026 -0.315743,0.074414 -0.117918,0.021473 -0.428468,0.00417 -0.553971,-5.16e-4 -0.05563,-0.00481 -0.111285,-0.00966 -0.166915,-0.014469 -0.0101,-3.572e-4 -0.03997,-0.00258 -0.02997,-0.00103 0.01257,0.00195 0.02559,7.09e-4 0.03824,0.00207 0.01075,0.00115 -0.02175,0.00283 -0.03256,0.0031 -0.04549,0.00112 -0.09094,0.00173 -0.136426,0.00259 -0.188764,-2.047e-4 -0.377606,-0.00126 -0.566374,-0.00103 -0.05897,0.0099 -0.114623,0.00849 -0.167948,5.159e-4 -0.283657,0.1111585 -0.458589,-0.048242 -0.578776,-0.3364136 -0.07236,-0.00457 -0.14828,-0.010181 -0.223759,-0.014986 -0.11094,0.068357 -0.221672,0.1370369 -0.332796,0.2051554 C 18.888439,2.114015 18.539748,2.3478167 18.175634,2.5559303 17.941287,2.6898591 17.703542,2.821997 17.45113,2.91765 17.325105,2.9654099 17.126541,3.093791 17.051671,2.9817286 16.907965,2.7666275 16.806013,2.5922499 16.73903,2.4458455 16.631537,2.556016 16.488685,2.6586019 16.28221,2.7336832 15.914483,2.8674028 15.732404,2.9335201 15.565975,2.999817 c 0.03082,0.112722 0.0056,0.1006041 -0.110588,0.1198893 -0.01324,0.086966 -0.02772,0.1731883 -0.03824,0.2578653 -0.01231,0.099077 -0.409226,0.154895 -0.568957,0.074414 -0.05694,0.048604 -0.117217,0.1033822 -0.181901,0.1674317 -0.02928,0.028996 0.274068,0.077921 0.408244,0.028939 0.01899,-0.030388 0.03773,-0.061527 0.05839,-0.090434 0.01464,0.044983 -0.01217,0.07356 -0.05839,0.090434 -0.0261,0.041767 -0.05302,0.082591 -0.08888,0.1157552 -0.112997,0.1045072 -0.242171,0.1913231 -0.37207,0.2738853 -0.03389,0.02154 -0.07624,0.024193 -0.114722,0.035657 -0.248762,0.074094 -0.500633,0.1374658 -0.746207,0.2222087 -0.402996,0.148436 -0.335052,0.1323213 -0.799952,0.2485636 -0.373068,0.3248837 -1.047739,0.8286358 -0.823205,0.3824057 -0.01657,0.00228 -0.03734,0.00401 -0.06976,0.00827 -0.0074,0.00575 -0.01424,0.010819 -0.02015,0.01292 -9.79e-4,3.439e-4 -0.0026,6.879e-4 -0.0036,0.00103 -0.06584,0.063772 -0.14448,0.1398937 -0.147278,0.1426271 -0.04556,0.037419 -0.03312,0.042828 -0.09405,0.116272 -0.173836,0.209532 -0.370022,0.3798257 -0.610299,0.5141804 -0.01397,0.00395 -0.02058,0.00535 -0.02946,0.00775 -0.122905,0.1430132 -0.263858,0.2684619 -0.414961,0.3818888 -0.06435,0.040735 -0.190252,0.1180338 -0.244429,0.1622642 -0.14047,0.1146696 -0.360694,0.374369 -0.5193487,0.4361489 -0.015227,0.00593 -0.020759,-0.025511 -0.031006,-0.038241 -0.391867,0.5290437 0.1126817,-0.034834 -0.925525,0.3147095 -0.085357,0.028738 0.094333,0.077432 0.2387452,0.073381 0.012054,-0.01088 0.017568,-0.015973 0.031522,-0.028422 -0.00249,0.043643 0.1320704,-0.028466 0.10542,-0.00568 -0.027219,0.023244 -0.079551,0.032496 -0.1369425,0.034106 -0.1900007,0.1714252 -0.1693463,0.1654895 -0.4857586,0.3250446 -0.020018,0.010094 -0.044351,0.016113 -0.066146,0.010853 -0.014383,-0.00347 -0.016214,-0.04195 -0.028422,-0.03359 C 8.5335488,7.4612336 8.4912848,7.6786055 8.297169,7.7240781 8.0396371,7.8767226 7.7698505,7.9905159 7.4796478,8.0651427 7.3511061,8.1453146 7.2204371,8.2276352 7.0905243,8.3049213 7.0773719,8.3127503 7.039492,8.3338937 7.001641,8.3545307 6.991772,8.5065653 7.052536,8.364995 6.8982881,9.2816058 6.8628911,9.4919477 6.8042353,9.6978063 6.7572112,9.9058571 6.5861054,10.332686 6.2773711,10.729066 5.8575247,10.937319 c -0.4405405,0.218517 -0.1980867,0.031 -0.3105753,0.119372 0.1143349,0.12314 0.099077,0.370806 0.1343586,0.54777 0.025075,0.125768 -0.1346198,0.354663 -0.2568319,0.514698 -0.2968376,0.666468 -0.6763168,1.296243 -0.9250082,1.985408 -0.1765673,0.540879 -0.4118986,1.054736 -0.6118489,1.586983 -0.079808,0.212441 -0.1334583,0.435148 -0.2294433,0.640788 -0.1675786,0.359024 -0.3728069,0.699375 -0.5591389,1.049031 -0.4669777,0.608253 -0.8976897,1.18311 -1.3968141,1.769918 -0.068061,0.08002 -0.1450037,0.150916 -0.2247925,0.219625 -0.00589,0.04361 -0.010795,0.08772 -0.01912,0.130742 -0.061618,0.318445 -0.06833,0.330139 -0.1457276,0.654223 -0.015391,0.05614 -0.028076,0.113086 -0.045992,0.168465 -0.014672,0.127791 -0.09703,0.229504 -0.135909,0.347783 -0.073436,0.223408 -0.1095492,0.47526 -0.15399579,0.703316 -0.0577082,0.373104 -0.1514778,0.738968 -0.25063069,1.102775 -0.0504588,0.185143 -0.0597673,0.125565 -0.0423747,0.21084 0.004089,-0.03318 0.002611,-0.02379 0.007235,-0.06098 0.003059,-0.02305 -0.003771,0.04608 -0.005684,0.06925 -8.3873e-4,-0.0042 -8.1227e-4,-0.0046 -0.00155,-0.0083 -0.025685,0.208386 -0.0373233,0.30531 -0.045992,0.382922 0.006413,-0.09328 -6.6145e-4,-0.134795 -0.063562,0.164331 -0.01411,0.0671 0.0117076,0.137582 0.003617,0.205672 -0.0150768,0.126909 -0.0389588,0.252474 -0.0583944,0.378789 -0.0396665,0.289922 -0.16939848,0.570882 -0.19740396,0.861963 -0.0364708,0.379063 0.02022,0.359036 0.009302,0.716752 -0.006162,0.201865 -0.0272941,0.402593 -0.0408244,0.604097 -0.10174763,0.454705 -0.059514,0.90917 -0.0449585,1.367359 3.3417e-4,0.05267 0.001282,0.105453 0.001033,0.158131 -4.0799e-4,0.08687 -0.0177497,0.174419 -0.005684,0.260448 0.0291323,0.207769 0.0896212,0.348096 0.10903726,0.56224 0.0230934,0.254698 0.0269396,0.510452 0.0403076,0.765844 7.3025e-4,0.303813 0.001196,0.422992 5.1593e-4,0.551389 0.0704792,-0.162414 0.15551539,-0.337304 0.31419271,-0.358119 0.45952064,-0.06027 0.70070554,0.06497 0.83405754,0.276985 0.1748353,-0.0043 0.2157165,0.124219 0.1384929,0.407212 0.026855,0.161695 0.036993,0.334756 0.050643,0.501261 0.01494,0.231582 0.03492,0.463201 0.044958,0.695047 0.00904,0.20874 -0.018109,0.436819 0.010852,0.644406 0.025046,0.17952 0.1193634,0.344578 0.1477945,0.523999 0.02729,0.03578 0.055622,0.07015 0.085783,0.10077 0.087636,-0.212553 0.1740869,-0.425662 0.2537313,-0.641305 0.1202308,-0.325536 0.2457195,-1.544408 0.5813599,-1.646928 0.3361997,-0.102691 0.7379742,0.09747 1.0009725,0.330729 0.1718429,0.152413 0.089324,0.450585 0.1338418,0.675928 -0.00164,0.09854 -0.00101,0.128167 -0.00206,0.212905 0.1257117,0.111334 0.1655019,0.324369 0.2046388,0.494543 0.1799159,0.0158 0.438168,0.09854 0.8206216,0.276471 0.1872649,0.08712 0.085165,0.405548 0.095085,0.611849 0.017656,0.367189 0.023201,0.660257 0.020153,0.923457 0.067564,0.02265 0.1451026,0.0597 0.2320272,0.110588 0.038746,-0.02357 0.081804,-0.04074 0.1307415,-0.04754 0.3891084,-0.05411 0.6468805,0.445431 0.9704832,0.668176 -0.090966,0.249611 -0.1655996,0.505735 -0.2728516,0.748792 -0.084571,0.191659 -0.2276779,0.493694 -0.3932576,0.835607 -0.00185,0.02669 -0.00334,0.05342 -0.00517,0.0801 -0.1230808,1.798624 -0.064268,1.316675 -0.291455,2.603976 -0.044814,0.295873 -0.1075049,0.589759 -0.1343588,0.887799 -0.014581,0.161827 0.040926,0.527108 0.01447,0.796335 0.5720729,0.117147 0.5227781,0.397142 0.2868044,0.664043 0.037755,0.07631 0.075623,0.152845 0.1069702,0.231511 0.6965307,-0.111511 0.7099554,0.0084 0.8443929,0.371552 0.083712,0.04653 0.07179,0.104018 0.047025,0.162782 2.122e-4,5.29e-4 3.175e-4,0.0011 5.292e-4,0.0016 l 5.292e-4,5.29e-4 c 0.196279,0.175533 0.1863132,0.168474 0.387573,0.356569 0.069277,0.07321 0.1360755,0.148884 0.2030884,0.224274 0.05602,-0.05157 0.1146735,-0.103643 0.1772502,-0.156581 0.1515022,-0.12815 0.3284182,-0.18057 0.5198649,-0.176731 0.9224251,0.0185 2.1803742,1.332289 2.5435132,1.656229 0.881089,0.958458 1.473315,1.590024 2.32854,2.595708 0.05201,0.02442 0.124548,0.05943 0.307475,0.130225 0.137874,-0.01728 0.300815,0.01074 0.49196,0.07441 -0.06118,-0.09033 0.05056,-0.02331 0.19327,0.07234 0.05203,0.02172 0.103502,0.04298 0.15968,0.06925 0.08092,0.02492 0.161233,0.04407 0.247013,0.04444 0.02283,1e-4 0.04453,-0.01156 0.06718,-0.01447 0.03549,-0.0045 0.07128,-0.0052 0.106971,-0.0078 0.399443,-0.0059 0.764631,0.102349 1.11001,0.294039 0.04395,0.0244 0.08235,0.09807 0.128674,0.07855 0.03853,-0.01624 -0.0483,-0.06811 -0.07235,-0.10232 0.101415,0.01881 0.202959,0.03751 0.304374,0.05633 -0.530618,0.06982 0.632982,0.03792 0.47749,0.08113 -0.0523,0.01455 -0.109096,-0.03391 -0.161747,-0.02066 -0.267281,0.06703 -1.060446,0.239766 -0.785482,0.257866 1.143952,0.07532 1.493326,0.03363 1.538407,-0.03359 -0.07288,-0.0123 -0.145258,-0.02437 -0.229443,-0.03979 0.05998,-0.01455 0.122572,-0.02582 0.186552,-0.03462 -0.05097,-0.03526 -0.123424,-0.06558 -0.182934,-0.08836 -0.01787,0.0011 -0.03142,0.0019 -0.05529,0.0016 -0.01455,-2.64e-4 0.01949,-0.0036 0.04341,-0.0062 -0.06812,-0.02572 -0.07551,-0.03019 0.02584,-0.0036 0.02099,-0.0026 0.04206,-0.0048 0.06305,-0.0072 l 0.20929,0.09302 c 0.204881,-0.01508 0.416367,0.0095 0.593246,0.110588 0.03946,0.02257 0.07626,0.04843 0.112137,0.07596 0.269458,0.02 0.252254,5.3e-4 0.350366,0.116788 0.02159,-0.0026 0.04435,0.0097 0.06615,0.01497 0.08306,0.02032 0.165697,0.04208 0.248047,0.06511 0.223693,0.06255 0.435886,0.157959 0.648023,0.251148 0.02297,-0.0013 0.04573,-0.0032 0.06873,-0.0036 0.08824,-0.0016 0.170986,0.04464 0.256316,0.06718 -0.295315,-0.08828 0.51,0.169133 0.378271,0.141595 -0.08638,-0.01805 -0.165278,-0.06755 -0.252698,-0.07958 -0.0547,-0.0075 -0.15862,-0.01894 -0.243396,-0.02429 0.08901,0.04059 0.164105,0.0765 0.117823,0.06666 -0.07728,-0.01643 -0.152627,-0.0414 -0.227893,-0.0677 -0.02244,0.0028 -0.02824,0.0088 5.29e-4,0.02119 0.345382,0.149347 0.731162,0.190416 1.082621,0.322461 -0.0029,-0.0028 -0.0026,-0.0046 0.0052,-0.0041 0.05941,0.0036 0.112611,0.03878 0.168982,0.05787 0.130358,0.04414 0.260962,0.08678 0.392224,0.128158 -0.152579,-0.03601 0.266807,0.07826 0.198438,0.06511 -0.09894,-0.01902 -0.194606,-0.05449 -0.294556,-0.06718 -0.04869,-0.0062 -0.163456,-0.0079 -0.204122,-0.0041 0.0027,0.0034 0.0056,0.0064 0.0083,0.0098 0.463577,0.08335 0.583768,0.07849 0.642855,0.07751 -0.0014,-5.3e-4 -0.0028,-0.0011 -0.0041,-0.0016 0.0033,5.29e-4 0.0065,0.0011 0.0098,0.0016 0.02129,-2.49e-4 0.03943,0.0024 0.06046,0.0093 0.10893,0.01593 0.218262,0.03185 0.324528,0.05994 0.103055,0.04118 0.205969,0.08233 0.309025,0.123507 -0.02274,-0.01524 -0.09188,-0.03222 -0.06821,-0.04599 0.03151,-0.01834 0.07135,0.01545 0.10697,0.02326 0.181959,0.0402 0.363311,0.08112 0.544153,0.12609 0.003,7.93e-4 0.0097,0.0021 0.01344,0.0031 0.116502,0.0072 0.232833,0.0145 0.349333,0.0217 0.0789,0.01426 0.156978,0.03358 0.236678,0.04238 0.07569,0.0083 0.152409,-0.01101 0.228409,-0.0062 0.378268,0.02384 0.396014,0.03058 0.72037,0.07286 0.253521,-0.0034 0.496297,0.0063 0.749825,0.04134 0.09138,0.01262 0.180231,0.04008 0.271301,0.05478 0.02149,0.0035 -0.04055,-0.0176 -0.06201,-0.02119 0.138417,0.01363 0.277062,0.0272 0.415479,0.04082 0.07792,0.01193 0.155237,0.02686 0.233577,0.03566 0.04055,0.0412 0.08013,-0.007 0.11989,-0.0026 0.457179,0.05062 0.315614,0.02551 0.67231,0.11834 -0.02589,-0.01373 -0.0921,-0.01593 -0.07751,-0.04134 0.01639,-0.02856 0.06405,-0.0038 0.09819,-0.0031 3.17e-4,6e-6 8.2e-4,-2e-6 10e-4,0 0.0011,6e-6 0.0025,5.3e-4 0.0036,5.3e-4 0.0099,-5.3e-4 0.01346,-0.0013 0.02946,-0.0026 0.08599,-0.0049 0.276035,-0.01561 0.315227,-0.01601 0.36489,0.007 0.72957,0.0045 1.094507,0.0036 0.390914,-5.29e-4 0.782141,0 1.173054,0 0.115404,-0.01804 0.23368,0.01379 0.349332,0 0.0082,-0.0011 0.0071,-0.01603 0.01447,-0.01963 0.01934,-0.0095 0.04141,-0.01384 0.06253,-0.0181 0.242316,-0.04841 0.212297,-0.03692 0.476457,-0.05478 0.06001,0.0034 0.119835,0.0062 0.179834,0.0098 0.48773,-0.08982 0.344816,-0.07333 0.491959,-0.07596 0.01479,-0.0029 0.03125,-0.0065 0.04031,-0.0072 0.0024,-1.95e-4 0.0076,-2.19e-4 0.01035,-5.29e-4 0.235617,-0.04499 0.273505,-0.05733 0.349848,-0.06149 0.01871,-0.0109 0.04074,-0.01537 0.06098,-0.02376 0.122976,-0.05089 0.248595,-0.09497 0.374656,-0.137459 0.135548,-0.07762 0.298791,-0.05887 0.441317,-0.110588 0.02077,-0.0076 -0.04534,0.0075 -0.06667,0.0016 -0.0073,-0.0021 0.01077,-0.01161 0.01757,-0.01498 0.205663,-0.101473 0.27795,-0.131283 0.468704,-0.214974 0.445468,-0.14112 0.380987,-0.122205 0.522449,-0.149346 0.0037,-0.0016 0.01127,-0.0043 0.01447,-0.0057 0.03429,-0.0061 0.137383,-0.02606 0.103355,-0.0186 -0.09591,0.02098 -0.07968,0.01696 -0.117825,0.02429 -0.0864,0.03512 -0.297693,0.109328 -0.21859,0.0925 0.168544,-0.03583 0.28344,-0.06402 0.370003,-0.08785 0.0287,-0.01844 0.05701,-0.03749 0.08578,-0.05581 -0.0021,1.53e-4 -0.0041,2.3e-4 -0.0062,5.29e-4 -0.0371,0.01352 -0.146293,0.05874 -0.111103,0.04082 0.06147,-0.0313 0.123729,-0.05889 0.186033,-0.08578 0.123452,-0.07798 0.24905,-0.152117 0.37414,-0.227378 0.04423,-0.03064 0.0916,-0.05967 0.141076,-0.0832 0.124237,-0.07319 0.246409,-0.149854 0.372586,-0.219625 0.490768,-0.271357 1.008811,-0.489961 1.512054,-0.737423 1.091692,-0.536829 1.424741,-0.699886 1.706356,-0.842843 0.0068,-0.01328 0.01246,-0.02739 0.01963,-0.04031 -0.0065,-0.0149 0.0427,-0.08902 0.106455,-0.175183 0.0096,-0.04296 0.04351,-0.08772 0.08475,-0.133842 0.107294,-0.218136 0.221573,-0.433756 0.176218,-0.242364 -0.01998,0.08425 -0.107379,0.165391 -0.176218,0.242364 -0.01072,0.02183 -0.02109,0.04206 -0.03152,0.06356 0.114282,-0.147992 0.239414,-0.295336 0.190686,-0.224793 -0.06686,0.0968 -0.143965,0.18627 -0.217041,0.278535 -0.01066,0.02222 -0.01789,0.03688 -0.02739,0.05684 0.0029,0.01474 0.0088,0.02911 0.02016,0.04341 0.0093,0.01169 0.02043,0.02793 0.02997,0.04031 0.161472,-0.08323 0.323011,-0.166084 0.677476,-0.351917 -0.06882,-0.21622 -0.05438,-0.423947 0.102838,-0.615982 0.01463,-0.01788 0.02937,-0.03345 0.04444,-0.04806 -0.363083,0.215966 -0.544116,0.346093 -0.282152,0.159162 0.235514,-0.168817 0.462561,-0.349903 0.706416,-0.506428 0.136168,-0.0874 0.27613,-0.16814 0.415997,-0.249597 0.06161,-0.06153 0.138575,-0.108477 0.205155,-0.165365 0.394679,-0.266557 0.794139,-0.497747 1.215946,-0.711068 -0.03059,-0.271145 -0.05477,-0.516689 -0.105937,-0.858864 -0.0024,-0.01654 0.559769,-0.405884 0.673344,-0.496093 0.215905,-0.28379 0.455673,-0.446538 0.763262,-0.683678 0.2916,-0.224814 0.559914,-0.383884 0.89245,-0.54932 0.111392,-0.05542 0.229367,-0.09623 0.344165,-0.144177 0.296129,-0.111019 0.595942,-0.196467 0.906407,-0.256318 0.04111,-0.0079 0.08285,-0.0118 0.124539,-0.01654 -0.05655,-0.171876 -0.106659,-0.345718 -0.143145,-0.523481 -0.0332,-0.161769 0.241708,-0.226267 0.377756,-0.319879 0.118549,-0.08157 0.243988,-0.154569 0.372587,-0.222207 0.132998,-0.144233 0.241691,-0.309801 0.344164,-0.476457 0.0077,-0.01249 0.01479,-0.02537 0.02273,-0.03772 0.0043,-0.01254 0.0097,-0.02516 0.01291,-0.03772 0.01733,-0.02373 0.06472,-0.09788 0.05219,-0.07131 -0.01802,0.03822 -0.04222,0.07342 -0.06511,0.109038 -0.03395,0.09888 -0.09412,0.197469 -0.07183,0.29714 0.0028,0.01238 0.01225,0.0474 0.01704,0.06718 0.0057,-0.0024 0.0114,-0.0048 0.01704,-0.0072 0.07764,-0.304165 0.278633,-0.654632 0.634587,-1.062466 -0.08268,0.0628 -0.180213,0.136181 -0.320394,0.235128 -0.01918,0.01355 -0.0249,0.04069 -0.04289,0.05581 -0.0079,0.0066 0.0085,-0.0186 0.01291,-0.02791 0.01474,-0.03151 0.02954,-0.06314 0.04444,-0.09457 0.140978,-0.277667 0.2638,-0.577302 0.463537,-0.820102 0.08355,-0.101563 0.175569,-0.195258 0.263551,-0.293008 0.02085,-0.01691 0.04163,-0.03382 0.06253,-0.05064 0.02003,-0.09296 0.04324,-0.185156 0.08165,-0.27182 0.07248,-0.163518 0.216054,-0.285247 0.313677,-0.435115 0.02713,-0.04165 -0.06862,0.07195 -0.102838,0.108006 0.03995,-0.05255 0.07994,-0.105064 0.11989,-0.157615 -0.0074,0.0067 -0.01341,0.01487 -0.02119,0.02119 -0.02323,0.01889 0.024,-0.05479 0.03824,-0.08113 0.165854,-0.306642 0.184918,-0.340842 0.181901,-0.332796 0.04178,-0.122121 0.08905,-0.242414 0.125058,-0.366387 0.03566,-0.122788 0.04917,-0.276304 0.0739,-0.398941 0.123473,-0.617715 0.372422,-1.20232 0.603065,-1.785938 0.01273,-0.03036 0.02551,-0.06059 0.03824,-0.09095 0.04263,-0.161449 0.08784,-0.302657 0.02946,-0.0708 -5.6e-5,7.93e-4 5.5e-5,0.0013 0,0.0021 0.0038,-0.0091 0.0075,-0.01826 0.01138,-0.02739 0.0031,-0.01003 0.01159,-0.04073 0.0093,-0.03049 -0.01455,0.0656 -0.02072,0.134808 -0.03256,0.201538 -0.0038,0.05677 -0.0047,0.110318 0.0067,0.200504 0.006,0.0474 0.01368,0.186671 0.02791,0.141078 0.06016,-0.192725 0.103812,-0.390419 0.147278,-0.588078 0.01003,0.11063 0.02653,0.221091 0.03721,0.331245 0.0029,0.02976 0.01831,0.05732 0.02894,0.08527 0.0081,0.0214 0.02339,0.08558 0.02739,0.06304 0.02659,-0.150786 0.04833,-0.302424 0.07183,-0.453718 -0.02455,-0.165656 -0.04816,-0.514355 -0.0031,-0.671277 -0.06667,0.211045 -0.114546,0.427924 -0.162264,0.644922 -0.0087,-0.09544 -0.01251,-0.190876 -0.0021,-0.285771 0.02598,-0.234231 0.08027,-0.312614 0.172082,-0.441317 -5.29e-4,-0.01138 -0.0013,-0.02222 -0.0016,-0.03359 0.01259,-0.05133 0.02527,-0.102632 0.03773,-0.153996 0.0028,-0.01511 0.0061,-0.0333 0.0078,-0.04289 0.0013,-0.0024 0.0047,-0.0093 0.0041,-0.0067 -0.0038,0.01656 -0.0079,0.03308 -0.01188,0.04961 -0.01008,0.05377 -0.02371,0.121502 -0.01241,0.08888 0.03326,-0.09605 0.06014,-0.194463 0.08733,-0.292486 5.3e-4,-0.0052 0.0016,-0.01447 0.0021,-0.0186 0.0034,-0.0079 0.0069,-0.01535 0.01035,-0.02326 -0.004,0.014 -0.0085,0.0278 -0.01241,0.04186 -0.0079,0.0677 -0.02754,0.20932 -0.01654,0.156062 0.0287,-0.138999 0.02796,-0.146317 0.04547,-0.235643 -0.0051,0.01172 -0.01045,0.02339 -0.01551,0.03514 0.0073,-0.02588 0.01619,-0.05119 0.02376,-0.077 0.01656,-0.08568 0.0408,-0.205446 0.04806,-0.248563 0.01183,-0.01691 0.03766,-0.07887 0.09715,-0.265099 0.0071,-0.02236 -0.03546,0.07994 -0.04186,0.05736 -0.01085,-0.03803 0.01159,-0.07902 0.02479,-0.116271 0.05866,-0.164481 0.127076,-0.325191 0.190685,-0.487825 0.0204,-0.03304 0.0416,-0.06598 0.06253,-0.0987 -0.02006,0.08247 -0.04016,0.165679 -0.04857,0.250113 -0.0052,0.0516 -0.0016,0.20583 0.0088,0.15503 0.03214,-0.156967 0.05754,-0.315002 0.08217,-0.473355 -0.014,0.0222 -0.02771,0.04454 -0.04186,0.06666 2.64e-4,-7.93e-4 2.4e-4,-0.0019 5.29e-4,-0.0026 0.006,-0.0245 0.02556,-0.06012 0.04702,-0.09612 -0.0016,0.01071 -0.004,0.02132 -0.0057,0.03204 0.02849,-0.0452 0.05684,-0.09072 0.08268,-0.137459 0.02588,-0.0468 -0.03136,0.02798 -0.077,0.104386 0.01963,-0.127431 0.03894,-0.25555 0.05891,-0.382923 0.01201,-0.272863 0.08243,-0.531699 0.153995,-0.794266 0.04045,-0.127093 0.102606,-0.251347 0.152445,-0.378272 0.0035,-0.08446 0.0062,-0.168744 0.0093,-0.253215 0.01307,-0.07646 0.02244,-0.153207 0.03927,-0.228925 0.02898,-0.130268 0.08306,-0.319275 0.127643,-0.455271 0.02014,-0.06142 0.04147,-0.121478 0.06305,-0.182417 0.0029,-0.05629 0.0029,-0.111213 0.0078,-0.165881 0.0034,-0.03768 0.01831,-0.07308 0.03049,-0.109037 -0.01289,0.05993 -0.01445,0.113551 -0.01707,0.174149 0.0016,0.02437 0.0016,0.01415 0.0026,0.02946 0.0057,-0.0172 0.0075,-0.02093 0.01188,-0.03307 0.0029,-0.05696 0.01056,-0.133051 0.02016,-0.232027 -0.0035,0.01087 -0.0049,0.01593 -0.0067,0.0217 0.0026,-0.0086 0.0043,-0.01781 0.0072,-0.02635 0.0051,-0.05166 0.0132,-0.109226 0.02066,-0.165881 -0.0065,-0.667848 -0.0059,-1.335696 -0.0011,-2.003496 -0.391787,0.09062 -0.450061,0.05211 -0.437184,-0.532784 0.0016,-0.07983 -0.01,-0.161699 0.0067,-0.239779 0.0053,-0.02499 0.0055,0.05109 0.0083,0.07648 0.01188,0.0015 0.02379,0.004 0.03566,0.0057 0.0099,-0.05059 0.02421,-0.116488 0.03049,-0.151412 -0.0374,-0.01154 -0.07003,-0.02241 -0.108519,-0.03411 -0.1335,-0.04054 0.01482,-0.256798 0.0677,-0.406694 0.0083,-0.039 0.0186,-0.08954 0.02894,-0.136942 5.29e-4,-0.003 0.0016,-0.0064 0.0021,-0.0093 0.01259,-0.05772 0.02021,-0.09377 0.03514,-0.164848 0.202372,-0.699705 0.145687,-0.530475 0.285252,-0.888835 -0.01712,-0.177275 -0.03242,-0.354613 -0.05116,-0.53175 -0.02674,-0.215841 -0.07797,-0.421889 -0.120922,-0.635103 -0.110326,-0.547707 -0.191093,-1.099581 -0.266134,-1.65313 -0.06546,-0.503655 -0.03128,-0.246511 -0.102835,-0.770495 -0.0061,-0.04647 -0.0048,-0.06339 -0.0072,-0.08578 -0.01246,-0.02942 -0.02474,-0.05894 -0.03721,-0.08837 -0.0085,-0.02551 -0.01728,-0.05082 -0.02532,-0.07648 0.01601,0.03115 0.03776,0.0747 0.02997,0.05529 -0.01289,-0.03214 -0.02858,-0.06357 -0.04341,-0.09509 0.0042,0.01319 0.0093,0.02605 0.01344,0.03927 -0.008,-0.01535 -0.01164,-0.01803 -0.0155,-0.02791 -0.0053,-0.01354 -0.005,-0.01874 -0.01188,-0.04186 0.0048,0.01008 0.0092,0.02037 0.01394,0.03049 -0.01103,-0.03444 -0.02101,-0.06914 -0.03411,-0.102836 -0.009,-0.02324 0.0084,0.03219 0.02016,0.07183 -0.07802,-0.160807 -0.16891,-0.317195 -0.202055,-0.491443 -5.29e-4,-0.0032 -5.29e-4,-0.0066 -0.0011,-0.0098 -0.07047,-0.145484 -0.100296,-0.214337 -0.153477,-0.373104 -0.0057,-0.0069 -0.01193,-0.01325 -0.01757,-0.02015 -0.01482,0.220215 -0.03319,0.133639 -0.04806,-0.06408 -0.03598,-0.04729 -0.07195,-0.09446 -0.103354,-0.145728 -0.281139,-0.458876 -0.276548,-0.509373 -0.403593,-0.926558 -0.07986,-0.267027 -0.156078,-0.534901 -0.233577,-0.802535 -0.01754,-0.02244 -0.02964,-0.05691 -0.03876,-0.103353 -0.0076,-0.01403 -0.01725,-0.03233 -0.02273,-0.04134 -0.05184,-0.08513 -0.104838,-0.167681 -0.160197,-0.250631 -0.08861,-0.101192 -0.122179,-0.233516 -0.190685,-0.345715 -0.01495,-0.02446 -0.03909,-0.04184 -0.05581,-0.06511 -0.170559,-0.237334 -0.334151,-0.479845 -0.506429,-0.716235 -0.193953,-0.276527 -0.367276,-0.557966 -0.495578,-0.862996 -0.04417,-0.05394 -0.08356,-0.106733 -0.119372,-0.158647 0.03846,0.04759 0.07501,0.09358 0.11007,0.135909 -0.01556,-0.03779 -0.03036,-0.07615 -0.04444,-0.114722 -0.01357,-0.01657 -0.01873,-0.02172 -0.03307,-0.03927 -0.06042,-0.07403 -0.117814,-0.150537 -0.174665,-0.227377 0.04031,0.08487 0.08714,0.165252 0.14211,0.244946 -0.172336,-0.213253 -0.347448,-0.440454 -0.287837,-0.438732 0.01069,0.01408 0.02188,0.02829 0.03255,0.04237 0.03823,0.0504 0.07554,0.100547 0.113173,0.151412 -0.02275,-0.04792 -0.04447,-0.0978 -0.06408,-0.150378 -0.03947,-0.02677 -0.0684,-0.04354 -0.08165,-0.04392 -0.255045,-0.335825 -0.512281,-0.670122 -0.760161,-1.011308 -0.221967,-0.317135 -0.285986,-0.400664 -0.51108,-0.767912 -0.02323,-0.03791 -0.04471,-0.07776 -0.05891,-0.119889 -0.0075,-0.02212 0.0093,-0.05095 -0.0052,-0.06925 -0.153572,-0.194455 -0.406807,-0.297764 -0.520898,-0.529684 -0.340442,-0.44196 -0.659503,-0.903626 -0.922941,-1.3957801 -0.07814,-0.1758956 -0.160118,-0.3499943 -0.236678,-0.526583 -0.0081,-0.018598 0.006,-0.044405 -0.0057,-0.060978 C 42.348664,8.7724877 42.216227,8.6853993 42.133386,8.5597659 41.951758,8.3626013 41.900611,8.313135 41.845033,8.2388554 41.779419,8.1932063 41.714061,8.1484571 41.652794,8.1055303 41.273988,7.8642578 40.914313,7.5963478 40.561907,7.318498 40.329386,7.1747338 40.110207,7.0215371 39.903549,6.8404912 39.830852,6.776806 39.768813,6.7020496 39.698394,6.6358524 c -0.02543,-0.023908 0.04618,0.052936 0.07286,0.075448 -0.14879,-0.1041532 -0.277801,-0.2290299 -0.403073,-0.3586347 -0.08494,-0.048816 -0.170977,-0.1010918 -0.227378,-0.153996 -0.602665,-0.3525671 -0.207864,-0.1002186 -0.616497,-0.396358 -0.0047,-0.00342 -0.01027,-0.00567 -0.01551,-0.00827 0.02212,0.016547 0.01193,0.00793 0.03824,0.027905 0.01892,0.014369 -0.03955,-0.026247 -0.05943,-0.039274 0.0071,0.0037 0.01402,0.00782 0.02119,0.011369 -0.32975,-0.2466856 -0.269155,-0.1783984 -0.452686,-0.3772381 -0.164301,-0.038761 -0.265105,-0.1131798 -0.345197,-0.230477 -0.101885,-0.06222 -0.129256,-0.1259128 -0.09819,-0.190686 -0.0061,-0.013753 -0.01249,-0.028418 -0.0186,-0.042891 -0.325358,-0.1154798 -0.62821,-0.2833397 -0.93741,-0.4345988 -0.02103,-0.012295 -0.04574,-0.020053 -0.06305,-0.037207 -0.0096,-0.00945 5.29e-4,-0.035151 -0.01241,-0.03824 -0.09362,-0.022117 -0.191585,-0.018905 -0.286806,-0.032556 C 35.799941,4.3392389 35.312674,4.2340882 34.829955,4.1052578 34.212317,3.8989019 33.629554,3.6062031 33.013529,3.3947068 32.403488,3.1293009 31.787876,2.8772181 31.185735,2.5952724 30.950706,2.4187727 30.622373,2.3844616 30.356846,2.2815965 29.216935,2.059578 28.071646,1.8507292 26.963211,1.4986165 Z M 47.92214,32.547367 c 5.29e-4,0.01706 0.0019,0.0341 0.0026,0.05116 0.0094,-0.02881 0.01871,-0.05774 0.02894,-0.0863 -0.0059,0.0054 -0.01236,0.01045 -0.0181,0.01603 -0.005,0.007 -0.0087,0.01244 -0.01344,0.01913 z m 0.0026,0.05116 c 0.0075,0.170783 0.0191,0.341355 0.02326,0.512114 0.03408,-0.227325 0.06852,-0.454676 0.101804,-0.68213 -0.02977,0.02529 -0.05901,0.05093 -0.08785,0.077 -0.01405,0.03023 -0.0264,0.06128 -0.03721,0.09302 z m 0.02326,0.512114 c -0.0095,0.06349 -0.02064,0.126735 -0.03049,0.190169 0.01278,0.08634 0.02527,0.136652 0.02894,0.05374 0.0036,-0.08129 0.0034,-0.162586 0.0016,-0.243911 z M 37.311999,45.928978 c -0.0013,-0.0064 -0.0016,-0.0127 -0.0016,-0.01913 -0.01802,0.02342 -0.03613,0.04669 -0.05323,0.0708 -0.01857,0.02622 -0.03518,0.05442 -0.05116,0.0832 0.0032,0.0075 0.01826,0.0016 0.05426,-0.02635 0.01169,-0.02442 0.03356,-0.07047 0.05168,-0.108521 z m -6.706565,3.092318 c -0.01318,0.0026 -0.02148,0.0045 -0.03617,0.0072 0.04052,-0.0011 0.07923,-0.0019 0.182417,-0.0088 0.0499,-0.0034 -0.08816,-0.0024 -0.146243,0.0016 z m -0.03617,0.0072 c -0.0032,7.4e-5 -0.01154,5.29e-4 -0.01447,5.29e-4 -0.03526,0.007 -0.07147,0.01577 -0.05013,0.01188 0.03139,-0.0057 0.03842,-0.0075 0.0646,-0.01241 z M 17.701311,47.394511 c -0.08898,-0.0066 -0.208071,-0.01879 -0.379305,-0.04186 l 0.645439,0.286806 c -0.08576,-0.08591 -0.171185,-0.172122 -0.266134,-0.244946 z m -0.379305,-0.04186 -0.326078,-0.144693 c -0.03472,0.0026 -0.0692,0.0062 -0.103353,0.01085 0.03703,0.02561 0.05848,0.05119 0.04289,0.07441 0.153725,0.02596 0.277037,0.04468 0.38654,0.05943 z M 12.035957,4.9490519 c 0.0058,-0.00557 0.0076,-0.00729 0.01292,-0.012401 -0.05713,0.00815 -0.142208,0.023759 -0.28422,0.059945 -0.08915,0.022717 0.18052,-0.016584 0.271301,-0.047543 z m 0.01292,-0.012401 c 0.0056,-7.938e-4 0.0058,-8.732e-4 0.01085,-0.00156 0.03455,-0.026971 0.07728,-0.082054 0.05529,-0.062528 -0.0026,0.0023 -0.03896,0.037765 -0.06615,0.064079 z M 38.323242,1.5208374 c -0.06289,9.631e-4 -0.12573,0.00197 -0.188619,0.0031 0.01122,0.013053 -0.0081,0.012952 -0.06718,0.011369 -0.0079,-0.00322 -0.01585,-0.00654 -0.02376,-0.00982 -0.0019,3.56e-5 -0.0038,4.815e-4 -0.0057,5.159e-4 0.05401,0.023965 0.13141,0.059032 0.209807,0.096118 0.03683,-0.030879 0.06187,-0.064692 0.07545,-0.1012858 z m -13.783655,0.052193 c -0.02201,0.00449 -0.04432,0.00766 -0.06615,0.012919 -0.009,0.00217 0.01891,0.00538 0.02791,0.0031 0.0091,-0.00232 0.0248,-0.010188 0.03824,-0.016019 z m -1.807125,0.2976562 c -9.79e-4,-6.958e-4 -0.0055,-5.847e-4 -0.01344,0.00103 -0.103324,0.021033 -0.205047,0.049038 -0.306958,0.076481 0.04153,-0.00302 0.08259,-0.00463 0.12299,-0.010335 0.05648,-0.00798 0.204231,-0.062314 0.197404,-0.067179 z m 16.17834,0.2056722 c 0.03591,0.029939 0.07136,0.060409 0.108006,0.0894 0.03167,0.025057 -0.06023,-0.053817 -0.09043,-0.080615 -0.0059,-0.00292 -0.01172,-0.00584 -0.01757,-0.00878 z M 17.571537,2.5466146 c -0.0196,0.017316 -0.02258,0.024472 0.0052,0.01757 -0.0015,-0.00573 -0.0032,-0.010963 -0.0052,-0.01757 z m 17.927072,0.5524211 c 0.02188,0.011872 0.05153,0.029878 0.06873,0.038241 0.0032,0.00156 0.01029,0.00307 0.01394,0.00465 -0.0114,-0.010311 -0.02273,-0.02068 -0.03411,-0.031006 -0.01624,-0.00376 -0.03237,-0.00806 -0.04857,-0.011885 z M 15.097786,3.2654338 c -0.07281,0.045521 -0.15553,0.1061167 -0.24753,0.1844847 0.07344,0.020077 0.147431,0.028804 0.196371,0.01447 0.07615,-0.022304 0.145424,-0.063709 0.218074,-0.095601 -0.05488,-0.035497 -0.111016,-0.069254 -0.166915,-0.1033537 z m -0.138493,0.00206 c -0.01496,0.00694 -0.02999,0.013748 -0.04496,0.020672 0.001,0.00354 0.0036,0.00821 0.0041,0.011369 0.01376,-0.010443 0.02721,-0.021426 0.04082,-0.032039 z m -0.174149,0.081132 c -0.01295,0.00614 -0.02585,0.012393 -0.03876,0.018603 0.01159,-6.879e-4 0.02641,-0.0014 0.03617,-0.00206 -6.7e-5,-0.00515 0.0017,-0.011028 0.0026,-0.016536 z m -0.0026,0.016536 c 1.26e-4,0.00978 0.002,0.01887 0.0052,0.027389 0.01635,-0.010906 0.033,-0.021243 0.04909,-0.032556 -0.01577,0.0022 -0.03383,0.00376 -0.05426,0.00517 z m 0.0052,0.027389 c -0.01158,0.00772 -0.02291,0.015753 -0.03462,0.023254 0.02611,0.011261 0.05374,0.021024 0.08216,0.029456 -0.0232,-0.013983 -0.03971,-0.031335 -0.04754,-0.05271 z m -0.03462,0.023254 c -0.01947,-0.0084 -0.03484,-0.017799 -0.05168,-0.026872 -0.01649,0.00802 -0.03312,0.015732 -0.04961,0.02377 0.01187,0.00799 0.02436,0.015782 0.03617,0.02377 0.0075,0.00506 0.0017,0.01071 0.0036,0.01602 0.02042,-0.012353 0.04139,-0.023834 0.0615,-0.03669 z M 8.1571153,5.2870126 C 7.8613164,5.3768024 7.5436079,5.4839254 7.1690619,5.6218759 7.2272329,5.7861406 7.2712691,5.922038 7.3039375,6.0363208 7.3688022,6.00251 7.4207934,5.9739329 7.4377793,5.9598399 7.6904871,5.7501711 7.9238697,5.5185741 8.1571153,5.2870126 Z M 38.990374,6.062159 c -0.03792,-0.033332 0.07197,0.070949 0.111107,0.1028361 0.0027,0.0022 0.006,0.00364 0.0088,0.00568 -0.02885,-0.026847 -0.05527,-0.051723 -0.119891,-0.1085207 z m 0.437185,0.3255616 c 0.02122,0.02499 0.01669,0.019815 0.182416,0.1095542 -2.01e-4,-2.556e-4 -2.24e-4,-7.673e-4 -5.29e-4,-0.00103 -0.128984,-0.079269 -0.12465,-0.075199 -0.181901,-0.1085205 z m 0.197402,0.1281575 c 0.005,0.00709 0.0089,0.012356 0.01394,0.019637 0.0013,0.0018 0.0026,0.00225 0.0047,0.00465 -0.0059,-0.00749 -0.01297,-0.017148 -0.0186,-0.024289 z m 5.025017,0.3880901 c -0.0043,-1.281e-4 -0.0067,0.00327 -0.0062,0.011369 0.03058,0.021095 0.05986,0.043888 0.08992,0.065629 -0.03258,-0.036712 -0.06917,-0.076562 -0.08372,-0.076998 z m -2.263428,1.815393 c -0.01445,-0.00217 0.02972,0.042708 0.131776,0.1080037 -0.0051,-0.0058 -0.01043,-0.011292 -0.01551,-0.017052 -0.06511,-0.062457 -0.105434,-0.089317 -0.116271,-0.09095 z m 0.116271,0.09095 c -0.006,-0.00678 -0.01143,-0.014023 -0.01757,-0.020672 -0.0021,-0.00233 -0.0098,-0.00807 -0.0078,-0.00568 0.008,0.00926 0.01683,0.017544 0.02532,0.026355 z m 5.207437,0.8986531 c 0.02598,0.04128 0.0082,0.012118 0.0217,0.033073 -0.0033,-0.00595 -0.006,-0.012158 -0.0093,-0.018087 -0.0031,-0.00555 -0.01577,-0.020365 -0.01241,-0.014986 z M 2.9605428,11.227221 c -0.028456,0.02342 -0.054204,0.04807 -0.059945,0.0801 -0.017563,0.09799 -0.00749,0.313413 0.010335,0.418062 0.013414,0.0058 0.022646,0.01075 0.035657,0.01654 0.033731,-0.167924 0.021016,-0.341815 0.013952,-0.514698 z m 2.6225788,0.510563 c -0.03087,0.08192 -0.064644,0.162378 -0.098702,0.24288 0.044931,-0.05664 0.068192,-0.139788 0.098702,-0.24288 z m -3.4953938,0.322461 c 0.019248,0.07522 -0.013343,0.160609 -0.01602,0.240296 0.044641,0.0985 0.032223,0.258579 0.133842,0.295589 0.096967,0.03532 0.2488489,0.08818 0.3958414,0.126607 0.077203,-0.10441 0.1563063,-0.207617 0.2356446,-0.310575 C 2.6274603,12.269194 2.30347,12.214522 2.0877278,12.060245 Z m 45.1677872,4.030762 0.0047,0.07183 c 0.0076,0.01467 0.01707,0.02863 0.02585,0.04289 -7.94e-4,-0.0057 -0.0019,-0.01309 -0.0026,-0.01912 -0.0091,-0.03192 -0.01881,-0.06367 -0.0279,-0.0956 z m 0.659908,1.506368 c 0.01696,0.02398 0.03524,0.0481 0.05529,0.0739 -0.0016,-0.0042 -0.0037,-0.01181 -0.0052,-0.01602 -0.01693,-0.01909 -0.03356,-0.03848 -0.05013,-0.05788 z M 0.10386963,19.164721 c -0.0395393,0.005 -0.07925788,0.01187 -0.11833903,0.02119 -0.01063366,0.0025 -0.01802406,0.02128 -0.02583822,0.03772 v 0.405143 c 0.04926409,-0.154184 0.0933243,-0.310532 0.14417725,-0.464055 z m -0.14417725,0.547771 v 0.731738 c 0.05250979,-0.1918 0.11003454,-0.382047 0.18190104,-0.568958 0.0105556,-0.04388 0.0193557,-0.08817 0.0289388,-0.132291 -0.0704372,-0.01266 -0.14069679,-0.02296 -0.21083984,-0.03049 z M 48.912777,24.773165 c -2.64e-4,0.09705 0.0054,0.174104 0.01601,0.114205 0.0077,-0.04331 0.01035,-0.06496 0.01707,-0.10387 -0.01103,-0.0035 -0.02193,-0.0069 -0.03307,-0.01034 z m 0.238744,3.018938 c -0.0032,0.01013 -0.0054,0.02043 -0.0088,0.03049 2.65e-4,-0.0016 6.9e-5,-0.0033 5.29e-4,-0.0052 0.0021,-0.0087 0.0055,-0.01746 0.0083,-0.02532 z m -0.05064,0.380855 c -0.01074,0.03835 -0.02209,0.07671 -0.03204,0.115239 0.04147,0.692772 0.01506,0.322329 0.03204,-0.115239 z m -0.178801,0.866097 c -0.0035,-0.0046 -0.04202,0.08343 -0.04806,0.117822 -0.0019,0.01079 -0.0021,0.03357 -0.0036,0.04909 0.02014,-0.05231 0.03852,-0.10533 0.05116,-0.159165 0.0011,-0.0049 0.0011,-0.007 5.29e-4,-0.0078 z M 0.7663615,29.412676 c -0.16080753,0.06029 -0.42753018,0.328078 -0.23771159,0.525547 0.0158435,0.01648 0.0327005,0.03166 0.0501261,0.04599 0.255944,-0.137007 0.47313119,-0.245581 0.63923749,-0.311608 -0.1493049,-0.08838 -0.30525053,-0.167751 -0.45165203,-0.259932 z m 47.2978895,2.918166 c -0.0204,0.03073 -0.04246,0.06067 -0.06046,0.0925 0.01619,-0.01995 0.03511,-0.0387 0.05529,-0.05839 0.0016,-0.01138 0.0035,-0.02273 0.0052,-0.03411 z M 1.9115112,32.709115 c -0.022204,0.04284 -0.041488,0.09023 -0.059428,0.140559 0.0067,-0.01291 0.015601,-0.02519 0.020154,-0.03876 0.010151,-0.03026 0.028127,-0.06697 0.039274,-0.101803 z m -1.72547605,1.405599 c -0.08779647,0.02302 -0.15910341,0.09746 -0.22634277,0.180866 v 0.215493 c 0.09319928,-0.0327 0.19321681,-0.06977 0.27285156,-0.09405 -0.0161359,-0.100621 -0.0313483,-0.201533 -0.0465088,-0.302307 z m 0.16123047,0.09147 c -0.0298374,0.06315 -0.0503202,0.130725 -0.0552938,0.193786 0.0469329,-0.01373 0.0972524,-0.02939 0.13849283,-0.04031 -0.0298185,-0.05007 -0.0569866,-0.101467 -0.0831991,-0.153479 z m -0.38757324,0.995288 V 50.768993 H 10.535274 c -0.115049,-0.194749 -0.218448,-0.420216 -0.304891,-0.679545 -0.03707,-0.111199 -0.06773,-0.224417 -0.111104,-0.333311 -0.1963504,-0.49298 -0.4285072,-0.971653 -0.6604248,-1.450041 -0.3959567,-0.07545 -0.5280097,-0.231691 -0.8883179,-0.631487 0.040169,0.05779 0.07985,0.115602 0.120406,0.173117 0.004,0.0026 0.00845,0.0045 0.012401,0.0072 0.013306,0.009 0.031756,0.05585 0.02222,0.04289 -0.012044,-0.01638 -0.022908,-0.03352 -0.034623,-0.05013 C 8.5922203,47.783106 8.480877,47.738304 8.3865663,47.667335 7.8961946,47.298348 7.7150021,47.017845 7.5101334,46.472089 7.2863054,46.397116 7.0913927,46.259515 6.9194717,46.070046 6.8821636,46.019895 6.8460506,45.96878 6.8094008,45.918117 6.8127107,45.920234 6.7914991,45.90375 6.6693576,45.817348 6.58485,45.757576 6.4994938,45.699307 6.414593,45.640098 6.2820526,45.523139 6.141562,45.414311 6.0166843,45.289216 5.2976545,44.568875 4.9227171,43.678808 4.7862686,42.681104 4.7286714,42.326888 4.6551884,41.972463 4.6136692,41.615537 c -0.00626,-0.0082 -0.012107,-0.01685 -0.018603,-0.02479 -0.03067,-0.07946 -0.063562,-0.158189 -0.094051,-0.237712 -0.089642,-0.09559 -0.1700776,-0.206391 -0.2237589,-0.321427 -0.00241,-0.0034 -0.00487,-0.0069 -0.00723,-0.01035 -0.273072,-0.08047 -0.3866584,-0.400915 -0.4397666,-0.775663 -0.00196,-0.0036 -0.00371,-0.0072 -0.00568,-0.01085 -0.00476,-0.03875 -0.052362,-0.199705 -0.07028,-0.368969 -0.03242,0.02114 -0.065477,0.04134 -0.098185,0.06201 -0.056374,0.168061 -0.058256,0.353219 -0.092501,0.528135 -0.025876,-2.46e-4 -0.05198,0.0013 -0.078032,0.0021 C 3.3809623,41.074411 3.2484978,41.0591 2.7559042,41.620247 2.4035555,41.489442 1.9607102,41.496874 1.6986043,41.227505 1.5115754,41.035295 1.5796425,40.697227 1.5973185,40.429622 1.6393485,39.793333 1.7121177,39.295948 1.813326,38.834886 1.553491,39.070261 1.3357817,39.419975 0.99683837,39.440535 0.73531905,39.456384 0.57192844,39.092061 0.48265789,38.845739 0.32283477,38.404742 0.64980211,36.740685 0.69246419,36.532701 0.56381309,36.120483 0.46230156,35.700957 0.38447266,35.301769 0.18765693,35.319205 0.05582226,35.276052 -0.04030762,35.201516 Z M 46.781125,35.995737 c 0.01884,-0.03291 -0.0424,0.0631 -0.06356,0.09457 -0.0043,0.01087 -0.0061,0.01437 -0.01291,0.03255 0.01474,-0.02313 0.02164,-0.0314 0.07648,-0.127122 z m -0.611849,1.2392 c -0.03669,0.0591 -0.07134,0.119107 -0.104905,0.179316 -0.01368,0.06759 -0.02867,0.134903 -0.04857,0.200506 -0.01619,0.05331 0.0089,-0.0769 0.0217,-0.153998 -0.0308,0.06011 -0.05698,0.121582 -0.0739,0.187071 -0.01511,0.05849 -0.02402,0.153419 -0.02945,0.25218 0.05547,-0.05124 0.110093,-0.09595 0.163295,-0.132292 0.02392,-0.177424 0.04098,-0.356782 0.07183,-0.532783 z M 46.0375,37.460761 c 0.0081,-0.01582 0.01818,-0.03092 0.02687,-0.04651 0.0021,-0.01085 0.004,-0.0217 0.0062,-0.03255 -0.0089,0.01474 -0.01871,0.02908 -0.02739,0.04392 -0.0011,0.0078 -0.0039,0.02418 -0.0057,0.03514 z m 3.143478,0.146762 c -0.01746,0.02434 -0.03502,0.04864 -0.04909,0.07493 -0.03273,0.06114 -0.0551,0.127823 -0.09198,0.18655 -0.08513,0.135577 -0.179002,0.265136 -0.269235,0.397393 -0.0039,0.01074 -0.0061,0.02069 -0.01035,0.03152 0.0051,-0.0061 0.0069,-0.0079 0.01035,-0.01188 0.02191,-0.03306 -0.02111,0.03211 -0.01291,0.02016 -1.48e-4,2.62e-4 -2.27e-4,5.29e-4 -5.29e-4,0.0011 -0.04231,0.106966 -0.09702,0.215514 -0.149347,0.312127 -0.0021,0.0094 -0.0034,0.01902 -0.0057,0.02842 -0.0094,0.03873 -0.05549,0.103328 -0.09405,0.147796 -0.08959,0.150742 -0.115718,0.180282 0.0894,-0.09974 -0.01429,0.03213 -0.02342,0.06698 -0.04238,0.09664 -0.104873,0.163959 -0.303162,0.437866 -0.50746,0.595828 -0.04256,0.08357 -0.08141,0.16946 -0.124024,0.252698 -0.03141,0.0662 -0.06248,0.130051 -0.09457,0.192752 0.110779,0.06214 0.221507,0.124415 0.33228,0.186552 -0.02593,-0.102417 -0.05127,-0.20488 -0.07234,-0.307475 -0.03356,-0.06772 -0.05502,-0.115271 -0.0155,-0.0708 0.004,0.02363 0.01064,0.0472 0.0155,0.0708 0.06598,0.133141 0.195654,0.371441 0.116787,0.33228 -0.01479,-0.0083 -0.02965,-0.01656 -0.04444,-0.02479 0.04505,0.178017 0.08383,0.356135 0.06666,0.536403 -0.02468,0.258792 -0.218181,0.47253 -0.31006,0.715717 -0.01762,0.04666 0.0665,-0.104873 0.11524,-0.197919 -0.200996,0.614818 -0.138539,0.583943 -0.706417,1.190106 -0.08607,0.09187 -0.203221,0.14859 -0.312642,0.210842 -0.226092,0.128614 -0.458068,0.232619 -0.69505,0.324527 -0.0085,0.06183 -0.01569,0.118139 -0.0279,0.193786 -0.0029,0.01767 -0.0099,0.03442 -0.01654,0.05116 0.0044,0.01643 0.0097,0.0326 0.01394,0.04909 0.0036,0.01384 0.0045,0.02771 0.0041,0.04134 v 5.3e-4 c -0.0027,0.0966 -0.09328,0.188097 -0.139009,0.278537 -0.03892,0.07697 -0.08098,0.151614 -0.12454,0.225309 0.41959,0.428334 0.706999,0.664297 0.869199,0.823206 0.0799,-0.0901 0.163052,-0.176797 0.255796,-0.254249 0.126262,-0.105442 0.02888,0.169905 -0.108002,0.451652 0.02754,0.08699 -0.02692,0.167589 -0.154512,0.286805 -0.10006,0.166841 -0.188087,0.273302 -0.199988,0.183968 -0.03706,0.04317 -0.07306,0.08299 -0.104389,0.07803 0.02798,-0.02373 0.0553,-0.04801 0.0832,-0.07183 0.0108,-0.0092 0.03169,-0.02495 0.05013,-0.03927 0.02201,-0.02471 0.04399,-0.04706 0.06614,-0.05891 0.0016,-7.94e-4 0.0013,-5.29e-4 0.0026,-0.0011 0.03548,-0.0311 0.07426,-0.06473 0.10232,-0.09095 0.05191,-0.08656 0.104624,-0.184118 0.154511,-0.286806 -0.01757,-0.05546 -0.06628,-0.117544 -0.147793,-0.197403 -0.164002,0.184939 -0.30987,0.387864 -0.457338,0.589627 0.0417,0.04785 0.07724,0.09283 0.121957,0.14211 0.0076,0.0084 0.0155,0.01304 0.02376,0.01447 -0.03927,0.0333 -0.07844,0.06642 -0.116787,0.100769 -0.104902,0.09397 -0.207436,0.190431 -0.311095,0.285771 -0.340476,0.357627 -0.672907,0.742281 -1.067633,1.042313 -0.199459,0.151609 -0.406022,0.294725 -0.618567,0.427366 -0.332862,0.207711 -0.728469,0.304808 -1.035079,0.56017 -0.171492,0.105349 -0.343207,0.210913 -0.514697,0.316262 -0.07228,-0.0033 -0.153548,-0.0455 -0.216524,-0.0098 -0.06613,0.0374 -0.07219,0.133596 -0.114205,0.196887 -0.09839,0.148172 -0.16886,0.324575 -0.306959,0.436666 -0.587354,0.476718 -0.797703,0.445338 -1.471745,0.584459 -0.663641,0.11222 -1.144968,0.193461 -1.641244,0.291973 -0.12709,0.07309 -0.254937,0.145439 -0.381887,0.218591 -0.03118,0.01796 -0.115083,-0.244488 -0.10387,0.02946 -0.2066,0.109826 -0.257151,0.136054 -0.49041,0.263549 -0.100777,0.05508 -0.198493,0.116199 -0.301789,0.166399 -0.09338,0.04538 -0.187788,0.08856 -0.282671,0.130741 -0.354518,0.292367 -0.759245,0.270611 -1.192175,0.04547 -0.06567,0.0217 -0.157385,0.05288 -0.164333,0.0553 -0.01053,0.0021 -0.233397,0.04809 -0.34158,0.06098 -0.01561,0.0024 -0.03418,0.0049 -0.04393,0.0072 -0.06961,0.01646 -0.139181,0.0331 -0.208772,0.04961 -0.04573,0.01085 -0.09121,0.0217 -0.136943,0.03256 -0.115313,0.02249 -0.22502,0.07056 -0.340029,0.09353 -0.125958,0.04475 -0.253804,0.08458 -0.37724,0.135909 -0.01693,0.007 -0.03368,0.02655 -0.05064,0.03824 h 16.003675 v -1.165304 c -0.01625,-0.003 -0.02902,-0.0035 -0.04548,-0.0067 -0.376862,0.248607 -0.925426,0.548433 -1.741496,0.834056 -0.05936,0.02077 -0.06641,-0.106857 -0.09974,-0.160197 -0.315851,-0.505434 -0.31773,-0.763987 -0.139009,-0.877983 -5.29e-4,-0.236939 0.0049,-0.47376 0.01913,-0.711583 0.0059,-0.09888 7.2e-5,-0.200316 0.02532,-0.296106 0.0044,-0.01662 0.0465,0.0394 0.04702,0.02222 0.004,-0.129384 -0.02381,-0.258154 -0.03566,-0.387056 0.03911,-0.748959 0.184718,-1.490435 0.179318,-2.241722 -0.0067,-0.635741 -0.07026,-1.283952 0.04237,-1.913062 0.04415,-0.306123 0.02453,-0.09643 0.01654,-0.516766 -0.01132,-0.59795 -0.02606,-1.207915 0.06253,-1.800405 0.06685,-0.169259 0.02199,-0.02291 0.0052,-0.355534 -0.0098,-0.193394 -0.01643,-0.386704 -0.01913,-0.580326 -0.01378,-1.002562 0.03254,-2.005629 0.104386,-3.005503 z m 1.533239,11.989967 c 0.02003,-0.0132 0.02643,-0.02069 0.04548,-0.03359 v -0.84801 c -0.291491,0.132691 -0.62213,0.418717 -0.932243,0.697114 0.296045,0.0589 0.60407,0.129939 0.886767,0.184486 z m -3.993555,-4.499467 c -0.0019,0.0021 -0.0034,0.0042 -0.0052,0.0062 0.0074,-0.0064 0.01143,-0.01032 0.0186,-0.01654 -0.0049,0.0038 -0.0085,0.0065 -0.01344,0.01035 z m -0.427881,-1.962156 c -0.0048,0.0052 -0.0069,0.0062 -0.0098,0.0098 -5.3e-4,5.29e-4 -0.0016,0.0024 -0.0021,0.0031 0.004,-0.0043 0.0079,-0.0086 0.01188,-0.01291 z m -0.0181,-0.09095 c -0.01871,-0.06936 -0.03872,-0.138303 -0.06046,-0.206706 -0.176173,0.0654 -0.354309,0.12681 -0.536403,0.185521 -0.0036,0.0013 -0.0032,7.94e-4 -0.0067,0.0021 -0.02654,0.04667 -0.05256,0.09203 -0.07958,0.144177 0.09732,0.10876 0.190019,0.209892 0.277503,0.302308 0.145958,-0.104603 0.256302,-0.192453 0.324012,-0.247531 0.01929,-0.06153 0.0576,-0.118854 0.08165,-0.179835 z m -0.06046,-0.206706 c 0.03484,-0.01294 0.07029,-0.02482 0.104902,-0.03824 0.03486,-0.252582 0.04024,-0.410525 0.0026,-0.531749 -0.07353,0.04693 -0.154601,0.110506 -0.241845,0.197403 0.04732,0.123333 0.09442,0.246912 0.134358,0.372586 z m 2.293916,-4.042645 c 0.02882,-0.0485 0.06276,-0.107956 0.09974,-0.176218 0.0096,-0.04334 0.01794,-0.08663 0.02429,-0.130741 -0.01479,0.02061 -0.03102,0.04433 -0.04341,0.06046 -0.04635,0.09146 -0.09125,0.183613 -0.131259,0.278019 -0.01439,0.03398 0.01492,0.0097 0.05064,-0.03152 z M 46.06126,37.986311 c -0.05133,0.0043 -0.09123,0.01566 -0.130742,0.03256 -0.0019,0.18097 0.01344,0.330108 0.05581,0.224793 0.03351,-0.0833 0.05663,-0.169871 0.07545,-0.25735 z m 2.772957,0.09457 c -0.0057,0.01087 -0.0114,0.02172 -0.01704,0.03256 -0.0013,0.0063 -0.0024,0.015 -0.0036,0.02066 -0.0065,0.02703 -0.01852,0.05714 -0.0279,0.08578 0.0042,-0.0085 0.01037,-0.01595 0.01394,-0.02479 0.01236,-0.03061 0.02387,-0.07076 0.03462,-0.114208 z m -1.418,0.287321 c 0.14368,0.264523 0.245949,0.537247 0.316259,0.753444 0.0097,-0.292606 -0.105597,-0.541163 -0.316259,-0.753444 z m 0.727604,0.870749 c 0.01815,-0.02651 -0.04289,0.04862 -0.05891,0.07648 -0.0041,0.0072 -0.0074,0.01495 -0.01138,0.02222 0.02358,-0.03279 0.04745,-0.06539 0.07028,-0.0987 z m -44.3502646,0.60151 c -0.00902,0.006 -0.017833,0.01212 -0.026872,0.0181 -0.00881,0.04942 0.00222,0.100285 0.037207,0.152964 -0.00478,-0.0573 -0.00699,-0.113647 -0.010335,-0.171051 z m 1.8200439,1.102775 c 0.00811,0.01897 0.018045,0.03712 0.026872,0.05581 0.00101,-5.3e-4 0.00159,-7.94e-4 0.00259,-0.0016 -0.015645,-0.03011 -0.037535,-0.07314 -0.029456,-0.05426 z m 0.9513631,0.781349 c -3.175e-4,7.94e-4 6.085e-4,0.0031 0.0031,0.0067 0.011343,0.01656 0.026379,0.02943 0.042375,0.04186 4.233e-4,-0.0037 0.00185,-0.0083 0.00206,-0.01188 -0.023569,-0.02122 -0.046135,-0.04047 -0.047542,-0.03669 z m 1.9326987,0.925526 c -0.012256,7.94e-4 -0.024053,0.0048 -0.034623,0.01344 -0.1929479,0.15671 -0.4055581,0.303739 -0.6149496,0.454752 0.045764,0.05879 0.092725,0.116507 0.1379762,0.1757 0.243549,-0.118124 0.5249294,-0.271058 0.8542113,-0.477491 0.053934,-0.03381 -0.1099714,-0.06501 -0.1689817,-0.08888 -0.054702,-0.02212 -0.1205227,-0.08091 -0.1736328,-0.07751 z m 0.4759399,0.196887 c 0.061657,0.09883 0.1545333,0.195659 0.2516642,0.29197 -0.01419,-0.02847 -0.029215,-0.0572 -0.047026,-0.08526 -0.051986,-0.08191 -0.1363776,-0.137766 -0.2046385,-0.206706 z m 30.439485,1.317749 c 0.0021,-0.0079 -0.14991,0.06374 -0.201022,0.09715 -0.02983,0.0195 -0.07515,0.05921 -0.118854,0.0987 0.103847,-0.06078 0.207413,-0.122378 0.308507,-0.187587 0.0073,-0.0047 0.01106,-0.0071 0.01138,-0.0083 z m 0.785482,0.01707 c -0.513334,0.0055 -1.303472,0.407432 -1.84123,0.716235 0.206145,-0.04838 0.438825,0.123428 0.671793,0.387572 0.198863,-0.0392 0.381807,-0.0471 0.553455,-0.03669 0.01768,-0.01312 0.03498,-0.02673 0.05271,-0.03979 0.04253,-0.03135 0.113475,-0.04242 0.128675,-0.09302 0.0141,-0.047 -0.08269,0.05261 -0.124024,0.07906 -0.008,0.0058 -0.02969,0.02588 -0.02429,0.01757 0.197678,-0.302744 0.352165,-0.432478 0.661974,-0.672828 0.02825,-0.02191 0.05274,-0.03764 0.07545,-0.05064 0.01844,-0.01839 0.03685,-0.03689 0.0553,-0.0553 0.0077,-0.0066 0.0132,-0.01125 0.02066,-0.01757 0.02569,-0.031 0.06296,-0.06999 0.117824,-0.125574 -5.29e-4,-0.0036 -0.0011,-0.0073 -0.0016,-0.01085 -0.08694,-0.06929 -0.205441,-0.0997 -0.34675,-0.09819 z m -33.514233,1.57406 c -0.0052,-7.93e-4 0.050281,0.08908 0.073897,0.119373 0.00775,0.0099 0.034819,0.02938 0.049609,0.04031 -0.03782,-0.05224 -0.076227,-0.103796 -0.1173057,-0.153479 -0.0035,-0.0042 -0.00546,-0.0061 -0.0062,-0.0062 z m 1.5275552,0.720368 c -0.010237,0.0019 -0.019645,0.004 -0.029972,0.0057 -0.00164,7.94e-4 -0.003,0.0021 -0.00465,0.0031 -0.068052,0.03498 -0.1464595,0.04608 -0.2237589,0.04909 0.2190872,0.27087 0.3671271,0.334606 0.4687052,0.295074 -0.00796,-0.01035 -0.016367,-0.01953 -0.024289,-0.02997 -0.059782,-0.0789 -0.1035571,-0.16886 -0.150895,-0.255799 -0.018608,-0.03417 -0.019603,-0.03844 -0.03514,-0.06718 z m 5.1831458,0.03669 c 0.02557,0.01 0.0511,0.02074 0.07752,0.0279 0.01657,0.0045 -0.02735,-0.02424 -0.04444,-0.02585 -0.01101,-0.0011 -0.02206,-0.0013 -0.03307,-0.0021 z m 0.600997,0.200504 c 0.06421,0.04338 0.125213,0.0837 0.167948,0.107487 -0.06792,0.238408 -0.13565,0.476834 -0.203605,0.7152 0.01511,0.01262 0.03037,0.02508 0.04548,0.03772 0.0096,0.008 0.02267,0.01916 0.03256,0.02739 0.08916,-0.212783 0.162905,-0.430623 0.21084,-0.656291 0.02699,-0.127085 -0.102282,-0.180784 -0.253215,-0.23151 z m 2.768834,0.415464 c -0.004,-1.19e-4 -0.01037,5.29e-4 -0.01447,5.29e-4 0.03654,0.0096 0.0516,0.01328 0.116272,0.02997 -0.04148,-0.02302 -0.0711,-0.02958 -0.101803,-0.03049 z m 1.306897,0.404628 c 0.05166,0.06003 0.128746,0.144391 0.288354,0.285771 0.0111,0.0098 0.01585,0.0141 0.01809,0.0155 -1.22e-4,-0.0057 -0.215791,-0.216942 -0.295589,-0.296105 -0.0024,-0.0016 -0.0072,-0.0034 -0.01085,-0.0052 z m 0.306441,0.301273 c -0.199959,0.0324 -0.405398,0.0879 -0.283187,0.09508 0.25295,0.01487 0.504188,-0.04221 0.756543,-0.07286 -0.07529,-0.02196 -0.151174,-0.0404 -0.229443,-0.04547 -0.05747,-0.0037 -0.149342,0.008 -0.243396,0.02326 z m 0.602031,-0.0026 c -0.0011,5.29e-4 0.0081,0.005 0.02015,0.01085 0.0041,-2.65e-4 0.0083,-2.17e-4 0.0124,-5.29e-4 -0.01926,-0.0067 -0.03144,-0.0109 -0.03256,-0.01035 z m -3.218409,1.57975 c -0.0045,7.94e-4 0.04592,0.05651 0.06253,0.07855 0.02206,0.0089 0.04408,0.01797 0.06615,0.02687 -0.04018,-0.03523 -0.08077,-0.07003 -0.12299,-0.10232 -0.0031,-0.0024 -0.005,-0.0032 -0.0057,-0.0031 z m 0.288355,0.155027 c -0.0019,-0.0011 0.01159,0.01183 0.02584,0.02532 0.0021,7.94e-4 0.0041,0.0019 0.0062,0.0026 -0.0046,-0.004 -0.0088,-0.0084 -0.01344,-0.01241 -0.01142,-0.0098 -0.01732,-0.01482 -0.0186,-0.0155 z m -0.907438,0.246497 c -0.03964,0.231764 -0.0889,0.463881 -0.111105,0.69505 -0.06906,0.0862 -0.13639,0.173979 -0.205155,0.260448 h 3.925858 c -0.0063,-0.0048 -0.01286,-0.0091 -0.01912,-0.01394 -0.03286,-0.0092 -0.06576,-0.01844 -0.0987,-0.02687 -0.04335,-0.01109 -0.08108,-0.03937 -0.124023,-0.05168 -0.209596,-0.04071 -0.414205,-0.120796 -0.623218,-0.167947 0.0089,0.0046 0.01818,0.0089 0.02687,0.01394 0.01084,0.0063 -0.04633,-0.01873 -0.03411,-0.01601 0.0024,5.29e-4 0.0048,0.0016 0.0072,0.0021 -0.01306,-0.0068 -0.02625,-0.01384 -0.03927,-0.02066 -0.102644,-0.04576 -0.204443,-0.103677 -0.31471,-0.130226 -0.06241,-0.01503 -0.126599,-0.02326 -0.188619,-0.03979 -0.124301,-0.03312 -0.246579,-0.07279 -0.370003,-0.109038 -0.113273,-0.04866 -0.233334,-0.09842 -0.345199,-0.159678 -0.03738,-0.01175 -0.07436,-0.02482 -0.110587,-0.04134 -0.103244,-0.0081 -0.206377,-0.02294 -0.309025,-0.04186 -0.143276,0.01103 -0.375874,-0.02934 -0.513147,-0.05271 -0.121848,-0.02074 -0.2436,-0.04225 -0.365353,-0.06356 -0.08676,-0.01654 -0.129993,-0.025 -0.188618,-0.03617 z m -2.582272,0.320913 c 0.0041,0.0389 0.0082,0.07803 0.01395,0.116787 0.0074,0.05018 0.180324,0.07942 0.146244,0.04186 -0.05058,-0.05574 -0.104412,-0.108124 -0.160197,-0.158644 z m 5.737118,0.258897 c 0.207295,0.199808 0.211271,0.212056 0.221692,0.187587 -0.07365,-0.06287 -0.146592,-0.126661 -0.221692,-0.187587 z m -5.180562,0.192236 c -0.01159,0.06392 -0.02693,0.124452 -0.04392,0.183452 h 0.166398 c -0.04149,-0.0605 -0.08269,-0.12133 -0.122473,-0.183452 z" />
    </clipPath>
    <clipPath
       clipPathUnits="userSpaceOnUse"
       id="clipPath2421">
      <path
         id="path2423"
         style="fill:#ff0000;fill-opacity:1;fill-rule:nonzero;stroke:none;stroke-width:0.264583"
         d="M -0.0144694,-0.01550293 V 16.221749 c 0.35219613,-0.02017 0.71537298,0.0239 1.0578166,0.130224 0.2515754,-0.106509 0.504219,-0.195663 0.7617105,-0.191719 0.052656,7.93e-4 0.1055445,0.0053 0.1586467,0.01447 0.4460321,0.07674 0.628631,0.857138 0.7033162,1.515153 0.081967,-0.0056 0.1545164,0.01525 0.2092897,0.08372 0.3638558,0.454809 0.2557404,1.144683 0.2666502,1.727026 3.969e-4,0.02098 -0.067458,0.05991 -0.1488281,0.09973 -0.050584,0.09579 -0.097552,0.193545 -0.1452107,0.290939 0.1627269,0.369238 -0.018994,0.92123 0.029972,1.350822 -0.066267,1.851779 -0.074919,2.608365 -0.1033528,3.142444 0.1164828,0.09824 0.2368542,0.201845 0.3746542,0.327628 0.1609495,0.146912 -0.1332143,0.415486 -0.2185913,0.615983 -0.1210861,0.284353 -0.2489523,0.565662 -0.379305,0.845943 -0.08513,0.5445 -0.1953718,1.242097 -0.3658692,2.406571 -0.1259853,0.860467 -0.1487474,1.564286 -0.164331,2.155941 0.3900115,0.870122 0.3905742,0.671658 0.3229777,1.280026 -0.09857,0.887129 -0.5735923,1.307859 -1.0257772,1.30793 -0.087939,0.353529 -0.1800126,0.725131 -0.287321,1.178224 -0.36823545,1.31989 -0.28608719,2.866599 -1.0464477,3.988903 V 50.753492 H 11.04532 c -0.228357,-0.843227 1.251462,-2.723083 2.189014,-1.597318 0.0923,7.93e-4 0.154574,0.0013 0.243396,0.0021 -0.258471,-0.356002 -0.182248,-0.83657 0.258899,-1.147217 -0.08677,-0.22678 -0.162917,-0.488286 -0.227376,-0.789615 -0.04511,-0.210883 0.428534,-0.05277 0.643888,-0.06408 0.174003,-0.0091 0.347894,-0.01744 0.521932,-0.02582 0.186158,-0.116594 0.396505,-0.18378 0.632003,-0.218594 0.03941,-0.01693 0.08992,-0.02183 0.148828,-0.0181 0.274616,-0.0244 0.581251,-0.01265 0.922941,0.01497 0.644252,-0.109339 1.466876,0.01585 2.214335,-0.02376 0.452114,-0.02685 0.684735,-0.04092 0.995805,-0.05994 1.412137,-0.184949 2.831111,-0.317738 4.248836,-0.45372 1.109187,-0.106379 2.218273,-0.234313 3.332096,-0.266131 0.150101,-0.0043 0.299992,-0.0066 0.450101,-0.0078 1.050819,-0.0075 2.10235,0.05574 3.153296,0.07545 0.64647,0.06916 1.296181,0.113131 1.939417,0.20774 0.599104,0.08812 1.083289,0.210603 1.13895,0.629936 0.579548,-0.05341 1.153194,-0.07505 1.704805,0.02532 0.527111,-0.09277 1.116441,-0.276154 1.334802,0.125574 0.170529,0.31373 0.156665,0.763669 0.01447,1.15652 0.03339,0.217011 0.02085,0.431382 -0.04496,0.614431 0.853263,0.05248 1.705144,0.105159 2.567284,0.158131 0.943038,0.100415 1.88573,0.200859 2.828769,0.301273 0.218741,0.06684 0.828643,0.05014 0.656291,0.200504 -0.266986,0.232913 -0.503958,0.432766 -0.728123,0.616501 0.09896,0.04801 0.184277,0.118961 0.250116,0.221691 0.06672,0.104111 0.09002,0.21186 0.08475,0.321945 h 8.224303 v -17.5519 c -0.0594,0.01117 -0.119345,0.01953 -0.18035,0.0217 0.0034,0.01307 0.0066,0.02553 0.0098,0.03928 0.0358,0.153879 0.0923,0.304212 0.107487,0.46147 0.07266,0.752174 -0.04234,1.11692 -0.158647,1.915128 -0.666708,0.132909 -1.344403,0.577385 -2.000395,0.398942 -0.341996,-0.09303 -0.25535,-0.669682 -0.292487,-1.02216 -0.09709,-0.921353 -0.131736,-1.851456 -0.108005,-2.777609 0.04145,-1.617514 0.612108,-7.548627 0.765328,-8.765872 0.0887,-0.704677 0.264882,-1.395648 0.397391,-2.093413 0.0096,-0.05707 0.01971,-0.114011 0.02946,-0.171049 0.0086,-0.128141 0.03054,-0.244026 0.06098,-0.349849 0.11916,-0.677877 0.243596,-1.354899 0.337963,-2.036568 0.07424,-0.536248 0.06558,-2.555465 0.500745,-2.809131 0.196638,-0.114623 0.372147,-0.194721 0.530717,-0.24753 V -0.01550293 H 36.100123 c -0.02996,0.14812531 -0.06611,0.28285301 -0.114205,0.39377441 0.01572,0.18252829 0.02085,0.3887783 0.01241,0.62528482 -0.0087,0.2441761 -0.369739,0.088276 -0.686263,-0.0170532 -0.469492,0.1364018 -1.081336,0.0293697 -1.705321,0.0144693 -0.757849,-0.0180959 -1.515438,-0.0376632 -2.273247,-0.0573608 -0.01323,0.0267507 -0.02765,0.052421 -0.04289,0.0775146 0.0073,0.03716 0.01458,0.072083 0.0217,0.1105876 0.01421,0.076848 -0.05346,0.074836 -0.147278,0.049609 -0.04566,0.045273 -0.09726,0.085921 -0.156578,0.1198894 -0.06256,0.035828 -0.650483,0.03546 -1.391131,0.020154 -0.0417,1.177e-4 -0.08469,-7.646e-4 -0.12764,-0.00207 -0.0075,-1.694e-4 -0.01312,-3.439e-4 -0.02066,-5.159e-4 -0.008,-2.778e-4 -0.01574,-1.975e-4 -0.02376,-5.16e-4 -0.0013,-3.05e-5 -0.0028,3.07e-5 -0.0041,0 C 28.083738,1.2867803 26.302559,1.2106902 26.044922,1.201477 24.619691,1.150512 23.19449,1.1012538 21.769214,1.0516154 c -0.449803,0.1065817 -0.89516,0.199249 -1.238685,-0.045992 -0.01205,-4.657e-4 -0.02412,-5.795e-4 -0.03617,-0.00103 -0.124617,0.009 -0.273569,0.019651 -0.311092,0.022737 -6e-5,6.721e-4 6.1e-5,0.00139 0,0.00207 0.188839,-0.010565 0.710667,-0.0445353 0,0.00155 4.6e-5,-5.027e-4 -4.6e-5,-0.00105 0,-0.00155 -0.05909,0.00331 -0.05632,0.00257 0,-0.00207 10e-4,-0.011302 0.0013,-0.023195 0.0021,-0.0346232 -0.0028,-1.079e-4 -0.0055,-4.101e-4 -0.0083,-5.1594e-4 -0.771942,0.019042 -1.543832,0.0421254 -2.315621,0.0661458 -0.295058,0.05223 -0.590297,0.1026871 -0.85111,0.025838 -0.06923,0.0021 -0.138508,0.00465 -0.20774,0.00672 -0.508309,0.084768 -1.048381,0.1458983 -1.497066,0.06873 -0.362383,0.081794 -0.808889,0.2730926 -0.896586,-0.020154 -0.02594,-0.086733 -0.04819,-0.17003557 -0.06666,-0.25011365 -0.211176,0.0119194 -0.420838,0.008828 -0.627352,-0.0341064 -0.163664,-0.0340255 0.16656,-0.0660486 0.418062,-0.14727785 C 13.842687,0.6464827 13.659355,0.49239816 13.768151,0.14417724 13.690392,0.0926889 13.614471,0.03948451 13.540258,-0.01550293 Z M 1.9037597,17.439245 c -0.00426,0.0018 -0.00822,0.01017 -0.011369,0.02635 -0.016468,0.08475 -0.02846,0.170064 -0.037724,0.255799 0.00927,0.0011 0.018659,0.0019 0.027905,0.0031 0.00392,-0.13679 0.1473234,0.174615 0.1328085,0.117305 C 1.9870432,17.729911 1.9335462,17.426557 1.9037591,17.43924 Z M 48.787719,33.717839 c -0.0048,-0.0051 -0.01453,0.04375 -0.03256,0.12919 -0.09088,0.430395 -0.06307,0.527082 0.03669,0.448551 8e-6,-0.0064 1.6e-5,-0.01273 0,-0.01913 -0.0011,-0.391208 0.0039,-0.550056 -0.0041,-0.558623 z M 22.070487,48.897791 c -0.359267,0.01125 -0.893992,0.02791 -1.373559,0.04341 0.09904,-7.94e-4 0.19808,-0.0016 0.297139,-0.0021 0.355445,0.003 0.710646,0.0036 1.066085,0.0036 0.0024,-0.01532 0.0076,-0.02975 0.01034,-0.04496 z" />
    </clipPath>
    <clipPath
       clipPathUnits="userSpaceOnUse"
       id="clipPath18392">
      <g
         inkscape:label="Clip"
         id="use18394">
        <path
           style="opacity:0.5;fill-opacity:1;stroke-width:0.117593"
           d="m 17.863396,38.856646 c -0.04349,-0.04349 -0.07907,-1.366712 -0.07907,-2.940494 v -2.861419 h -2.881705 -2.881703 l 0.03008,-9.671991 0.03008,-9.67199 9.671991,-0.03008 9.67199,-0.03008 v 2.879647 2.879648 l 2.910416,0.03145 2.910417,0.03145 v 9.701388 9.701389 l -9.651712,0.03008 c -5.308442,0.01654 -9.687296,-0.0055 -9.730787,-0.049 z M 28.367655,28.703807 V 27.410288 H 21.78247 15.197285 v 1.293519 1.293518 h 6.585185 6.585185 z"
           id="path21611" />
        <path
           style="fill-opacity:1;stroke-width:0.124002"
           d="M 17.014762,36.022074 V 33.04604 h 7.192082 7.192083 v -7.192083 -7.192082 h 2.976034 2.976035 V 28.829991 38.998109 H 27.182878 17.014762 Z"
           id="path21613" />
      </g>
    </clipPath>
  </defs>
  <g
     inkscape:label="Layer 1"
     inkscape:groupmode="layer"
     id="layer1">
    <g
       id="g21709"
       transform="translate(-49.355508,-1.5699565)" />
    <g
       id="g1733"
       transform="translate(-38.790607,0.37370527)"
       style="fill-opacity:1">
      <path
         style="fill-opacity:1;stroke-width:0.022314"
         d="m 62.516192,46.190512 c -0.004,-0.0036 -0.439227,-0.01349 -0.966956,-0.0222 -0.527729,-0.0086 -0.994652,-0.01898 -1.037606,-0.02275 -0.04295,-0.0038 -0.334153,-0.01392 -0.64711,-0.02222 -0.312955,-0.0084 -0.599134,-0.01898 -0.635953,-0.02338 -0.03681,-0.0044 -0.237644,-0.01413 -0.446281,-0.02129 -0.208628,-0.0072 -0.429546,-0.0175 -0.490912,-0.02305 -0.06135,-0.0055 -0.217003,-0.0156 -0.345867,-0.02262 -0.417128,-0.02266 -1.181631,-0.07841 -1.692535,-0.123448 -5.108435,-0.450129 -8.244542,-1.475877 -10.051752,-3.2877 -0.787231,-0.789241 -1.226036,-1.638789 -1.223065,-2.367908 0.0021,-0.536414 0.211386,-0.814443 0.688977,-0.915651 0.129963,-0.02754 2.670745,-0.03196 18.504014,-0.03215 12.372083,-2.23e-4 18.399077,0.0072 18.49364,0.02254 0.37766,0.06129 0.598646,0.232344 0.704288,0.545168 0.12096,0.35816 0.03778,0.897127 -0.222208,1.440001 -0.52742,1.10127 -1.688727,2.133264 -3.223333,2.864403 -1.725542,0.822111 -4.260146,1.403962 -7.395751,1.697793 -0.332675,0.03118 -0.889876,0.07738 -1.093391,0.09066 -0.122731,0.008 -0.248245,0.01813 -0.278927,0.02233 -0.03068,0.0042 -0.191339,0.01476 -0.357025,0.02319 -0.16568,0.0084 -0.316335,0.01813 -0.334782,0.02148 -0.01834,0.0034 -0.199182,0.01286 -0.401654,0.02138 -0.202471,0.0084 -0.388704,0.01855 -0.413868,0.02237 -0.02518,0.0038 -0.266159,0.01434 -0.535539,0.02321 -0.269382,0.0089 -0.505116,0.01898 -0.523856,0.02235 -0.01877,0.0034 -0.365166,0.01328 -0.769837,0.02199 -0.404671,0.0086 -0.77091,0.01982 -0.813865,0.02454 -0.0906,0.01012 -4.477699,0.03057 -4.488846,0.02087 z M 46.542993,38.014245 c -0.89696,-0.196378 -1.443505,-0.865374 -1.540722,-1.885892 -0.01602,-0.167366 -0.02117,-1.539185 -0.01602,-4.219887 l 0.0076,-3.971913 0.05083,-0.222385 c 0.185013,-0.809396 0.643323,-1.322031 1.368354,-1.530566 0.205929,-0.05923 0.711115,-0.08318 0.954231,-0.04523 0.668251,0.104304 1.195919,0.524799 1.458428,1.162223 0.159798,0.388021 0.194228,0.674745 0.194228,1.618 0,0.837629 0.0051,0.858867 0.203758,0.858867 0.103102,0 0.178393,-0.05079 0.353989,-0.238781 0.298236,-0.319295 0.795897,-1.028894 1.405319,-2.003788 0.337356,-0.539669 0.410645,-0.638822 0.628602,-0.850436 0.40148,-0.389796 0.81908,-0.566016 1.342137,-0.566355 0.406516,-2.68e-4 0.75509,0.09806 1.098221,0.309794 0.452121,0.27898 0.758989,0.690135 0.883673,1.183984 0.04086,0.161863 0.04601,0.231376 0.03635,0.490912 -0.01349,0.364641 -0.06926,0.576545 -0.251574,0.957037 -0.285141,0.595119 -0.657193,1.060833 -1.562675,1.956066 -0.582837,0.576238 -0.601185,0.603477 -0.544026,0.807627 0.07165,0.255916 0.846453,1.244421 1.815576,2.316349 0.677849,0.749752 0.906735,1.206657 0.909545,1.81563 0.0017,0.358377 -0.05183,0.592241 -0.204812,0.895636 -0.277348,0.550045 -0.751548,0.946369 -1.351799,1.129791 -0.177592,0.05427 -0.235188,0.06097 -0.533778,0.06218 -0.261235,0.001 -0.36899,-0.0078 -0.490866,-0.04075 -0.532734,-0.143647 -1.050957,-0.494229 -1.476775,-0.999033 -0.555519,-0.658563 -1.158734,-1.605135 -1.626759,-2.552731 -0.17464,-0.353609 -0.270455,-0.523544 -0.305839,-0.542481 -0.132261,-0.07078 -0.295155,-0.01181 -0.31575,0.114445 -0.0065,0.03998 -0.01581,0.554674 -0.02066,1.143767 -0.0072,0.876568 -0.01539,1.101353 -0.04478,1.237795 -0.149571,0.693312 -0.495717,1.178109 -1.029295,1.441586 -0.292813,0.144596 -0.493777,0.190454 -0.881408,0.201143 -0.25775,0.0072 -0.36213,4.68e-4 -0.513224,-0.0326 z m 11.480612,0.02732 c -1.025751,-0.159523 -1.671202,-0.871007 -1.794669,-1.978274 -0.03376,-0.302706 -0.0331,-7.693582 7.15e-4,-7.970534 0.05927,-0.485519 0.247134,-0.962707 0.49845,-1.266056 0.256508,-0.309622 0.616833,-0.538763 1.016585,-0.646478 0.259983,-0.07006 0.900627,-0.07468 1.160333,-0.0084 0.828937,0.211613 1.347239,0.800542 1.533442,1.742405 0.03717,0.187987 0.0397,0.455642 0.0397,4.183897 v 3.98307 l -0.05062,0.228724 c -0.204811,0.925261 -0.727771,1.497189 -1.545685,1.690432 -0.162664,0.03844 -0.707775,0.0646 -0.858237,0.0412 z m 5.545059,-4.03e-4 c -0.760661,-0.119647 -1.289914,-0.567377 -1.525528,-1.290517 -0.130912,-0.401803 -0.125725,-0.209809 -0.125725,-4.640328 0,-4.436863 -0.0049,-4.256753 0.126315,-4.653503 0.106918,-0.323282 0.243698,-0.548303 0.476159,-0.78334 0.390545,-0.394865 0.801137,-0.555507 1.419851,-0.555507 0.43849,0 0.762466,0.08794 1.084243,0.294308 0.20848,0.133716 0.521496,0.464862 0.715916,0.757418 0.108816,0.16374 0.50507,0.906117 1.118005,2.094564 0.646172,1.252896 0.971092,1.860517 1.017228,1.902279 0.139683,0.126442 0.331429,0.03669 0.337352,-0.157921 0.0014,-0.04508 0.0051,-0.754737 0.0082,-1.577012 0.0055,-1.441483 0.0074,-1.503405 0.05465,-1.728382 0.09762,-0.465282 0.25988,-0.777683 0.557245,-1.072788 0.218143,-0.216488 0.467072,-0.361316 0.773563,-0.450068 0.156002,-0.04516 0.22465,-0.05117 0.578645,-0.05056 0.447504,7.82e-4 0.563041,0.02197 0.85553,0.156971 0.645902,0.298099 1.041121,0.930219 1.093032,1.748216 0.0084,0.133759 0.01455,2.008922 0.01349,4.167024 -0.0021,4.14017 -9.36e-4,4.09154 -0.103439,4.425406 -0.111071,0.361754 -0.248264,0.606862 -0.472212,0.843632 -0.39565,0.418306 -0.893905,0.605 -1.542563,0.577987 -0.542092,-0.02256 -0.894411,-0.172595 -1.289537,-0.549085 -0.205171,-0.195493 -0.371489,-0.410788 -0.548609,-0.710152 -0.07084,-0.119716 -0.51898,-0.975807 -0.995871,-1.9024 -0.476893,-0.926594 -0.900027,-1.73705 -0.9403,-1.801015 -0.07985,-0.126822 -0.171141,-0.171858 -0.276155,-0.136268 -0.125809,0.04265 -0.121171,-0.01644 -0.135234,1.725302 -0.01223,1.511575 -0.0156,1.618495 -0.05861,1.807443 -0.229426,1.009443 -0.936575,1.58353 -1.934025,1.570105 -0.124186,-0.0017 -0.2509,-0.007 -0.281582,-0.01181 z m 14.76079,-0.01075 c -0.844769,-0.0417 -1.726084,-0.290169 -2.444761,-0.689221 -1.563859,-0.868351 -2.526488,-2.411228 -2.731364,-4.377756 -0.0397,-0.381063 -0.04537,-1.220381 -0.01075,-1.60167 0.178499,-1.969887 1.026985,-3.476423 2.472278,-4.389694 0.269042,-0.170002 0.76851,-0.408987 1.080563,-0.517018 0.692808,-0.239846 1.32019,-0.339789 2.127761,-0.338958 1.11434,0.0011 1.999207,0.17873 2.794423,0.560844 0.975003,0.468491 1.390855,1.03157 1.358733,1.839776 -0.01708,0.427423 -0.173354,0.77701 -0.484106,1.082233 -0.201438,0.197854 -0.354322,0.292993 -0.620094,0.385843 -0.1649,0.0576 -0.237681,0.06983 -0.464983,0.0781 -0.359589,0.01307 -0.523787,-0.02939 -1.008702,-0.260894 -0.605385,-0.289003 -0.753581,-0.325675 -1.310251,-0.324218 -0.340575,8.94e-4 -0.427994,0.0084 -0.574869,0.04913 -1.155788,0.320716 -1.79089,1.326981 -1.742083,2.760182 0.04504,1.322385 0.648078,2.205522 1.692158,2.478111 0.234652,0.06127 0.613944,0.08988 0.810869,0.06119 0.302343,-0.04407 0.528654,-0.174493 0.60876,-0.350852 0.08659,-0.190643 0.02699,-0.360264 -0.158912,-0.452246 -0.07774,-0.03846 -0.167303,-0.05471 -0.396944,-0.07207 -0.229586,-0.01729 -0.342975,-0.03791 -0.502068,-0.09113 -0.706533,-0.236286 -1.112217,-0.825805 -1.054904,-1.53292 0.06755,-0.833531 0.608877,-1.336914 1.563451,-1.453893 0.256426,-0.03142 1.083225,-0.03177 1.416945,-6.27e-4 0.492137,0.04596 0.882703,0.148855 1.26223,0.332553 0.765822,0.370656 1.236253,1.040048 1.372413,1.952842 0.03279,0.219843 0.03213,0.822719 -0.0012,1.093392 -0.226445,1.838814 -1.395619,3.154051 -3.2134,3.614836 -0.118388,0.03 -0.340092,0.07504 -0.492656,0.100066 -0.242065,0.0397 -0.396391,0.05218 -0.924498,0.07472 -0.06136,0.0025 -0.25215,-0.0021 -0.423969,-0.01075 z M 54.07272,25.379054 c -1.305945,-0.09094 -2.277078,-0.787655 -2.584272,-1.85401 -0.116512,-0.404454 -0.114445,-0.352587 -0.114445,-2.874045 0,-2.631472 -0.0095,-2.463909 0.160324,-2.811579 0.233803,-0.47847 0.772308,-0.714843 1.349747,-0.59246 0.420264,0.08908 0.729799,0.383648 0.880466,0.837914 0.03799,0.11455 0.04147,0.273527 0.05235,2.387611 l 0.0116,2.264882 0.05132,0.111578 c 0.115752,0.251703 0.304603,0.359686 0.59632,0.340963 0.257065,-0.01644 0.422551,-0.136689 0.517662,-0.375967 0.03633,-0.0914 0.04019,-0.269979 0.05104,-2.363763 l 0.01181,-2.264884 0.06152,-0.167346 c 0.183349,-0.498713 0.540336,-0.765831 1.064749,-0.796711 0.51083,-0.03009 0.928379,0.200174 1.139363,0.628263 0.159164,0.322947 0.153851,0.226386 0.154167,2.801516 2.47e-4,1.938732 -0.0051,2.342364 -0.03289,2.514167 -0.09191,0.566716 -0.354196,1.072353 -0.749849,1.445592 -0.605855,0.571534 -1.535063,0.843916 -2.620967,0.768296 z m 5.220605,0.0036 c -0.494475,-0.07702 -0.839655,-0.401127 -0.969998,-0.910772 -0.04156,-0.162475 -0.0431,-0.276051 -0.04278,-3.149496 2.91e-4,-2.588025 0.0049,-2.999905 0.03424,-3.124803 0.10637,-0.451318 0.420879,-0.766867 0.895617,-0.898594 0.16315,-0.04527 0.233927,-0.04894 1.100398,-0.05701 0.599535,-0.0055 1.014323,4.05e-4 1.176443,0.01708 0.785741,0.08039 1.443929,0.373775 1.876923,0.836647 0.412401,0.440858 0.606234,0.954872 0.605985,1.606987 -2.89e-4,0.788448 -0.244661,1.423619 -0.723294,1.880026 -0.107424,0.102427 -0.196336,0.206963 -0.204833,0.240835 -0.02382,0.09496 0.102512,0.375929 0.310617,0.690718 0.04868,0.07365 0.226537,0.319649 0.395236,0.546697 0.336871,0.45338 0.426979,0.611897 0.49172,0.865036 0.105168,0.41118 0.01687,0.775387 -0.260628,1.075122 -0.413139,0.446239 -1.085413,0.516883 -1.596378,0.167746 -0.317389,-0.216862 -0.626144,-0.613188 -0.825169,-1.059212 -0.18105,-0.405757 -0.364257,-0.996406 -0.431591,-1.391483 -0.03072,-0.180228 -0.207469,-0.25253 -0.339618,-0.138945 l -0.0626,0.05381 -0.01307,0.877799 c -0.01075,0.71742 -0.01982,0.900032 -0.0494,0.999512 -0.126358,0.42409 -0.426725,0.737612 -0.79973,0.834768 -0.161758,0.04213 -0.426462,0.05965 -0.56804,0.03759 z m 2.062904,-4.754705 c 0.132282,-0.05691 0.255846,-0.183602 0.323109,-0.331288 0.07036,-0.154463 0.0681,-0.483132 -0.0044,-0.643752 -0.0697,-0.15442 -0.212325,-0.283723 -0.361923,-0.32815 -0.157689,-0.04683 -0.490988,-0.0467 -0.589877,2.3e-4 -0.135614,0.06435 -0.147801,0.12427 -0.140168,0.68873 0.0063,0.46695 0.0099,0.504387 0.05349,0.56314 0.06977,0.09399 0.167662,0.120729 0.40199,0.109828 0.143541,-0.0067 0.236906,-0.02395 0.317791,-0.05874 z m 6.225869,4.743467 C 66.76647,25.254441 66.09824,24.92386 65.530689,24.356581 c -0.428302,-0.428098 -0.690113,-0.859871 -0.88941,-1.466799 -0.16005,-0.487372 -0.224213,-0.936048 -0.224496,-1.56954 -5.57e-4,-1.284188 0.351318,-2.304158 1.049418,-3.041793 0.432732,-0.457243 0.964978,-0.775332 1.605779,-0.959671 0.601779,-0.173122 1.427483,-0.195577 2.107759,-0.05735 0.626443,0.127286 1.231478,0.420177 1.507327,0.729672 0.199646,0.223996 0.292345,0.475438 0.293749,0.796776 9.38e-4,0.21554 -0.02775,0.331617 -0.130448,0.527945 -0.192436,0.367868 -0.537409,0.576617 -0.952428,0.576332 -0.230607,-1.56e-4 -0.297912,-0.01919 -0.639181,-0.17989 -0.35794,-0.168653 -0.563587,-0.221743 -0.857085,-0.221313 -0.272088,3.99e-4 -0.452411,0.04008 -0.674676,0.148454 -0.195788,0.09547 -0.4524,0.323345 -0.579135,0.514282 -0.195176,0.29403 -0.298282,0.697651 -0.298738,1.169343 -9.15e-4,0.94908 0.345366,1.554218 1.029848,1.799703 0.144005,0.05166 0.198487,0.05882 0.453749,0.05977 0.279853,0.001 0.294234,-0.0012 0.407794,-0.06414 0.331764,-0.183812 0.2523,-0.525136 -0.122563,-0.526498 -0.0587,-2.22e-4 -0.177002,-0.01518 -0.262907,-0.03333 -0.571726,-0.120581 -0.909164,-0.589192 -0.836564,-1.161797 0.06163,-0.486111 0.367782,-0.802849 0.883145,-0.913691 0.209851,-0.04512 1.014922,-0.0452 1.292266,-1.11e-4 0.745928,0.121276 1.261027,0.532458 1.468361,1.172111 0.08594,0.265113 0.113138,0.510853 0.09802,0.885077 -0.02066,0.513548 -0.121086,0.916022 -0.330058,1.32402 -0.39997,0.780945 -1.104039,1.283109 -2.066415,1.473822 -0.311746,0.06178 -0.965131,0.07881 -1.281694,0.03342 z m 10.873679,0.0086 c -0.404051,-0.05305 -0.707339,-0.269686 -0.886055,-0.632908 -0.149255,-0.303366 -0.143225,-0.158659 -0.143225,-3.426789 0,-2.480563 0.0051,-2.980899 0.03196,-3.107405 0.07255,-0.342384 0.318658,-0.661839 0.622439,-0.807951 0.303792,-0.146113 0.350736,-0.1517 1.364134,-0.1622 0.957942,-0.0099 1.268432,0.0059 1.619328,0.08246 1.104471,0.241054 1.847803,0.946027 2.016917,1.912835 0.01898,0.108204 0.03441,0.322236 0.03439,0.475647 0,0.46027 -0.08305,0.854794 -0.257543,1.223961 -0.127686,0.270117 -0.252456,0.442273 -0.475767,0.656432 -0.09943,0.09534 -0.187144,0.198697 -0.194903,0.229685 -0.03968,0.158131 0.246245,0.655689 0.748972,1.303282 0.353591,0.455478 0.461854,0.684868 0.484787,1.027149 0.02444,0.364733 -0.08725,0.65275 -0.34877,0.899456 -0.245876,0.231948 -0.515566,0.336527 -0.864312,0.335159 -0.421559,-0.0017 -0.808324,-0.231441 -1.155593,-0.68658 -0.330792,-0.433544 -0.611634,-1.14016 -0.771197,-1.940364 -0.01645,-0.08244 -0.04586,-0.151195 -0.07875,-0.184087 -0.07082,-0.07082 -0.187607,-0.07025 -0.270856,0.0013 l -0.06262,0.05383 -0.0116,0.88895 -0.0116,0.888948 -0.05935,0.163677 c -0.115499,0.31849 -0.295967,0.542661 -0.546076,0.678327 -0.204096,0.110714 -0.52015,0.161927 -0.784744,0.127201 z m 2.038428,-4.74915 c 0.144258,-0.06367 0.262947,-0.180903 0.327471,-0.323442 0.04318,-0.09539 0.05142,-0.150373 0.05064,-0.337109 -0.0011,-0.263673 -0.04516,-0.379383 -0.198043,-0.520302 -0.13846,-0.127622 -0.275476,-0.165975 -0.559976,-0.156719 -0.229508,0.0074 -0.234435,0.0089 -0.306159,0.08054 l -0.07291,0.07295 v 0.533473 c 0,0.506491 0.0023,0.536661 0.04672,0.596474 0.06884,0.09283 0.16783,0.12037 0.399847,0.111198 0.145228,-0.0057 0.232028,-0.02159 0.312396,-0.05707 z m -34.385471,4.682035 c -0.619325,-0.09425 -1.017388,-0.456634 -1.117298,-1.017178 -0.04666,-0.261828 -0.04611,-5.758999 6.03e-4,-6.021257 0.06977,-0.391667 0.308104,-0.713423 0.646697,-0.873068 0.314534,-0.148306 0.324304,-0.149403 1.406316,-0.15927 0.655287,-0.0059 1.067167,-2.23e-4 1.238434,0.01729 1.104793,0.112948 1.822464,0.658791 2.067989,1.572878 0.05499,0.204727 0.05996,0.258106 0.06039,0.64711 3.79e-4,0.367514 -0.0059,0.44708 -0.04792,0.597554 -0.06804,0.244148 -0.205233,0.512795 -0.361672,0.708176 -0.07354,0.09184 -0.133885,0.185941 -0.134095,0.209092 -2.24e-4,0.02315 0.04731,0.0832 0.10561,0.133463 0.433766,0.373882 0.663,0.749883 0.768821,1.261067 0.05859,0.283024 0.04636,0.833923 -0.02446,1.10188 -0.218099,0.825255 -0.771903,1.418284 -1.576014,1.687645 -0.407198,0.136394 -0.468257,0.141623 -1.740057,0.148538 -0.638185,0.0034 -1.220191,-0.0027 -1.293351,-0.01391 z m 1.900605,-1.893497 C 48.26984,23.305233 48.423,23.040283 48.423,22.703793 c 0,-0.328989 -0.130954,-0.561367 -0.381632,-0.67725 -0.0914,-0.04225 -0.143141,-0.04797 -0.434674,-0.04797 H 47.27576 l -0.06515,0.07287 -0.06515,0.07287 v 0.58092 c 0,0.645175 0.008,0.687915 0.140905,0.748232 0.116406,0.05284 0.573811,0.03129 0.722959,-0.03407 z m -0.145228,-2.981705 c 0.05598,-0.01898 0.14352,-0.0704 0.194544,-0.114066 0.2812,-0.240697 0.315126,-0.760922 0.06798,-1.042409 -0.0913,-0.103966 -0.197264,-0.158954 -0.366739,-0.190285 -0.275334,-0.0509 -0.464582,-0.02045 -0.55719,0.08959 l -0.05722,0.068 v 0.524137 c 0,0.327714 0.0089,0.540757 0.02374,0.568491 0.01307,0.02439 0.05573,0.06386 0.09484,0.08771 0.09214,0.05619 0.445828,0.0614 0.600061,0.0089 z m 25.144781,4.874909 c -0.478814,-0.06197 -0.842211,-0.304636 -1.021888,-0.682403 -0.14487,-0.304579 -0.141623,-0.221749 -0.134496,-3.434586 0.0072,-3.19708 -0.0025,-2.977923 0.144996,-3.285545 0.086,-0.179279 0.332873,-0.420263 0.524809,-0.512286 0.309579,-0.148432 0.284126,-0.146282 1.834197,-0.155116 1.229429,-0.007 1.427177,-0.0036 1.584301,0.02823 0.519749,0.104936 0.847229,0.444704 0.910311,0.944475 0.04554,0.360774 -0.05743,0.700538 -0.284456,0.938543 -0.14818,0.155348 -0.325019,0.254783 -0.560032,0.31489 -0.153367,0.03922 -0.24825,0.04409 -0.861237,0.04409 -0.733404,0 -0.783959,0.0063 -0.877122,0.110798 -0.06174,0.0692 -0.07763,0.407007 -0.02404,0.510646 0.0642,0.124165 0.101773,0.131355 0.749255,0.143626 0.339228,0.0063 0.634134,0.02229 0.691739,0.03723 0.30035,0.07788 0.572035,0.301048 0.672662,0.552513 0.04425,0.110587 0.05172,0.169117 0.0521,0.408473 4.24e-4,0.270709 -0.0018,0.28399 -0.07228,0.42713 -0.117102,0.237868 -0.303381,0.395966 -0.583385,0.495136 -0.109764,0.03888 -0.199162,0.04539 -0.738249,0.05383 -0.668597,0.01054 -0.707154,0.0175 -0.769731,0.138417 -0.04209,0.08136 -0.04594,0.433342 -0.0057,0.511803 0.01518,0.0295 0.05591,0.07468 0.09056,0.100424 0.0606,0.04499 0.09049,0.04695 0.783785,0.05123 0.813277,0.0051 0.916596,0.01877 1.179279,0.156782 0.442695,0.232629 0.65188,0.71482 0.539752,1.244169 -0.07154,0.337682 -0.271453,0.59387 -0.576506,0.738738 -0.285707,0.135677 -0.364396,0.141749 -1.810795,0.139451 -0.711822,-0.0011 -1.35888,-0.01033 -1.43791,-0.02066 z M 45.828941,15.772293 c -0.430845,-0.06292 -0.662854,-0.221836 -0.779684,-0.534097 -0.150583,-0.402493 -0.07489,-1.218806 0.1894,-2.042085 0.594045,-1.85054 2.131132,-3.7624789 4.258596,-5.2971559 2.949632,-2.127757 6.945376,-3.487908 11.43834,-3.89361 0.708212,-0.06395 0.716774,-0.06462 1.026451,-0.08004 0.153408,-0.0076 0.304011,-0.01771 0.334674,-0.02258 0.10833,-0.01687 1.269231,-0.0431 1.907895,-0.0431 0.613449,0 1.881223,0.02888 1.907003,0.04348 0.0065,0.0038 0.150794,0.01392 0.320435,0.02248 0.169644,0.0086 0.330299,0.01898 0.357028,0.02313 0.02674,0.004 0.143984,0.01392 0.260584,0.02186 0.315265,0.02149 1.188637,0.115879 1.666373,0.180101 4.573481,0.614888 8.521755,2.249554 11.327112,4.689659 0.333755,0.290298 0.983207,0.939791 1.256031,1.2561089 1.302479,1.510114 2.042602,3.065736 2.119995,4.455896 0.04065,0.730009 -0.18961,1.103009 -0.741643,1.201394 -0.149445,0.02663 -2.878922,0.03091 -18.484076,0.02899 -10.069804,-0.0012 -18.333837,-0.0059 -18.364518,-0.01033 z"
         id="path1741" />
    </g>
  </g>
</svg>
