<?xml version="1.0" encoding="UTF-8"?>
<svg width="24" height="24" version="1.1" viewBox="0 0 24 24" xml:space="preserve" xmlns="http://www.w3.org/2000/svg"><path d="m3.5369 4.9683c-0.86557 0-1.5619 0.69838-1.5619 1.564v10.936c0 0.86557 0.69636 1.564 1.5619 1.564h10.936c0.86558 0 1.564-0.69838 1.564-1.564v-10.936c0-0.86557-0.69838-1.564-1.564-1.564zm5.7594 2.355c1.5694 0.098997 3.0282 0.98664 3.816 2.4196a0.7812 0.7812 0 0 1-0.30875 1.0595 0.7812 0.7812 0 0 1-1.0595-0.30674c-0.68912-1.2535-2.1299-1.8773-3.5154-1.5216-1.3855 0.35574-2.349 1.5966-2.349 3.027-1.869e-4 1.4305 0.9634 2.6712 2.349 3.027 1.3856 0.35576 2.8264-0.26794 3.5154-1.5216a0.7812 0.7812 0 0 1 1.0595-0.30875 0.7812 0.7812 0 0 1 0.30875 1.0615c-1.0288 1.8719-3.2042 2.8115-5.273 2.2803-2.0688-0.5312-3.5217-2.4025-3.5214-4.5385-1.8e-6 -2.1358 1.4527-4.0093 3.5214-4.5405 0.25859-0.066395 0.51947-0.10973 0.77895-0.13117 0.22704-0.018758 0.45384-0.020196 0.67805-0.0060539z" stroke-width="1.5624"/><path d="m21.244 18.25h-2.604" stroke="#000" stroke-linecap="round" stroke-width="1.5624"/></svg>
