<?xml version="1.0" encoding="UTF-8"?>
<svg width="24" height="24" fill="none" version="1.1" viewBox="0 0 24 24" xml:space="preserve" xmlns="http://www.w3.org/2000/svg"><defs><style>
            .a {
                fill: none;
                stroke: #b1b5bd;
                stroke-linecap: round;
                stroke-linejoin: round;
                isolation: isolate;
                opacity :0.63;
            }
        </style></defs><path d="m5.6351 6.8163 5.2414 4.5298a0.86425 0.86425 90 0 1 0 1.3078l-5.2414 4.5298a0.92967 0.92967 92.077 0 0-0.049366 1.3609l3.1815 3.1804a1.0001 1.0001 179.99 0 0 1.4143-1.52e-4l9.0169-9.0177a1.0001 1.0001 90 0 0 0-1.4143l-9.0169-9.0177a1.0001 1.0001 0.0061256 0 0-1.4143-1.512e-4l-3.1815 3.1804a0.92967 0.92967 87.923 0 0 0.049366 1.3609z" fill="#000"/><path d="m5.268 9.2662 2.4305 2.083a0.85703 0.85703 90 0 1 1e-7 1.3015l-2.4305 2.083a0.45997 0.45997 24.701 0 1-0.7593-0.34926v-4.7691a0.45997 0.45997 155.3 0 1 0.7593-0.34926z" fill="#000"/></svg>
