<?xml version="1.0" encoding="UTF-8"?>
<svg width="24" height="24" version="1.1" viewBox="0 0 24 24" xml:space="preserve" xmlns="http://www.w3.org/2000/svg"><path d="m11.032 21.898c-0.33757-0.031479-1.2257-0.18532-1.5552-0.26944-2.8482-0.7272-5.2602-2.6775-6.5367-5.2854-0.69976-1.4297-0.99139-2.7082-0.99024-4.3414 0.0011385-1.6351 0.29726-2.9393 0.98569-4.3414 0.51562-1.0501 1.1087-1.8728 1.9507-2.7058 1.575-1.5581 3.5699-2.5227 5.8296-2.8186 0.73877-0.096794 2.3026-0.065315 2.9926 0.060184 1.4349 0.261 2.7232 0.77361 3.8777 1.543 2.3986 1.5984 3.9543 4.0429 4.3599 6.8505 0.08684 0.6011 0.13709 1.852 0.07861 1.9565-0.03189 0.057-0.04848-0.0028-0.06936-0.2498-0.10355-1.225-0.63342-2.7061-1.3645-3.8142-2.2221-3.3679-6.3678-4.7968-10.206-3.5177-2.9627 0.9873-5.1893 3.4921-5.8005 6.5252-0.30218 1.4997-0.2115 2.9698 0.27271 4.421 0.85394 2.5594 2.8977 4.6041 5.4897 5.492 0.61126 0.20941 1.3963 0.3839 1.9139 0.42543 0.61984 0.04978 0.46362 0.09707-0.30114 0.09125-0.41728-0.0028-0.83455-0.01248-0.92728-0.0215z" stroke-width=".042149"/><path d="m13.161 20.661c-3.2039-0.23336-5.8585-2.6223-6.4125-5.7707-0.10084-0.57309-0.12027-1.6444-0.039383-2.1716 0.48032-3.1309 2.8887-5.5062 6.0304-5.9477 0.63679-0.089444 1.7715-0.058104 2.3814 0.06587 0.53051 0.10775 1.1186 0.2992 1.5806 0.51438l0.35827 0.16685-0.33719 0.15925c-1.2168 0.57463-1.9678 1.9188-1.7915 3.2064 0.17654 1.2894 1.0682 2.3015 2.3483 2.6653 0.46084 0.13091 1.1655 0.13091 1.6266-8.3e-5 0.59611-0.16943 1.0636-0.44651 1.4891-0.88258 0.14364-0.14722 0.27041-0.25254 0.28172-0.23407 0.01137 0.01844 0.04414 0.22145 0.07296 0.45103 0.0711 0.56645 0.02934 1.6441-0.08454 2.1822-0.36271 1.7136-1.2766 3.152-2.678 4.2147-1.3264 1.0059-3.0811 1.5079-4.8261 1.3808z" stroke-width=".042149"/></svg>
