<?xml version="1.0" encoding="UTF-8"?>
<svg width="24" height="24" fill="none" version="1.1" viewBox="0 0 24 24" xml:space="preserve" xmlns="http://www.w3.org/2000/svg"><defs><style>.cls-1{fill:none;}</style></defs><path d="m8.7651 9.3305a0.63265 0.63265 0 0 0-0.44632 0.18533l-5.9571 5.9571a0.6309 0.6309 0 0 0 0 0.89214l5.373 5.373a0.6309 0.6309 0 0 0 0.89214 0l5.9746-5.9744a0.62916 0.62916 0 0 0-0.0012-0.89091l-5.3881-5.3583a0.63265 0.63265 0 0 0-0.44705-0.1841zm-2.2375 5.0423a1.1407 1.1407 0 0 1 1.1408 1.1406 1.1407 1.1407 0 0 1-1.1408 1.1408 1.1407 1.1407 0 0 1-1.1406-1.1408 1.1407 1.1407 0 0 1 1.1406-1.1406zm3.9116 0a1.1407 1.1407 0 0 1 1.1408 1.1406 1.1407 1.1407 0 0 1-1.1408 1.1408 1.1407 1.1407 0 0 1-1.1406-1.1408 1.1407 1.1407 0 0 1 1.1406-1.1406z" fill="#000"/><path d="m15.802 2.0771a0.63265 0.63265 0 0 0-0.44632 0.18508l-5.9571 5.9571a0.6309 0.6309 0 0 0 0 0.89238l5.373 5.373a0.6309 0.6309 0 0 0 0.89214 0l5.9746-5.9744a0.62916 0.62916 0 0 0-0.0012-0.89115l-5.3881-5.3583a0.63265 0.63265 0 0 0-0.44706-0.18385zm-0.451 5.4088a1.1407 1.1407 0 0 1 1.1408 1.1406 1.1407 1.1407 0 0 1-1.1408 1.1408 1.1407 1.1407 0 0 1-1.1406-1.1408 1.1407 1.1407 0 0 1 1.1406-1.1406z" fill="#000"/></svg>
