<?xml version="1.0" encoding="UTF-8"?>
<svg width="24" height="24" fill="none" version="1.1" viewBox="0 0 24 24" xml:space="preserve" xmlns="http://www.w3.org/2000/svg"><defs><style>.cls-1{fill:none;}</style></defs><path d="m19.166 8.094 1.791 3.7528c0.43363 0.90854 0.03967 1.9962-0.87525 2.4163l-10.185 4.6754c-0.91788 0.42135-2.0036 0.01658-2.4212-0.90277l-4.286-9.4294c-0.68706-1.511-0.37614-3.4863 1.9802-4.5697 2.3561-1.0841 4.0931 0.091395 4.727 1.4594l7.0585 15.245" fill="none" stroke="#000" stroke-linecap="round" stroke-linejoin="round" stroke-width="1.5092"/><path d="m19.166 4.2859a1.7198 1.7198 0 0 1-1.7198 1.7198 1.7198 1.7198 0 0 1-1.7198-1.7198 1.7198 1.7198 0 0 1 1.7198-1.7198 1.7198 1.7198 0 0 1 1.7198 1.7198z" fill="#000" stroke="#000" stroke-width=".12284"/></svg>
