<?xml version="1.0" encoding="UTF-8"?>
<svg width="24" height="24" version="1.1" viewBox="0 0 24 24" xml:space="preserve" xmlns="http://www.w3.org/2000/svg"><path d="m7.9283 8.7321v-2.006c0-2.1926 1.8231-3.9699 4.0718-3.9699 2.2487 0 4.0718 1.7773 4.0718 3.9699v2.006" fill="none" stroke="#000" stroke-width="1.5623"/><path d="m6.1183 8.6465c-1.0697 0-1.9578 0.85188-1.9578 1.9069v9.5506c0 1.0545 0.8881 1.9211 1.9578 1.9211h11.763c1.082 0 1.9578-0.86616 1.9578-1.9211v-9.5506c0-1.0545-0.8758-1.9069-1.9578-1.9069zm5.8817 4.3909a2.2965 2.2965 0 0 1 2.2964 2.2984 2.2965 2.2965 0 0 1-2.2964 2.2964 2.2965 2.2965 0 0 1-2.2964-2.2964 2.2965 2.2965 0 0 1 2.2964-2.2984z"/></svg>
