<svg xmlns="http://www.w3.org/2000/svg" viewBox="0 0 24 24"><path d="M12 2A10 10 0 0 0 2 12a10 10 0 0 0 10 10 10 10 0 0 0 10-10A10 10 0 0 0 12 2Zm0 1a9 9 0 0 1 9 9 9 9 0 0 1-9 9 9 9 0 0 1-9-9 9 9 0 0 1 9-9z"/><path d="M12 7.5A4.5 4.5 0 0 0 7.5 12a4.5 4.5 0 0 0 4.5 4.5 4.5 4.5 0 0 0 4.5-4.5A4.5 4.5 0 0 0 12 7.5Zm.02246 1.136719c1.019498 0 1.907226.650501 1.907226 1.6875 0 .492-.245758.984337-.676758 1.256835.597499.299.94043.844009.94043 1.520508 0 1.221499-.9929 2.003907-2.170898 2.003907-1.212499 0-2.170899-.825908-2.170899-2.003907 0-.702999.38643-1.221508.94043-1.520508-.413-.298998-.667969-.702836-.667969-1.256835 0-1.028499.852439-1.6875 1.898438-1.6875zm0 1.160157c-.413 0-.632813.289968-.632813.667968 0 .395499.228313.667968.632813.667968.4045 0 .641601-.272469.641601-.667968 0-.378-.228601-.66797-.641601-.667968zm0 2.33789c-.51.0005-.799805.386906-.799805.878906 0 .447999.263305.878906.799805.878906.501 0 .799804-.430407.799804-.878906 0-.5535-.316304-.878906-.799804-.878906z"/></svg>