<?xml version="1.0" encoding="UTF-8"?>
<svg width="24" height="24" version="1.1" viewBox="0 0 24 24" xml:space="preserve" xmlns="http://www.w3.org/2000/svg"><path d="m5.8925 19.557c-1.1097-0.08957-2.6409-0.59651-3.3325-1.1033-0.3644-0.26704-0.53876-0.52006-0.55958-0.81206-0.014155-0.19858 0.01649-0.32148 0.12584-0.50462 0.15978-0.2676 0.39906-0.36939 1.0665-0.45372 0.60782-0.0768 0.70575-0.11443 0.93886-0.36092 0.34976-0.36982 0.59106-0.89423 1.2563-2.7303 0.94216-2.6003 1.2206-3.2048 1.8306-3.9739 0.91524-1.154 2.3153-1.6381 4.742-1.6395 1.0391-6.416e-4 1.5149 0.095762 1.8161 0.36786 0.14622 0.13211 0.20242 0.26723 0.20242 0.48672 0 0.22552-0.07054 0.44782-0.26538 0.83632-0.33131 0.66062-0.89179 1.9537-0.86041 1.9851 0.0079 0.0079 0.23309-0.05519 0.50061-0.14001 0.64437-0.20431 0.99407-0.29401 1.4422-0.36992 1.2028-0.20375 2.2589-0.08729 2.6401 0.29113 0.2598 0.25792 0.28479 0.63169 0.08452 1.2642-0.19149 0.60473-0.72979 1.7776-1.0058 2.1914-0.39253 0.58856-0.78508 0.795-1.2742 0.67011-0.2343-0.05982-0.66299-0.27732-1.0723-0.54402-0.5509-0.35896-1.5764-0.85006-1.8748-0.89776-0.15908-0.02544-0.19234 0.0243-0.30513 0.4563-0.16555 0.63405-0.68433 2.4835-0.76436 2.7249-0.17838 0.53814-0.45274 1.0009-0.80164 1.3522-0.535 0.53862-1.2377 0.82691-2.2059 0.90497-0.3725 0.03004-1.947 0.02922-2.3239-0.0011v3e-6z"/><path d="m15.882 4.4193c-0.96017 0.00104-2.0219 0.031166-2.7082 0.084182-0.148 0.011397-0.30448 0.027676-0.46623 0.046826-0.09851 0.011398-0.19311 0.02361-0.28462 0.037075-0.33243 0.046164-0.69204 0.10595-1.0922 0.18371-0.1418 0.027549-0.27076 0.052369-0.28671 0.055057l-0.02898 0.00493v0.00577c-0.6706 0.13826-1.3037 0.29817-1.8831 0.47724-0.24841 0.076781-0.6372 0.2073-0.80577 0.2704l-0.036371 0.013508v0.00647c-0.12886 0.047278-0.25769 0.095018-0.38776 0.14593-1.1058 0.43283-1.9762 0.89393-2.4381 1.2914-0.46108 0.39675-0.65853 0.85082-0.54289 1.2486 0.08058 0.27716 0.22498 0.37333 0.56185 0.37424 0.27145 7.361e-4 0.55228-0.072464 1.1842-0.30873 0.56258-0.21035 1.0684-0.36704 1.6255-0.50164 1.3e-6 1.4e-6 -1.5e-6 0.00111 0 0.00111 0.00154 0 0.039171-0.00872 0.083633-0.019234 0.67528-0.16071 1.3306-0.26972 1.9858-0.33034 0.23868-0.022076 0.44482-0.036864 0.65301-0.046826v0.00366l0.12711-0.00549c0.43627-0.018686 1.0995-0.013367 1.5009 0.01224 0.7412 0.047248 1.2745 0.14474 1.9848 0.36267 0.65283 0.20031 1.3769 0.49599 1.9893 0.81218 0.53426 0.27587 0.85695 0.48137 1.5258 0.97178 0.31333 0.22973 0.47252 0.3426 0.57858 0.40964 0.0028 0.0018 0.0095 0.0068 0.0121 0.0084 0.0096 0.0062 0.01956 0.01182 0.02941 0.0177 0.0443 0.02628 0.08158 0.04601 0.11262 0.05798 0.07886 0.0304 0.19504 0.0583 0.29619 0.07108 0.02184 0.0028 0.0712 0.0041 0.12559 0.0046 0.06845 0.0024 0.1372 0.0014 0.2042-0.0047 0.21059-0.01507 0.34916-0.06478 0.50526-0.18175l0.02801-0.01868v-0.0035c0.01875-0.01479 0.03731-0.02936 0.05688-0.04614 0.43909-0.37689 0.90705-1.1371 1.3779-2.2384 0.36855-0.862 0.57543-1.5709 0.52617-1.8031-0.013507-0.063414-0.081119-0.20045-0.13897-0.28155-0.11675-0.16372-0.30869-0.31163-0.58096-0.44774-0.30162-0.15079-0.63954-0.25858-1.2289-0.39208-0.56687-0.1284-1.7332-0.26827-2.6494-0.31765-0.39999-0.021556-0.93954-0.031433-1.5156-0.0308z"/></svg>
