<svg width="24" height="24" viewBox="0 0 24 24" fill="none" xmlns="http://www.w3.org/2000/svg">
<path d="M19.5504 3.46589C20.5705 2.97167 21.2873 2.55349 21.6743 2.22687C21.8384 2.08841 21.9844 1.98694 21.9989 2.00137C22.0132 2.0158 21.8898 2.5553 21.7246 3.20024C21.5594 3.84518 21.3532 4.6773 21.2663 5.04938C20.9418 6.43885 20.4863 7.90896 20.2065 8.47029C19.9059 9.07356 19.266 9.78706 18.6428 10.2143C18.2629 10.4747 17.6756 10.6669 16.7453 10.8352L16.482 10.8829L2.01705 12.6902C2.03 12.0916 2.05017 11.6741 2.07704 11.4716C2.19049 10.6166 2.58603 9.38133 2.93876 8.78022C3.83765 7.24836 4.86123 6.61408 4.86123 6.61408C5.57174 6.08532 7.09839 5.54396 8.33695 5.4055C9.59015 5.26532 16.4182 4.27391 17.6987 4.04624C18.4932 3.90499 18.9205 3.77104 19.5504 3.46589Z" fill="#FFF1C0"/>
<path d="M2.00006 14.4998C1.99964 14.9621 2.00137 15.4675 2.00532 16.0111L2.01944 17.9465L11.0324 16.8203L11.5701 16.7368C12.2734 16.6211 12.7496 16.5123 13.3638 16.1479C14.0256 15.7553 14.9771 14.9346 15.3944 13.9369C15.4734 13.7482 15.6085 13.3013 15.7487 12.782L2.00006 14.4998Z" fill="#FFF1C0"/>
<path d="M10.5526 18.6877L2.09758 19.7442C2.14809 19.9715 2.22576 20.1926 2.32942 20.4028C2.86424 21.4871 3.64728 21.9279 5.14878 21.9896C6.34633 22.0388 7.1273 21.9178 8.05459 21.5393C8.69329 21.2787 8.86717 21.1545 9.42042 20.5641C10.005 19.9402 10.431 19.1011 10.5526 18.6877Z" fill="#FFF1C0"/>
</svg>
