<svg xmlns="http://www.w3.org/2000/svg" viewBox="0 0 24 24"><path d="M14.423182 5.8502273c0-1.4572727 1.226818-2.635 2.738182-2.635 1.511363 0 2.739545 1.18 2.739545 2.635 0 1.4549997-1.226818 2.6349997-2.739545 2.6349997-1.512728 0-2.738182-1.177727-2.738182-2.6349997zM22 16.230682h-.612273c-1.255909 0-1.889091-.890909-1.889091-2.294091v-2.635h-4.640909v3.734545c0 4.057728 2.69 5.760908 5.293637 5.760908H22ZM6.6481818 17.484318c0-1.357272.7509091-1.974545 2.2759092-1.974545h3.784091v-4.22H6.6481818V9.5475c0-1.378182 1.1895455-2.127273 2.6100002-2.127273h3.444091V3.2025H8.074091C4.4372727 3.2025 2 5.1270456 2 9.161591v11.625h4.6481818z"/></svg>