<svg xmlns="http://www.w3.org/2000/svg" viewBox="0 0 24 24"><path d="M5.1946667 3.1108333a.8275.8275 0 0 0-.2775.050833v-.328333C4.9171667 2.3741667 5.2913333 2 5.7505 2H17.973c.459167 0 .833333.3741667.833333.8333333v.2775zm14.4450003 1.945H4.3613333c-.4591666 0-.8333333.3741667-.8333333.8333334V21.166667c0 .459166.3741667.833333.8333333.833333h6.0833337l.915-4.704167H9.493c-.0425 0-4.2983333-.200833-4.2983333-.200833L9.0605 16.8225l-.065-.305-1.6483333-.2375L8.9155 16.148333l-.1033333-.374166-2.5625-.389167s2.7841666-.310833 2.8266666-.310833h2.6933337L11.9755 13.965c.240833-1.346667.7875-2.339167 1.644167-3.0775.860833-.743333 1.953333-1.11 3.280833-1.11.535833 0 .8775.1258333 1.025833.385833.09833.155.1675.43.2325.715834.06167.293333.116667.559166.07917.7525-.0475.2875-.384167.3875-.9975.3875h-.210833c-1.105834 0-1.778334.635833-2.004167 1.925l-.2025 1.129166h1.283333c.478334 0 .650834.335.518334 1.088334-.14167.784166-.44917 1.133333-.925837 1.133333h-1.281666L13.503833 22h6.135c.459167 0 .833334-.374167.833334-.833333V5.8891667a.83333333.83333333 0 0 0-.8325-.8333334zm-.555834-1.1116666a.27833333.27833333 0 0 0-.2775-.2775H5.1946667a.27833333.27833333 0 0 0-.2775.2775V4.5H19.083833Z"/></svg>