<?xml version="1.0" encoding="UTF-8"?>
<svg width="24" height="24" version="1.1" viewBox="0 0 24 24" xml:space="preserve" xmlns="http://www.w3.org/2000/svg"><path d="m4.2129 9.5723c-0.67019 0-1.2129 0.54464-1.2129 1.2148v9c0 0.6702 0.54271 1.2129 1.2129 1.2129h15.574c0.6702 0 1.2129-0.54269 1.2129-1.2129v-9c0-0.6702-0.54269-1.2148-1.2129-1.2148h-1.4277v1.332c0 0.39335-0.11652 0.77298-0.32617 1.0957h0.21289c0.1117 0 0.20312 0.08947 0.20312 0.20117v1.2148c0 0.1117-0.09143 0.20117-0.20312 0.20117h-1.2129c-0.1117-1e-6 -0.20312-0.08947-0.20312-0.20117v-0.32812l-2.2012 1.7441h0.78516c0.1117 0 0.20312 0.08947 0.20313 0.20117v1.2129c0 0.1117-0.09143 0.20312-0.20313 0.20312h-1.2129c-0.1117 0-0.20312-0.09143-0.20312-0.20312v-0.91406l-1.252 0.99219c-0.43301 0.343-1.0592 0.343-1.4922 0l-1.2988-1.0293v0.95117c0 0.1117-0.091425 0.20312-0.20312 0.20312h-1.2129c-0.1117 0-0.20312-0.09143-0.20312-0.20312v-1.2129c0-0.1117 0.091425-0.20117 0.20312-0.20117h0.83203l-2.248-1.7812v0.36524c0 0.1117-0.091425 0.20117-0.20312 0.20117h-1.2129c-0.1117 0-0.20312-0.08947-0.20312-0.20117v-1.2148c0-0.1117 0.091425-0.20117 0.20312-0.20117h0.25977c-0.20965-0.32271-0.32617-0.70231-0.32617-1.0957v-1.332zm1.4941 5.2598h1.2129c0.1117 0 0.20312 0.08947 0.20312 0.20117v1.2129c0 0.1117-0.091425 0.20312-0.20312 0.20312h-1.2129c-0.1117 0-0.20312-0.09143-0.20312-0.20312v-1.2129c0-0.1117 0.091425-0.20117 0.20312-0.20117zm11.326 0h1.2129c0.1117 0 0.20312 0.08947 0.20312 0.20117v1.2129c0 0.1117-0.09143 0.20312-0.20312 0.20312h-1.2129c-0.1117 0-0.20312-0.09143-0.20312-0.20312v-1.2129c0-0.1117 0.09143-0.20117 0.20312-0.20117zm-9.709 2.8301h9.3047c0.1117 0 0.20117 0.09142 0.20117 0.20312v1.2129c0 0.1117-0.08947 0.20312-0.20117 0.20312h-9.3047c-0.11169 0-0.20117-0.09143-0.20117-0.20312v-1.2129c0-0.1117 0.089482-0.20312 0.20117-0.20312z"/><path d="m8.2578 3c-0.89358 0-1.6172 0.7236-1.6172 1.6172v6.2871c0 0.3088 0.14076 0.60117 0.38281 0.79297l4.8516 3.8438c0.0736 0.0583 0.1764 0.0583 0.25 0l4.8516-3.8438c0.242-0.1918 0.38281-0.48417 0.38281-0.79297v-6.2871c0-0.89359-0.72359-1.6172-1.6172-1.6172h-3.7422-3.7422zm3.7871 1.3809c0.045925 0 0.09037 0.013444 0.125 0.039062 1.1057 0.81814 1.6573 1.7671 1.959 2.7031 0.026439 0.081993-0.01327 0.18353-0.08789 0.22656l-0.36328 0.21094c-0.074622 0.04305-0.1503 0.007713-0.16992-0.076172-0.23697-1.0141-0.65085-1.5999-1.3457-2.2227-0.064141-0.05749-0.17024-0.057488-0.23438 0-0.69488 0.62285-1.1107 1.2086-1.3477 2.2227-0.019616 0.083862-0.095312 0.11924-0.16992 0.076172l-0.36328-0.21094c-0.074654-0.043051-0.11433-0.14458-0.087891-0.22656 0.30167-0.93606 0.85324-1.885 1.959-2.7031 0.034628-0.025618 0.081028-0.039062 0.12695-0.039062zm0 1.1543c0.040485-2e-7 0.080868 0.014472 0.11133 0.044922 0.51077 0.51065 0.93278 1.0882 1.1758 2.0137 0.021876 0.083312-0.016671 0.19584-0.082031 0.25195-0.4973 0.42682-0.78406 0.79942-1.123 1.3301-0.04636 0.0726-0.11963 0.072597-0.16602 0-0.33904-0.53066-0.62571-0.90326-1.123-1.3301-0.06537-0.056109-0.10392-0.16864-0.082032-0.25195 0.24301-0.92546 0.66692-1.503 1.1777-2.0137 0.030455-0.030451 0.070843-0.044922 0.11133-0.044922zm-4.1563 1.3867c1.5845 0.096087 3.2922 0.94069 4.0957 2.7715 0.034615 0.078881 0.084531 0.078881 0.11914 0 0.80363-1.8309 2.5112-2.6754 4.0957-2.7715 0.086003-0.0052171 0.15625 0.064243 0.15625 0.15039v0.38867c0 0.086149-0.07054 0.1612-0.15625 0.16992-3.206 0.32663-3.8075 2.7162-3.7812 4.5078 0.001264 0.086142-0.066194 0.15625-0.15234 0.15625h-0.44336c-0.086151 0-0.15364-0.07011-0.15234-0.15625 0.026206-1.7916-0.57709-4.1812-3.7832-4.5078-0.085702-0.0087347-0.1543-0.083774-0.1543-0.16992v-0.38867c0-0.086148 0.070264-0.15564 0.15625-0.15039zm0.0097656 0.95312c0.0097586-3.672e-4 0.018688 1.095e-4 0.029297 0.0019531 3.3234 0.57758 3.5123 2.9179 3.5605 4.2246 0.0031 0.08608-0.061367 0.1397-0.14453 0.11719-2.5341-0.68603-3.3407-2.8167-3.5488-4.2129-0.011111-0.074562 0.035205-0.12829 0.10352-0.13086zm8.2695 0c0.068291 0.0025707 0.11262 0.056298 0.10156 0.13086-0.20808 1.3962-1.0127 3.5269-3.5469 4.2129-0.083164 0.022513-0.14958-0.031108-0.14648-0.11719 0.048199-1.3067 0.23713-3.647 3.5605-4.2246 0.010607-0.0018435 0.021494-0.0023203 0.03125-0.0019531z"/></svg>
