<svg width="24" height="24" viewBox="0 0 24 24" fill="none" xmlns="http://www.w3.org/2000/svg">
<path d="M4 18C3.45 18 2.97933 17.8043 2.588 17.413C2.196 17.021 2 16.55 2 16V8C2 7.45 2.196 6.97933 2.588 6.588C2.97933 6.196 3.45 6 4 6H20C20.55 6 21.021 6.196 21.413 6.588C21.8043 6.97933 22 7.45 22 8V16C22 16.55 21.8043 17.021 21.413 17.413C21.021 17.8043 20.55 18 20 18H4ZM7 15H9V13H11V11H9V9H7V11H5V13H7V15ZM14.5 15C14.9167 15 15.2707 14.854 15.562 14.562C15.854 14.2707 16 13.9167 16 13.5C16 13.0833 15.854 12.7293 15.562 12.438C15.2707 12.146 14.9167 12 14.5 12C14.0833 12 13.7293 12.146 13.438 12.438C13.146 12.7293 13 13.0833 13 13.5C13 13.9167 13.146 14.2707 13.438 14.562C13.7293 14.854 14.0833 15 14.5 15ZM17.5 12C17.9167 12 18.2707 11.854 18.562 11.562C18.854 11.2707 19 10.9167 19 10.5C19 10.0833 18.854 9.72933 18.562 9.438C18.2707 9.146 17.9167 9 17.5 9C17.0833 9 16.7293 9.146 16.438 9.438C16.146 9.72933 16 10.0833 16 10.5C16 10.9167 16.146 11.2707 16.438 11.562C16.7293 11.854 17.0833 12 17.5 12Z" fill="#FFF1C0"/>
</svg>
