<?xml version="1.0" encoding="UTF-8"?>
<svg width="24" height="24" fill="none" version="1.1" viewBox="0 0 24 24" xml:space="preserve" xmlns="http://www.w3.org/2000/svg"><path d="m3.9464 7.5095c-1.0782 0-1.9464 0.8677-1.9464 1.9459v5.0888c0 1.0782 0.86819 1.9464 1.9464 1.9464h16.107c1.0782 0 1.9464-0.86819 1.9464-1.9464v-5.0888c0-1.0782-0.86819-1.9459-1.9464-1.9459zm14.552 2.097a1.2703 1.2703 0 0 1 1.2705 1.27 1.2703 1.2703 0 0 1-1.2705 1.2705 1.2703 1.2703 0 0 1-1.27-1.2705 1.2703 1.2703 0 0 1 1.27-1.27zm-13.524 0.43922h1.0608c0.09939 0 0.17896 0.08005 0.17896 0.17944v1.0651h1.0656c0.09939 0 0.17944 0.08005 0.17944 0.17944v1.0603c0 0.09939-0.08005 0.17944-0.17944 0.17944h-1.0656v1.0656c0 0.09938-0.07957 0.17944-0.17896 0.17944h-1.0608c-0.09939 0-0.17944-0.08005-0.17944-0.17944v-1.0656h-1.0651c-0.09939 0-0.17944-0.08005-0.17944-0.17944v-1.0603c0-0.09939 0.08005-0.17944 0.17944-0.17944h1.0651v-1.0651c0-0.09939 0.08005-0.17944 0.17944-0.17944zm10.23 2.0104a1.2703 1.2703 0 0 1 1.2705 1.27 1.2703 1.2703 0 0 1-1.2705 1.2705 1.2703 1.2703 0 0 1-1.27-1.2705 1.2703 1.2703 0 0 1 1.27-1.27z" fill="#000" fill-rule="evenodd" stop-color="#000000" stroke-dashoffset="6" stroke-linecap="square" stroke-width="4.631" style="paint-order:stroke fill markers"/><style type="text/css">
	.st0{fill:#FFFFFF;}
</style><style type="text/css">
	.st0{fill:#FFFFFF;}
</style><style type="text/css">
	.st0{fill:#FFFFFF;}
</style></svg>
