<?xml version="1.0" encoding="UTF-8"?>
<svg width="24" height="24" fill="none" version="1.1" viewBox="0 0 24 24" xml:space="preserve" xmlns="http://www.w3.org/2000/svg"><path d="m12 2.5963c-1.3539 0-2.4517 1.0976-2.4517 2.4515 0 1.3539 1.0978 2.4517 2.4517 2.4517s2.4515-1.0978 2.4515-2.4517c0-1.3539-1.0976-2.4515-2.4515-2.4515zm7.4871 6.4183c-1.3539 0-2.4515 1.0964-2.4515 2.4503 0 1.3539 1.0976 2.4517 2.4515 2.4517 1.3539 0 2.4503-1.0978 2.4503-2.4517 0-1.3539-1.0964-2.4503-2.4503-2.4503zm-14.974 7.4861c-1.3539 0-2.4503 1.0976-2.4503 2.4515 0 1.3539 1.0963 2.4515 2.4503 2.4515 1.3539 0 2.4515-1.0976 2.4515-2.4515 0-1.3539-1.0976-2.4515-2.4515-2.4515zm7.4873 0c-1.3539 0-2.4517 1.0976-2.4517 2.4515 0 1.3539 1.0978 2.4515 2.4517 2.4515s2.4515-1.0976 2.4515-2.4515c0-1.3539-1.0976-2.4515-2.4515-2.4515zm7.4871 0c-1.3539 0-2.4515 1.0976-2.4515 2.4515 0 1.3539 1.0976 2.4515 2.4515 2.4515 1.3539 0 2.4503-1.0976 2.4503-2.4515 0-1.3539-1.0964-2.4515-2.4503-2.4515z" fill="#000" stroke="#000" stroke-width=".12502"/></svg>
