<svg width="24" height="24" viewBox="0 0 24 24" fill="none" xmlns="http://www.w3.org/2000/svg">
<circle cx="12" cy="6" r="4" fill="#FFF1C0"/>
<path d="M7 17C7 14.2386 9.23858 12 12 12H16C18.2091 12 20 13.7909 20 16V18C20 20.2091 18.2091 22 16 22H8C7.44772 22 7 21.5523 7 21V17Z" fill="#FFF1C0"/>
<path d="M7.62704 12.1909C5.53317 12.7875 4 14.7147 4 17V21C4 21.5523 4.44772 22 5 22H5.70802C5.57422 21.6938 5.5 21.3556 5.5 21V17C5.5 15.0941 6.32027 13.3798 7.62704 12.1909Z" fill="#FFF1C0"/>
<path d="M8 22H16C18.2091 22 20 20.2091 20 18V16C20 13.7909 18.2091 12 16 12H12C9.23858 12 7 14.2386 7 17V21C7 21.5523 7.44772 22 8 22Z" fill="#FFF1C0"/>
</svg>
