<svg width="24" height="24" viewBox="0 0 24 24" fill="none" xmlns="http://www.w3.org/2000/svg">
<path fill-rule="evenodd" clip-rule="evenodd" d="M17.503 9.78952V11.4452L17.7929 11.0968L18.0829 10.7484V9.44112V8.13382H17.7929H17.503V9.78952ZM18.3728 9.32549C18.3728 10.2654 18.3881 10.5071 18.4453 10.4698C18.4852 10.4437 18.6157 10.3616 18.7352 10.2872L18.9527 10.1519V9.14288V8.13382H18.6627H18.3728V9.32549ZM3.60575 8.77083C2.3787 9.09249 1.44653 9.97149 1.05255 11.1782C0.862988 11.759 0.836256 12.7005 0.992826 13.2827C1.43986 14.9451 2.79182 15.9713 4.54244 15.9771C5.53005 15.9803 6.28118 15.6995 6.82593 15.1236C7.40489 14.5114 7.64485 13.7554 7.64485 12.5434V11.8451H6.13714H4.62943V12.1061V12.367H5.87619H7.12295V12.8477C7.12295 14.5447 6.07828 15.5213 4.36848 15.4227C3.50949 15.3732 2.8378 15.0565 2.26789 14.4324C1.40762 13.4903 1.22878 12.0201 1.83013 10.8333C2.03274 10.4335 2.65229 9.80692 3.05277 9.59682C3.66826 9.27394 3.95681 9.2065 4.71641 9.20801C5.4716 9.20957 6.02215 9.33338 6.53587 9.61729C6.67545 9.69442 6.80082 9.75751 6.81451 9.75751C6.82819 9.75751 6.83138 9.63359 6.8217 9.48206C6.80459 9.21543 6.79438 9.20145 6.50426 9.04598C5.78219 8.65902 4.4975 8.53707 3.60575 8.77083ZM3.90949 9.59044C3.48977 9.68891 2.9423 10.0042 2.60445 10.342C1.34638 11.6001 1.57596 13.7141 3.07654 14.6892C3.55478 14.9999 4.0235 15.1117 4.72951 15.0833C5.23634 15.063 5.3515 15.0375 5.68923 14.8713C6.39472 14.524 6.77502 13.9101 6.77502 13.1187V12.7149H5.70222H4.62943V13.0049V13.2948H5.44237H6.25532L6.21797 13.4543C6.11058 13.9129 5.86256 14.1993 5.38328 14.4181C5.03019 14.5793 4.2108 14.5877 3.77142 14.4345C3.33395 14.2821 2.8378 13.8076 2.62707 13.3402C2.43252 12.9087 2.36861 12.1923 2.48024 11.6936C2.57511 11.2696 2.9354 10.7476 3.31035 10.4909C3.79734 10.1575 4.05574 10.084 4.7454 10.0832C5.42973 10.0824 5.82701 10.1761 6.39507 10.4724C6.58806 10.5731 6.76562 10.6644 6.78951 10.6752C6.8134 10.6861 6.833 10.564 6.833 10.4039V10.1127L6.47057 9.93548C5.73226 9.57432 4.61812 9.42425 3.90949 9.59044ZM13.459 10.2512C12.4689 10.4663 11.6884 11.2285 11.3833 12.2777C11.2336 12.7926 11.286 13.7777 11.4891 14.2688C11.8845 15.2248 12.6536 15.8093 13.7136 15.9594C14.1368 16.0194 14.6082 15.9626 14.9214 15.8139C15.1132 15.7229 15.1254 15.7004 15.1254 15.4371V15.157L14.85 15.2839C14.4582 15.4644 13.6668 15.4603 13.2001 15.2753C11.7036 14.682 11.3683 12.4617 12.6045 11.3318C13.0539 10.9211 13.4493 10.7759 14.1106 10.7788C15.0343 10.7828 15.6826 11.1707 16.0659 11.9489L16.2562 12.3351L16.2738 14.0907L16.2915 15.8463H16.5783H16.8651V14.2058C16.8651 12.9388 16.8454 12.4898 16.7786 12.2332C16.5104 11.2036 15.7482 10.4633 14.7352 10.2486C14.2572 10.1474 13.9341 10.148 13.459 10.2512ZM19.8225 10.2258C19.6471 10.2554 19.3091 10.375 19.0713 10.4915C18.5622 10.7411 18.0038 11.2728 17.4857 12.0017L17.1495 12.4746L17.1668 12.8558L17.184 13.237L17.6576 12.6135C18.5347 11.459 19.0737 11.0015 19.7645 10.8252C20.5832 10.6164 21.3983 10.8558 21.9595 11.4697C22.3917 11.9427 22.5157 12.3043 22.5157 13.0919C22.5157 13.8943 22.3922 14.2452 21.936 14.7378C20.8772 15.8815 18.9561 15.5554 18.366 14.1317L18.2385 13.824L18.0431 14.08L17.8476 14.336L17.9963 14.6293C18.7925 16.2006 21.1832 16.4606 22.3758 15.1057C23.7418 13.5539 23.1087 10.9224 21.2286 10.3375C20.7975 10.2033 20.2246 10.1578 19.8225 10.2258ZM9.9644 10.2966C9.216 10.4681 8.68424 10.8751 8.3722 11.5154C8.09333 12.0878 8.0517 12.4443 8.05123 14.2661L8.05077 15.8463H8.33764H8.62457L8.64208 14.0327L8.65965 12.2191L8.85055 11.8316C9.19228 11.1379 9.78261 10.7854 10.6023 10.7858C10.8644 10.7859 11.1499 10.8257 11.3209 10.8857L11.6046 10.9855L11.7849 10.8047C11.9925 10.5964 11.984 10.5851 11.4777 10.3932C11.0865 10.2448 10.3855 10.2001 9.9644 10.2966ZM13.6963 11.0906C13.1084 11.2141 12.5732 11.6404 12.3209 12.186C12.1409 12.5752 12.1409 13.6085 12.3209 13.9978C12.7762 14.9825 13.8735 15.3821 14.9207 14.9445C15.1154 14.8631 15.1254 14.8452 15.1254 14.5751V14.2911L14.8829 14.4083C14.5629 14.563 14.0418 14.607 13.6918 14.509C13.3296 14.4076 12.9198 14.0044 12.8114 13.6428C12.5532 12.7818 12.9632 11.8787 13.7067 11.6706C14.4795 11.4542 15.2474 11.899 15.41 12.6573C15.4462 12.8261 15.4734 13.5725 15.4734 14.3995V15.8463H15.7375H16.0017L15.984 14.1502C15.9663 12.4585 15.9659 12.4531 15.8143 12.1301C15.6241 11.7244 15.309 11.4054 14.9274 11.2322C14.5902 11.0791 14.0479 11.0168 13.6963 11.0906ZM19.8448 11.1122C19.1663 11.2836 18.8002 11.6073 17.8074 12.9141L17.155 13.7727V14.2123C17.155 14.4587 17.1767 14.6276 17.2044 14.5967C17.2316 14.5664 17.3969 14.3459 17.5718 14.1067C18.0154 13.5 18.9268 12.3922 19.2094 12.1164C19.7001 11.6376 20.332 11.4917 20.8663 11.734C21.217 11.893 21.3774 12.0505 21.5403 12.396C21.8161 12.9808 21.6771 13.8206 21.2361 14.2341C20.877 14.5708 20.2984 14.6657 19.8493 14.4617C19.3757 14.2465 18.9527 13.5771 18.9527 13.0429C18.9527 12.876 18.9447 12.8811 18.7227 13.1912C18.5261 13.4657 18.4997 13.5368 18.541 13.6807C18.6994 14.2329 19.1219 14.7271 19.6373 14.9631C20.3684 15.2978 21.2987 15.0745 21.7965 14.4447C22.4194 13.6566 22.3939 12.4002 21.7398 11.6552C21.3352 11.1944 20.4845 10.9506 19.8448 11.1122ZM10.08 11.1454C9.64048 11.2791 9.29156 11.5951 9.08303 12.0481C8.95459 12.3272 8.94896 12.4034 8.93197 14.0922L8.91434 15.8463H9.20742H9.50049V14.1628C9.50049 12.2939 9.51047 12.2331 9.86803 11.9191C10.1527 11.6692 10.4711 11.5878 10.848 11.6687C11.0092 11.7033 11.1456 11.7245 11.1511 11.7159C11.1567 11.7072 11.216 11.6043 11.2831 11.4871L11.405 11.2742L11.1764 11.1827C10.939 11.0877 10.3371 11.0672 10.08 11.1454Z" fill="#FFF1C0"/>
</svg>
