<svg xmlns="http://www.w3.org/2000/svg" viewBox="0 0 24 24"><path d="M12.042746 7.1716801 7.1079301 5.1755c0 1.6071825.7390054 3.3740716 1.3776108 3.9825509H2c.6236975 3.4488671 5.0200039 6.2840441 9.375238 6.2840441l-2.0889304 2.105921c-.467621.47115-.136605 1.276734.5248186 1.276734.1968628-.000056.3856428-.07889.5248188-.219176l3.130657-3.15367.03925.01625v2.582588c0 .411988.319759.766347.728357.772784.198775.003.390453-.07438.532106-.214912.141653-.140533.221445-.332438.221503-.532735v-2.636233h1.484704v2.60987c0 .411682.319759.766347.728357.772784.199298.0038.391733-.07334.533993-.214022.14226-.140681.22239-.333095.222355-.533932V15.43811c.0015-3.748969-2.239229-6.7490633-5.914481-8.2664299z"/><path d="M19.951534 9.1580509h-.941327c0-1.0603174.248871-2.0942724.678766-3.0460751.198062-.4386569-.126565-.9364758-.604835-.9364758-.239364.0002515-.46013.1300818-.578061.3399514-.630884 1.1089122-.96383 2.3644262-.96597 3.6425995.000039 2.7131531 1.641709 5.1521591 4.143481 6.1559111L22 15.440869v-4.218893c0-1.139874-.917129-2.0639251-2.048466-2.0639251Z"/></svg>