<?xml version="1.0" encoding="UTF-8"?>
<svg width="24" height="24" fill="none" version="1.1" viewBox="0 0 24 24" xml:space="preserve" xmlns="http://www.w3.org/2000/svg"><path d="m16.725 6.6658c2.9287 0.018634 5.3005 2.402 5.3005 5.3349 0 2.9444-2.3904 5.3349-5.3349 5.3349-1.8831 0-3.5394-0.97763-4.4892-2.4529 0.29395-0.49708 0.51441-1.043 0.64563-1.6227 0.52989 1.6162 2.0513 2.7846 3.8436 2.7846 2.2319 0 4.0439-1.812 4.0439-4.0439 0-0.01181 0-0.02363-2.61e-4 -0.03544-0.01889-2.2156-1.8235-4.0084-4.0436-4.0084h-0.02388l-0.0077 2.625e-4h-0.01654l-0.0084 2.624e-4 -0.01654 2.626e-4h-0.0077l-0.02388 5.25e-4 -0.02388 7.874e-4 -0.0071 2.626e-4 -0.0168 5.25e-4 -0.0084 2.624e-4 -0.01627 7.876e-4 -0.0077 2.624e-4 -0.02388 0.00105-0.02363 0.00135-0.0069 5.25e-4 -0.0252 0.001575-0.01601 0.00105-0.0079 5.25e-4 -0.02363 0.00157-0.02335 0.0018-0.0069 7.874e-4 -0.0168 0.00135-0.0081 7.876e-4 -0.01601 0.00135-0.0079 7.875e-4 -0.0467 0.00472-0.0063 7.875e-4 -0.01705 0.0018-0.0081 0.00105-0.01574 0.0018-0.0079 7.874e-4 -0.02335 0.00293-0.02284 0.00316-0.0063 7.874e-4 -0.01705 0.00236-0.0081 0.00105-0.01548 0.00236-0.0079 0.00105-0.0231 0.00338-0.02284 0.00371-0.0231 0.00371-0.0079 0.00135-0.01548 0.0026-0.0079 0.00135-0.0231 0.00417-0.02256 0.00417-0.02258 0.00417-0.0081 0.00157-0.01496 0.00293-0.0081 0.00157-0.01654 0.00338-0.0063 0.00135-0.02231 0.00451-0.02256 0.00496-0.0079 0.00157-0.01496 0.00338-0.0081 0.0018-0.01575 0.00371-0.0069 0.00135-0.02204 0.0053-0.02231 0.00552-0.0079 0.0018-0.01469 0.00371-0.0081 0.00214-0.01522 0.00371-0.0071 0.0018-0.02179 0.00574-0.02205 0.00574-0.0081 0.00236-0.01417 0.00395-0.0084 0.00236-0.01469 0.00395-0.0077 0.00214-0.02126 0.00631-0.02178 0.00631-0.0081 0.00236-0.01392 0.00417-0.0087 0.0026-0.01391 0.00451-0.0079 0.00236-0.021 0.00653-0.02152 0.0071-0.0084 0.0026-0.01338 0.00451-0.0087 0.00293-0.01365 0.00451-0.0081 0.0026-0.042 0.01464-0.0081 0.00293-0.01313 0.00473-0.0089 0.00316-0.01285 0.00473-0.0084 0.00293-0.021 0.00788-0.02047 0.00766-0.0084 0.00338-0.0126 0.00473-0.0093 0.00338-0.01208 0.00496-0.0089 0.00338-0.02073 0.00812-0.01994 0.00811-0.0087 0.00371-0.01207 0.00496-0.0095 0.00395-0.01154 0.00473-0.0093 0.00395-0.02047 0.00867-0.01942 0.00845-0.0089 0.00395-0.01129 0.00496-0.0097 0.00451-0.01104 0.00496-0.0095 0.00417-0.02047 0.00923-0.01864 0.00867-0.0095 0.00451-0.01082 0.00496-0.01003 0.00473-0.01003 0.00496-0.01024 0.00473-0.01994 0.00969-0.01812 0.00923-0.01002 0.00496-0.0097 0.00473-0.01045 0.0053-0.0093 0.00473-0.01045 0.00552-0.0095 0.00473-0.01234 0.00653-0.01549 0.00811-0.01082 0.00552-0.0087 0.00473-0.01082 0.00574-0.0087 0.00473-0.01082 0.00574-0.0084 0.00451-0.01104 0.00609c-0.0057 0.00316-0.01129 0.00653-0.01705 0.00969l-0.01889 0.010479-0.01129 0.00653-0.0079 0.00417-0.01129 0.00653-0.0071 0.00417-0.01181 0.00687c-0.0055 0.00338-0.01129 0.00653-0.0168 0.010025l-0.01837 0.010815-0.01154 0.0071-0.0069 0.00417-0.01181 0.0071-0.0063 0.00395-0.01234 0.00732c-0.0055 0.00338-0.01104 0.00687-0.01654 0.010479l-0.01758 0.011041-0.01234 0.00766-0.0057 0.00395-0.01234 0.00766-0.0053 0.00338-0.01285 0.00845c-0.0053 0.00338-0.01082 0.0071-0.01627 0.010815l-0.0168 0.01104-0.01285 0.00867-5e-3 0.00338-0.0126 0.00845-0.01758 0.012078c-0.0055 0.00371-0.01082 0.00732-0.01627 0.011041l-0.01601 0.011288-0.01365 0.00947-0.0039 0.00293-0.01313 0.00947-0.0034 0.00236c-0.01968 0.014172-0.03964 0.028604-0.05905 0.043036l-3e-3 0.00214-0.01364 0.010257-0.0023 0.0018c-0.01994 0.014962-0.03989 0.030182-0.05932 0.045673l-0.01733 0.013384c-0.01994 0.016009-0.03989 0.032018-0.05957 0.048027l-0.01548 0.012854c-0.57976 0.4814-1.0236 1.1218-1.2637 1.854v-2.62e-4c-0.12991 0.39656-0.20025 0.8199-0.20025 1.2595 0 2.9444-2.3904 5.3349-5.3349 5.3349-2.9444 0-5.3351-2.3904-5.3351-5.3349l2.625e-4 -0.03438c0.018375-2.9287 2.402-5.3005 5.3349-5.3005 1.8828 0 3.5394 0.97763 4.4892 2.4529-0.29394 0.49708-0.5144 1.043-0.64589 1.6225-0.52989-1.6159-2.0513-2.7844-3.8433-2.7844-2.2319 0-4.0439 1.812-4.0439 4.0439 0 2.2319 1.812 4.0439 4.0439 4.0439 2.2319 0 4.0439-1.812 4.0439-4.0439v-0.03544l2.62e-4 -0.0336 5.26e-4 -0.03438 2.62e-4 -3e-3 2.61e-4 -0.01365 2.63e-4 -0.01759 2.62e-4 -0.0041 2.63e-4 -0.01364 5.25e-4 -0.01654 2.62e-4 -5e-3 2.63e-4 -0.01365 7.87e-4 -0.01549v-0.0061l7.88e-4 -0.01338 5.25e-4 -0.01469 2.62e-4 -0.0071 7.88e-4 -0.01313 5.25e-4 -0.01392 5.25e-4 -0.0081 5.24e-4 -0.0126 7.87e-4 -0.01338 5.25e-4 -0.0093 7.88e-4 -0.01234 7.87e-4 -0.0126 5.25e-4 -0.01003 7.87e-4 -0.01207 7.88e-4 -0.01181 7.88e-4 -0.01104 1e-3 -0.01154 7.87e-4 -0.01129 5.25e-4 -0.0057 2.62e-4 -0.0063 1e-3 -0.01129 7.88e-4 -0.01045 5.25e-4 -0.0061 5.25e-4 -0.0069 1e-3 -0.01104 7.88e-4 -0.01002 5.24e-4 -0.0063 7.87e-4 -0.0077 1e-3 -0.01045 7.89e-4 -0.0093 7.87e-4 -0.0069 5.24e-4 -0.0081 0.0011-0.01002 1e-3 -0.0087 7.89e-4 -0.0073 7.87e-4 -0.0087 1e-3 -0.0095 7.87e-4 -0.0081 7.87e-4 -0.0077 2e-3 -0.0186 7.87e-4 -0.0077 1e-3 -0.0079 0.0011-0.01002 0.0011-0.0087 7.88e-4 -0.0069 1e-3 -0.0084 0.0014-0.01045 1e-3 -0.0081 7.88e-4 -0.0063 0.0011-0.0087 0.0016-0.01104 1e-3 -0.0079 7.87e-4 -0.0057 0.0011-0.0089 0.0016-0.01181 1e-3 -0.0073 7.87e-4 -0.0053 0.0014-0.0093 0.0018-0.01234 7.87e-4 -0.0069 7.88e-4 -5e-3 0.0016-0.0095 0.0018-0.01285 0.0016-0.01082 0.0016-0.01002 0.0021-0.01338 0.0016-0.0097 0.0016-0.01045 0.0023-0.01365 0.0014-0.0089 0.0018-0.01104 0.0023-0.01417 0.0014-0.0077 0.0021-0.01207 0.0026-0.01417 0.0011-0.0065 0.0023-0.01313 0.0026-0.01392 1e-3 -0.0057 3e-3 -0.01469 0.0023-0.01313 1e-3 -5e-3 0.0032-0.01733 0.0032-0.01522 0.0061-0.02965v-7.86e-4c0.13385-0.65482 0.38764-1.2661 0.73775-1.8096l0.0126-0.019682 0.01024-0.01522c0.48-0.73342 1.1361-1.3418 1.9077-1.7646l5.24e-4 -2.613e-4c0.01784-0.00969 0.03596-0.019682 0.05406-0.029134l0.01889-0.010257 0.01837-0.00947c0.01732-0.00923 0.03464-0.018104 0.05197-0.027038l0.0045-0.00214c0.01705-0.00867 0.03412-0.017328 0.05118-0.02572l0.01811-0.0089 0.02887-0.014172 0.02939-0.013914 0.02914-0.013643 0.02939-0.013644 0.01705-0.00788 0.0126-0.00574 0.02939-0.013125 0.0147-0.00653 0.01522-0.00653 0.02965-0.012854 0.01234-0.0053 0.01759-0.00766 0.02047-0.00867 0.0095-0.00395 0.01003-0.00395 0.01994-0.00845 0.01837-0.00732 0.01181-0.00496 0.0077-0.00293 0.02284-0.0089 0.01574-0.00631 0.01444-0.00574 0.03045-0.011548 0.01364-0.0053 0.0168-0.00631 0.02231-0.00812 0.0084-0.00316 0.01104-0.00417 0.01968-0.0071 0.01968-0.00687 0.01104-0.00395 0.0087-0.00316 0.02204-0.00766 0.01733-0.00609 0.01364-0.00473 0.0041-0.00135c0.0079-0.0026 0.01548-0.0053 0.02335-0.00788l0.0037-0.00105 0.0147-0.00496 0.01627-0.0053 3e-3 -0.00105c0.0081-0.0026 0.01601-0.00496 0.02388-0.00766l0.0045-0.00135 0.01234-0.00395 0.01889-0.00609 0.02125-0.00653 0.01024-0.00316 0.0097-0.00293 0.02152-0.00653 0.01889-0.00552 0.0126-0.00371 0.0039-0.00105c0.0084-0.0026 0.0168-0.00496 0.02519-0.00732l0.01889-0.0053 0.01522-0.00451 3e-3 -7.876e-4c0.0087-0.00236 0.01705-0.00451 0.02546-0.00687l0.01733-0.00473 0.01811-0.00473 0.0016-5.25e-4c0.0087-0.00236 0.01733-0.00451 0.02598-0.00687l0.01548-0.00395 0.02072-0.0053 0.02021-0.00496 0.01181-0.00293 0.0039-0.00105c0.0089-0.00214 0.01758-0.00417 0.02651-0.00631l0.01942-0.00473 0.0147-0.00316 3e-3 -7.874e-4c0.0089-0.00214 0.01784-0.00417 0.02677-0.00609l0.01758-0.00395 0.01733-0.00395 0.0018-2.625e-4c0.0089-0.00214 0.01811-0.00395 0.0273-0.00609l0.01574-0.00316 0.02072-0.00451c0.0095-0.0018 0.01864-0.00371 0.02782-0.00552l0.0079-0.00157c0.0093-0.0018 0.01864-0.00371 0.02782-0.00552l0.02021-0.00371 0.01364-0.0026 3e-3 -5.25e-4c0.0093-0.0018 0.01864-0.00338 0.02782-0.00496l0.01837-0.00338 0.01654-0.00293 0.0018-2.625e-4c0.0095-0.00157 0.01889-0.00316 0.02834-0.00473l0.01654-0.00293 0.02021-0.00316c0.0095-0.00157 0.01889-0.00293 0.02861-0.00451l0.0073-0.00105c0.0095-0.00157 0.01916-0.00293 0.02886-0.00451l0.02073-0.00293 0.01285-0.0018 0.0032-5.25e-4c0.0095-0.00135 0.01916-0.0026 0.02861-0.00395l0.01943-0.00236 0.01548-0.00214 0.0021-2.625e-4c0.0097-0.00135 0.01916-0.00236 0.02886-0.00371l0.01759-0.00214 0.01942-0.00214c0.0097-0.00135 0.01943-0.00236 0.02914-0.00338l0.01574-0.00157 0.02125-0.00214c0.0097-0.00105 0.01968-0.00214 0.02965-0.00316l0.0071-5.25e-4c0.0097-0.00105 0.01968-0.0018 0.02939-0.00293l0.02021-0.00157 0.01444-0.00135 0.0026-2.624e-4c0.0097-7.876e-4 0.01942-0.00157 0.02939-0.00236l0.01837-0.00135 0.01889-0.00135c0.01002-7.875e-4 0.01968-0.00135 0.02965-0.0018l0.01654-0.00105 0.02073-0.00135c0.01003-5.25e-4 0.01995-0.00105 0.02992-0.00157l0.0071-5.25e-4c0.01003-2.625e-4 0.02021-7.875e-4 0.03018-0.00135l0.021-7.876e-4 0.01364-5.25e-4 3e-3 -2.613e-4c0.01002-2.625e-4 0.01994-7.875e-4 0.02965-0.00105l0.01942-5.25e-4 0.01654-5.25e-4h0.0018c0.01002-2.625e-4 0.01994-5.25e-4 0.02993-5.25e-4l0.01758-5.25e-4 0.02021-2.625e-4c0.01024 0 0.02021-2.625e-4 0.03018-2.625e-4h0.03778z" clip-rule="evenodd" fill="#000" fill-rule="evenodd" stroke-linejoin="round" stroke-miterlimit="2" stroke-width=".26245"/></svg>
