<svg width="24" height="24" viewBox="0 0 24 24" fill="none" xmlns="http://www.w3.org/2000/svg">
<path d="M14.5152 3.75915C14.2535 3.60182 13.9139 3.68641 13.7566 3.94807L12.1333 6.64799C11.7241 6.48601 11.2887 6.37614 10.8351 6.32656V3.12534C10.8351 2.82002 10.5876 2.57251 10.2823 2.57251C9.977 2.57251 9.72949 2.82002 9.72949 3.12534V6.32657C9.24312 6.37975 8.77759 6.50225 8.34299 6.684L6.59267 3.83815C6.43271 3.57809 6.09222 3.49693 5.83216 3.65688C5.57209 3.81683 5.49093 4.15732 5.65088 4.41739L7.3753 7.22111C6.99473 7.49106 6.65332 7.8126 6.36127 8.17553L3.59566 6.51273C3.33399 6.35541 2.99434 6.44 2.83701 6.70166C2.67969 6.96332 2.76428 7.30298 3.02594 7.4603L5.76656 9.10808C5.54511 9.55793 5.3889 10.0457 5.31028 10.559L2.34287 10.559C2.03755 10.559 1.79004 10.8065 1.79004 11.1118C1.79004 11.4171 2.03755 11.6646 2.34287 11.6646L5.26321 11.6646C5.29834 12.1946 5.41553 12.702 5.60219 13.1745L3.25345 14.619C2.99338 14.779 2.91223 15.1195 3.07218 15.3796C3.16199 15.5256 3.30871 15.6152 3.46615 15.6374C4.03561 15.0372 4.78819 14.6125 5.6344 14.4527L6.12077 14.1536C6.16985 14.2257 6.22076 14.2964 6.27342 14.3658C6.95074 12.4067 8.81047 11 11 11C11.2612 11 11.5182 11.0201 11.7693 11.059C12.753 9.31311 14.586 8.10798 16.7099 8.00689L17.619 7.46031C17.8807 7.30298 17.9652 6.96333 17.8079 6.70166C17.6506 6.44 17.3109 6.35541 17.0493 6.51273L14.2295 8.20811C13.9121 7.80702 13.5349 7.45545 13.1114 7.16686L14.7041 4.51779C14.8614 4.25613 14.7769 3.91647 14.5152 3.75915Z" fill="#FFF1C0"/>
<path d="M14.9467 9.4397C13.7446 9.98181 12.7953 10.9853 12.3244 12.2245C11.9099 12.0791 11.4642 12 11 12C9.19832 12 7.67485 13.1912 7.17416 14.8289C7.13653 14.952 7.10467 15.0776 7.07892 15.2054C7.06245 15.2871 7.04848 15.3697 7.03708 15.4531C6.82723 15.407 6.60921 15.3827 6.38552 15.3827C4.71559 15.3827 3.36185 16.7365 3.36185 18.4064C3.36185 20.0519 4.67624 21.3912 6.31238 21.4301H19.5135V21.4271C21.5665 21.4271 22.2224 20.4975 22.2224 19.0296C22.2224 18.1478 21.7839 17.3629 21.1021 16.8596C21.668 16.0493 22 15.0634 22 14C22 11.2386 19.7614 9 17 9C16.2682 9 15.5731 9.15721 14.9467 9.4397Z" fill="#FFF1C0"/>
</svg>
