<?xml version="1.0" encoding="UTF-8"?>
<svg width="24" height="24" version="1.1" viewBox="0 0 24 24" xmlns="http://www.w3.org/2000/svg">
 <path d="m22 11.989c0-0.11096-0.05888-0.21359-0.15468-0.26964l-16.389-9.5832c-0.28653-0.16757-0.64671 0.039109-0.64671 0.37098v4.1333c0 0.15502 0.08346 0.29799 0.21845 0.3742l8.1678 4.6119c0.29126 0.16447 0.29126 0.58402 0 0.74848l-8.1678 4.6119c-0.13499 0.0762-0.21845 0.21923-0.21845 0.37424v4.1323c0 0.33209 0.36057 0.53872 0.64711 0.3708l16.389-9.6058c0.09567-0.05608 0.15442-0.15863 0.15442-0.26947z" stroke-width=".073698"/>
 <path d="m8.9035 11.737c0.20541 0.11675 0.20541 0.41345 0 0.53019l-3.6397 2.0687c-0.20265 0.11516-0.45394-0.031576-0.45394-0.26509v-4.1374c0-0.23356 0.25129-0.38029 0.45394-0.26509z" stroke-width=".073698"/>
</svg>
