<svg width="24" height="24" viewBox="0 0 24 24" fill="none" xmlns="http://www.w3.org/2000/svg">
<path d="M1.37027 14.2265V13.5903L3.33832 11.5513C3.54847 11.3298 3.72171 11.1357 3.85802 10.9691C3.99623 10.8006 4.09941 10.6406 4.16757 10.4892C4.23573 10.3377 4.26981 10.1768 4.26981 10.0064C4.26981 9.81327 4.22437 9.64666 4.13349 9.50656C4.04262 9.36456 3.91861 9.2557 3.76147 9.17997C3.60433 9.10234 3.42731 9.06353 3.23041 9.06353C3.02215 9.06353 2.84039 9.10613 2.68515 9.19133C2.5299 9.27652 2.41062 9.39675 2.32732 9.55199C2.24401 9.70724 2.20236 9.889 2.20236 10.0973H1.36459C1.36459 9.74321 1.446 9.43367 1.60882 9.16861C1.77165 8.90355 1.99505 8.69813 2.27904 8.55235C2.56303 8.40468 2.88583 8.33084 3.24745 8.33084C3.61285 8.33084 3.9347 8.40373 4.21301 8.54951C4.49321 8.6934 4.71189 8.8903 4.86903 9.14021C5.02617 9.38823 5.10474 9.66843 5.10474 9.98082C5.10474 10.1967 5.06403 10.4078 4.98262 10.6141C4.90311 10.8205 4.76395 11.0505 4.56516 11.3042C4.36636 11.556 4.08995 11.8618 3.73591 12.2215L2.58007 13.4313V13.4739H5.19845V14.2265H1.37027Z" fill="#FFF1C0"/>
<path d="M6.0277 13.0905V12.3805L8.54101 8.41036H9.36324L6.94783 12.301V12.3465H10.3926V13.0905H6.0277ZM8.78524 14.2265V12.8747L8.79092 12.5509V11.5513H9.62301V14.2265H8.78524Z" fill="#FFF1C0"/>
<path d="M13.4697 9.86438V10.546H11.0046V9.86438H13.4697ZM11.6805 14.2265V9.35888C11.6805 9.08625 11.7402 8.86001 11.8594 8.68015C11.9787 8.49839 12.1368 8.36302 12.3337 8.27404C12.5306 8.18316 12.7445 8.13773 12.9755 8.13773C13.1459 8.13773 13.2917 8.15193 13.4129 8.18032C13.534 8.20683 13.624 8.23144 13.6826 8.25416L13.4839 8.94142C13.4441 8.93006 13.393 8.9168 13.3305 8.90166C13.268 8.88462 13.1923 8.8761 13.1033 8.8761C12.8969 8.8761 12.7493 8.92722 12.6603 9.02945C12.5732 9.13169 12.5296 9.27936 12.5296 9.47248V14.2265H11.6805Z" fill="#FFF1C0"/>
<path d="M14.3458 15.8622V9.86438H15.175V10.5715H15.246C15.2952 10.4806 15.3662 10.3756 15.459 10.2563C15.5518 10.137 15.6805 10.0329 15.8452 9.9439C16.0099 9.85302 16.2277 9.80759 16.4984 9.80759C16.8506 9.80759 17.1648 9.89657 17.4412 10.0745C17.7177 10.2525 17.9344 10.509 18.0916 10.8441C18.2506 11.1793 18.3301 11.5825 18.3301 12.0539C18.3301 12.5254 18.2516 12.9296 18.0944 13.2666C17.9373 13.6017 17.7215 13.8601 17.4469 14.0419C17.1724 14.2217 16.8591 14.3117 16.5069 14.3117C16.2419 14.3117 16.0251 14.2672 15.8566 14.1782C15.69 14.0892 15.5593 13.9851 15.4647 13.8658C15.37 13.7465 15.2971 13.6405 15.246 13.5477H15.1949V15.8622H14.3458ZM15.1779 12.0454C15.1779 12.3521 15.2223 12.621 15.3113 12.852C15.4003 13.0829 15.5291 13.2637 15.6976 13.3944C15.8661 13.5231 16.0724 13.5875 16.3167 13.5875C16.5703 13.5875 16.7824 13.5203 16.9528 13.3859C17.1232 13.2495 17.2519 13.0649 17.339 12.8321C17.428 12.5992 17.4725 12.337 17.4725 12.0454C17.4725 11.7576 17.4289 11.4992 17.3419 11.2701C17.2567 11.041 17.1279 10.8602 16.9556 10.7277C16.7852 10.5952 16.5722 10.5289 16.3167 10.5289C16.0705 10.5289 15.8623 10.5923 15.6919 10.7192C15.5234 10.846 15.3956 11.0231 15.3085 11.2503C15.2214 11.4774 15.1779 11.7425 15.1779 12.0454Z" fill="#FFF1C0"/>
<path d="M22.5502 10.9293L21.7806 11.0657C21.7484 10.9672 21.6973 10.8735 21.6273 10.7845C21.5591 10.6955 21.4663 10.6226 21.3489 10.5658C21.2316 10.509 21.0848 10.4806 20.9088 10.4806C20.6683 10.4806 20.4676 10.5346 20.3067 10.6425C20.1458 10.7485 20.0653 10.8858 20.0653 11.0543C20.0653 11.2001 20.1193 11.3175 20.2272 11.4064C20.3351 11.4954 20.5093 11.5683 20.7497 11.6251L21.4427 11.7842C21.844 11.8769 22.1432 12.0199 22.3401 12.213C22.537 12.4061 22.6354 12.6569 22.6354 12.9656C22.6354 13.2268 22.5597 13.4597 22.4082 13.6642C22.2587 13.8667 22.0495 14.0258 21.7806 14.1413C21.5137 14.2568 21.2041 14.3145 20.852 14.3145C20.3635 14.3145 19.965 14.2104 19.6564 14.0021C19.3478 13.792 19.1584 13.4938 19.0884 13.1075L19.9091 12.9826C19.9602 13.1965 20.0653 13.3584 20.2243 13.4682C20.3834 13.5761 20.5907 13.6301 20.8463 13.6301C21.1246 13.6301 21.3471 13.5723 21.5137 13.4569C21.6803 13.3395 21.7636 13.1965 21.7636 13.028C21.7636 12.8917 21.7125 12.7772 21.6102 12.6844C21.5099 12.5916 21.3556 12.5216 21.1473 12.4742L20.4089 12.3124C20.0019 12.2196 19.7009 12.0719 19.5059 11.8694C19.3127 11.6668 19.2162 11.4102 19.2162 11.0997C19.2162 10.8423 19.2881 10.617 19.432 10.4238C19.5759 10.2307 19.7747 10.0802 20.0284 9.9723C20.2821 9.86249 20.5727 9.80759 20.9002 9.80759C21.3717 9.80759 21.7427 9.90982 22.0135 10.1143C22.2842 10.3169 22.4631 10.5886 22.5502 10.9293Z" fill="#FFF1C0"/>
</svg>
