<?xml version="1.0" encoding="utf-8"?>
<svg version="1.1" viewBox="0 0 192 192" width="192" height="192" style="stroke:none;stroke-linecap:butt;stroke-linejoin:miter;stroke-width:1;stroke-dasharray:none;fill:#000000;fill-opacity:1;fill-rule:evenodd" font-family="Arial" font-size="15px" xmlns:xlink="http://www.w3.org/1999/xlink" xmlns="http://www.w3.org/2000/svg">
  <path id="Shape" d="M23.672,93.2224C23.261,92.0591 17.9135,92.1408 19.2483,89.6191C20.5831,87.0974 34.6466,67.4636 41.5372,67.4606C48.4278,67.4576 56.8382,90.5327 62.6983,91.2973C68.5585,92.0618 77.2578,72.1763 86.1027,72.795C94.9476,73.4137 93.7897,85.9455 96.5147,93.9288C99.2396,101.9121 114.6274,71.3364 123.9548,72.1012C133.2822,72.8661 143.3025,96.975 155.5472,100.6279C167.7918,104.2808 176.9111,95.623 178.7652,98.6627C180.6193,101.7023 172.6144,108.3288 163.951,114.4776C155.2876,120.6264 146.9433,127.1906 137.9665,123.0581C128.9896,118.9255 116.7472,101.5057 110.8035,96.5107C104.8597,91.5157 88.3497,123.3938 78.5957,124.8929C68.8416,126.392 71.7926,103.2228 68.7927,97.8185C65.7927,92.4142 50.1265,131.3861 42.7297,120.847C35.3329,110.308 30.3628,94.396 23.672,93.2224z" style="stroke:#000000;stroke-width:0.25;" />
</svg>