<svg width="24" height="24" viewBox="0 0 24 24" fill="none" xmlns="http://www.w3.org/2000/svg">
<path d="M20.3001 6.68744C19.2271 5.61046 17.7716 4.93851 16.1508 4.93851H9.95756C6.67475 4.93851 4.02213 7.67934 4.02213 11.0699C4.02213 11.6568 4.10448 12.2326 4.25904 12.7868C4.53773 13.7571 5.04379 14.6634 5.75633 15.3889L11.764 21.7337C11.8875 21.8718 12.0218 22 12.2796 22C12.5278 22 12.7958 21.8718 12.7958 21.5309V17.2014H16.0577C19.3095 17.2014 22.0343 14.5358 22.0862 11.1766C22.1173 9.41718 21.4256 7.82853 20.3001 6.68744Z" fill="#FFF1C0"/>
<path d="M2.52098 11C2.59518 6.81067 5.83125 3.44594 9.82268 3.44594H15.8248C16.9676 3.44594 18.0431 3.72351 19 4.2128C17.8854 2.85498 16.241 2 14.4073 2H8.07179C4.71356 2 2 4.86152 2 8.40285C2 9.32612 2.18778 10.2068 2.52098 11Z" fill="#FFF1C0"/>
</svg>
