<svg width="24" height="24" viewBox="0 0 24 24" fill="none" xmlns="http://www.w3.org/2000/svg">
<path fill-rule="evenodd" clip-rule="evenodd" d="M3.10645 10.7356C3.32034 11.3947 3.51152 11.9108 3.53121 11.8825C3.55096 11.8541 3.73817 11.3074 3.94728 10.6676L4.3275 9.50439L5.19441 9.50391L6.06137 9.50344L6.04691 11.9827L6.0325 14.4619L5.41479 14.481L4.79709 14.5L4.78229 12.9631L4.7675 11.4261L4.3506 12.944L3.93364 14.4619L3.5256 14.4808L3.1175 14.4998L2.69449 12.9967L2.27149 11.4936L2.26825 12.9946L2.265 14.4956H1.6325H1V11.9978V9.5L1.85877 9.51862L2.71748 9.53717L3.10645 10.7356ZM9.8 10.0094V10.5154H8.81H7.82V10.9876V11.4598H8.81H9.8V11.9658V12.4718H8.81H7.82V12.9777V13.4837H8.8375H9.855V13.9897V14.4956H8.205H6.555V11.9995V9.50344H8.1775H9.8V10.0094ZM13.8587 9.99254L13.8425 10.4816L13.2512 10.5008L12.66 10.52V12.5078V14.4956H12.0275H11.395V12.5055V10.5154H10.79H10.185V10.0094V9.50344H12.0299H13.8748L13.8587 9.99254ZM17.8238 9.63445C18.1808 9.85789 18.2382 10.0324 18.2582 10.9539C18.2728 11.6307 18.2594 11.8017 18.1766 11.9972C18.0619 12.2679 17.7869 12.4843 17.4913 12.5365L17.2847 12.573L17.7287 13.45C17.973 13.9323 18.185 14.3649 18.1998 14.4113C18.2206 14.4761 18.0602 14.4956 17.5057 14.4956H16.7845L16.386 13.5146L15.9875 12.5335L15.749 12.5533L15.5105 12.573L15.5015 13.5174L15.4925 14.4619H14.86H14.2275L14.2131 11.9827L14.1986 9.50344H15.9065C17.4889 9.50344 17.6297 9.51309 17.8238 9.63445ZM22.5925 9.64133C22.9828 9.87306 23 9.97109 23 11.9658C23 13.9149 22.9805 14.0363 22.6229 14.309C22.4271 14.4584 22.3871 14.4619 20.8825 14.4619C19.1694 14.4619 19.092 14.4442 18.8728 14.0032C18.7734 13.8033 18.7654 13.6535 18.7652 11.9793C18.7649 9.91914 18.7764 9.85229 19.1674 9.63452C19.375 9.51896 19.5426 9.50627 20.8789 9.50492C22.2599 9.50351 22.376 9.51275 22.5925 9.64133ZM15.465 10.9858V11.4598L16.2212 11.4588C16.6372 11.4582 17.0098 11.4326 17.0493 11.402C17.0984 11.3637 17.1157 11.2207 17.1043 10.9476L17.0875 10.5491L16.2762 10.5304L15.465 10.5118V10.9858ZM20.0552 10.5997C20.04 10.6481 20.0343 11.3092 20.0426 12.0688L20.0575 13.45H20.8825H21.7075V11.9995V10.5491L20.8951 10.5304C20.2669 10.516 20.0764 10.5317 20.0552 10.5997Z" fill="#FFF1C0"/>
</svg>
