<?xml version="1.0" encoding="UTF-8"?>
<svg width="24" height="24" fill="none" version="1.1" viewBox="0 0 24 24" xml:space="preserve" xmlns="http://www.w3.org/2000/svg"><defs><style>
            .a {
                fill: none;
                stroke: #b1b5bd;
                stroke-linecap: round;
                stroke-linejoin: round;
                isolation: isolate;
                opacity :0.63;
            }
        </style></defs><path d="m12 2c-1.8835 0-3.4126 1.5291-3.4126 3.4126 0 0.6705 0.19382 1.2962 0.52832 1.8237l-1.8796 1.8794c-0.5275-0.3345-1.153-0.52832-1.8235-0.52832-1.8835 0-3.4126 1.5291-3.4126 3.4126 0 1.8835 1.5291 3.4126 3.4126 3.4126 1.6257 0 2.9875-1.1394 3.3296-2.6626h6.5154c0.08688 0.38675 0.23956 0.74885 0.44556 1.0737l-1.8796 1.8794c-0.5275-0.3345-1.153-0.52832-1.8235-0.52832-1.8835 0-3.4126 1.5292-3.4126 3.4126 0 1.8835 1.5291 3.4126 3.4126 3.4126s3.4126-1.5291 3.4126-3.4126c0-0.6705-0.19382-1.2962-0.52832-1.8237l1.8794-1.8794c0.5275 0.3345 1.1532 0.52832 1.8237 0.52832 1.8835 0 3.4126-1.5291 3.4126-3.4126 0-1.8835-1.5291-3.4126-3.4126-3.4126-1.6257 0-2.9877 1.1394-3.3298 2.6626h-6.5154c-0.08687-0.38675-0.23931-0.74886-0.44531-1.0737l1.8794-1.8794c0.5275 0.3345 1.1532 0.52832 1.8237 0.52832 1.8835 0 3.4126-1.5292 3.4126-3.4126 0-1.8835-1.5291-3.4126-3.4126-3.4126z" clip-rule="evenodd" fill="#000" fill-rule="evenodd" stroke-linejoin="round" stroke-miterlimit="2" stroke-width=".125"/></svg>
