<?xml version="1.0" encoding="UTF-8"?>
<svg width="24" height="24" version="1.1" viewBox="0 0 24 24" xml:space="preserve" xmlns="http://www.w3.org/2000/svg"><path d="m5.0907 13.884a0.5025 0.5025 0 0 1 0.5025-0.5025h3.5175a0.5025 0.5025 0 0 1 0 1.005h-3.5175a0.5025 0.5025 0 0 1-0.5025-0.5025zm-0.87937-1.8844a0.5025 0.5025 0 0 1 0.5025-0.5025h5.2762a0.5025 0.5025 0 0 1 0 1.005h-5.2762a0.5025 0.5025 0 0 1-0.5025-0.5025zm0.87937-1.8844a0.5025 0.5025 0 0 1 0.5025-0.5025h3.5175a0.5025 0.5025 0 0 1 0 1.005h-3.5175a0.5025 0.5025 0 0 1-0.5025-0.5025z"/><path d="m7.4844 6.5996a5.4016 5.4016 0 0 0-5.3008 6.9687 5.4021 5.4021 0 0 0 8.9883 2.252 0.75406 0.75406 0 0 0-1.0664-1.0664 3.8943 3.8943 0 1 1-1.9941-6.5742 3.8943 3.8943 0 0 1 3.1348 3.8203 5.4018 5.4018 0 0 0 1.2266 3.4277 5.4021 5.4021 0 0 0 9.166-1.3613 5.4015 5.4015 0 0 0-1.9902-6.5586 5.4022 5.4022 0 0 0-6.8203 0.67188 0.75406 0.75406 0 0 0 1.0664 1.0664 3.8942 3.8942 0 1 1-1.1406 2.7539 5.4018 5.4018 0 0 0-4.3477-5.2988 5.4016 5.4016 0 0 0-0.92188-0.10156zm8.0273 0.47852a0.38991 0.38714 0 0 1 0.39062 0.38672 0.38991 0.38714 0 0 1-0.39062 0.38672 0.38991 0.38714 0 0 1-0.38867-0.38672 0.38991 0.38714 0 0 1 0.38867-0.38672zm2.123 0a0.38991 0.38714 0 0 1 0.39062 0.38672 0.38991 0.38714 0 0 1-0.39062 0.38672 0.38991 0.38714 0 0 1-0.39062-0.38672 0.38991 0.38714 0 0 1 0.39062-0.38672z"/><path class="cls-3" d="m17.032 12.51a0.79176 0.78613 0 0 0 0.37524-0.91033 0.80427 0.79856 0 0 0-1.0344-0.51789 0.79302 0.78738 0 0 0-0.10757 1.4282 0.12508 0.1242 0 0 1 0.05629 0.15152l-0.44654 1.155a0.12508 0.1242 0 0 1-0.16511 0.07079 2.284 2.2677 0 1 1 1.8762 0 0.12508 0.1242 0 0 1-0.16511-0.06955l-0.44529-1.155a0.12508 0.1242 0 0 1 0.05629-0.15275z" stroke-width=".1733"/><rect transform="matrix(-.70962 .70458 .70962 .70458 0 0)" x="-10.387" y="17.395" width="2.8446" height=".63721" rx=".35759" ry=".35759" stroke-width=".1733"/><rect transform="matrix(.70962 .70458 -.70962 .70458 0 0)" x="12.997" y="-5.9888" width="2.8446" height=".63721" rx=".35759" ry=".35759" stroke-width=".1733"/></svg>
