<?xml version="1.0" encoding="UTF-8"?>
<svg width="24" height="24" version="1.1" viewBox="0 0 24 24" xml:space="preserve" xmlns="http://www.w3.org/2000/svg"><path d="m5.0907 13.884a0.5025 0.5025 0 0 1 0.5025-0.5025h3.5175a0.5025 0.5025 0 0 1 0 1.005h-3.5175a0.5025 0.5025 0 0 1-0.5025-0.5025zm-0.87937-1.8844a0.5025 0.5025 0 0 1 0.5025-0.5025h5.2762a0.5025 0.5025 0 0 1 0 1.005h-5.2762a0.5025 0.5025 0 0 1-0.5025-0.5025zm0.87937-1.8844a0.5025 0.5025 0 0 1 0.5025-0.5025h3.5175a0.5025 0.5025 0 0 1 0 1.005h-3.5175a0.5025 0.5025 0 0 1-0.5025-0.5025z"/><path d="m8.1117 8.1807a3.8943 3.8943 0 1 0 1.9939 6.5732 0.75381 0.75381 0 0 1 1.066 1.066 5.4021 5.4021 0 0 1-8.9889-2.2517 5.4016 5.4016 0 0 1 6.223-6.8661 5.4018 5.4018 0 0 1 4.348 5.2981 3.8942 3.8942 0 1 0 1.1407-2.7537 0.75381 0.75381 0 0 1-1.066-1.066 5.4022 5.4022 0 0 1 6.8209-0.67171 5.4015 5.4015 0 0 1 1.9895 6.5586 5.4021 5.4021 0 0 1-9.1664 1.3598 5.4018 5.4018 0 0 1-1.2261-3.4269 3.8943 3.8943 0 0 0-3.1346-3.8195z" clip-rule="evenodd" fill-rule="evenodd"/><path d="m14.725 12.141 2.0369 0.78362 2.0369-0.78362" fill="none" stroke="#000" stroke-linecap="round" stroke-linejoin="round" stroke-width=".73994"/><path d="m14.725 13.233 2.0369 0.78362 2.0369-0.78362" fill="none" stroke="#000" stroke-linecap="round" stroke-linejoin="round" stroke-width=".73994"/><path d="m14.724 10.855 2.0369 0.78362 2.0369-0.78362-2.0369-0.78781z" stroke="#000" stroke-linecap="round" stroke-linejoin="round" stroke-width=".90764"/></svg>
