<?xml version="1.0" encoding="UTF-8"?>
<svg width="24" height="24" fill="none" version="1.1" viewBox="0 0 24 24" xml:space="preserve" xmlns="http://www.w3.org/2000/svg"><defs><style>.cls-1,.cls-2{fill:none;}.cls-2{stroke:#000;stroke-linecap:round;stroke-miterlimit:10;stroke-width:12px;}</style></defs><path d="m3.875 3c-0.48475 0-0.875 0.39025-0.875 0.875v16.25c0 0.48475 0.39025 0.875 0.875 0.875h16.25c0.48475 0 0.875-0.39025 0.875-0.875v-16.25c0-0.48475-0.39025-0.875-0.875-0.875zm2 2.75h12.25a0.75 0.75 0 0 1 0.75 0.75 0.75 0.75 0 0 1-0.75 0.75h-12.25a0.75 0.75 0 0 1-0.75-0.75 0.75 0.75 0 0 1 0.75-0.75zm0 3h12.25a0.75 0.75 0 0 1 0.75 0.75 0.75 0.75 0 0 1-0.75 0.75h-12.25a0.75 0.75 0 0 1-0.75-0.75 0.75 0.75 0 0 1 0.75-0.75zm0 3h4.875a0.75 0.75 0 0 1 0.75 0.75 0.75 0.75 0 0 1-0.75 0.75h-4.875a0.75 0.75 0 0 1-0.75-0.75 0.75 0.75 0 0 1 0.75-0.75z" fill="#000" mask="url(#a)"/></svg>
