<svg width="24" height="24" viewBox="0 0 24 24" fill="none" xmlns="http://www.w3.org/2000/svg">
<path d="M3.51069 6.30594H20.4893C21.3678 6.30594 22.08 7.01814 22.08 7.89667V15.6754C22.08 16.5539 21.3678 17.2661 20.4893 17.2661H14.7835C14.5131 17.2661 14.294 17.4852 14.294 17.7556C14.294 18.0259 14.5131 18.245 14.7835 18.245H20.4893C21.9085 18.245 23.0589 17.0945 23.0589 15.6754V7.89667C23.0589 6.4775 21.9085 5.32703 20.4893 5.32703H3.51069C2.09151 5.32703 0.94104 6.4775 0.94104 7.89667V15.6754C0.94104 17.0945 2.09151 18.245 3.51069 18.245H9.20311C9.47343 18.245 9.69257 18.0259 9.69257 17.7556C9.69257 17.4852 9.47343 17.2661 9.20311 17.2661H3.51069C2.63215 17.2661 1.91995 16.5539 1.91995 15.6754V7.89667C1.91995 7.01814 2.63215 6.30594 3.51069 6.30594Z" fill="#FFF1C0"/>
<path fill-rule="evenodd" clip-rule="evenodd" d="M9.63729 11.2567C9.63729 11.6442 9.58663 11.9973 9.4853 12.3161C9.38398 12.6325 9.22957 12.9054 9.02209 13.1347C8.81703 13.364 8.55647 13.5405 8.24042 13.6643C7.92438 13.7859 7.55043 13.8466 7.11858 13.8466C6.68673 13.8466 6.31279 13.7859 5.99674 13.6643C5.6807 13.5405 5.41893 13.364 5.21145 13.1347C5.00639 12.9054 4.85319 12.6313 4.75186 12.3126C4.65053 11.9939 4.59987 11.6396 4.59987 11.2498C4.59987 10.7293 4.68914 10.2765 4.86766 9.89124C5.04861 9.50373 5.32605 9.20335 5.7 8.9901C6.07394 8.77686 6.54922 8.67023 7.12582 8.67023C7.70001 8.67023 8.17167 8.77686 8.54079 8.9901C8.91232 9.20335 9.18735 9.50373 9.36588 9.89124C9.54682 10.2788 9.63729 10.7339 9.63729 11.2567ZM5.77599 11.2567C5.77599 11.6075 5.82183 11.9102 5.91351 12.1647C6.0076 12.417 6.15356 12.6119 6.35139 12.7494C6.54922 12.8847 6.80495 12.9524 7.11858 12.9524C7.43704 12.9524 7.69518 12.8847 7.89301 12.7494C8.09084 12.6119 8.23439 12.417 8.32366 12.1647C8.41533 11.9102 8.46117 11.6075 8.46117 11.2567C8.46117 10.7293 8.35743 10.3143 8.14995 10.0116C7.94247 9.70895 7.60109 9.55761 7.12582 9.55761C6.80977 9.55761 6.55163 9.6264 6.35139 9.76398C6.15356 9.89927 6.0076 10.0942 5.91351 10.3487C5.82183 10.6009 5.77599 10.9036 5.77599 11.2567Z" fill="#FFF1C0"/>
<path d="M12 18.673C12.5326 18.673 12.9644 18.2412 12.9644 17.7086C12.9644 17.1759 12.5326 16.7441 12 16.7441C11.4674 16.7441 11.0356 17.1759 11.0356 17.7086C11.0356 18.2412 11.4674 18.673 12 18.673Z" fill="#FFF1C0"/>
<path d="M12 10.3147V9.67293H15.3718V10.3147H14.0656V13.8991H13.3062V10.3147H12Z" fill="#FFF1C0"/>
<path d="M16.3276 9.67293L17.4275 12.9994H17.4708L18.5687 9.67293H19.4106L17.9207 13.8991H16.9756L15.4878 9.67293H16.3276Z" fill="#FFF1C0"/>
<path d="M11.0054 14.9599H9.51201V14.6371L10.022 14.0801C10.1331 13.966 10.2222 13.8709 10.2893 13.7948C10.3573 13.7178 10.4064 13.6477 10.4364 13.5846C10.4674 13.5216 10.483 13.454 10.483 13.3819C10.483 13.2949 10.4584 13.2298 10.4094 13.1868C10.3614 13.1427 10.2968 13.1207 10.2157 13.1207C10.1306 13.1207 10.0481 13.1402 9.968 13.1793C9.88926 13.2177 9.70792 13.307 9.60952 13.3627V12.9114C9.67857 12.8661 9.82162 12.8063 9.91094 12.7784C10.005 12.7484 10.1176 12.7334 10.2488 12.7334C10.3929 12.7334 10.5165 12.7594 10.6196 12.8114C10.7237 12.8635 10.8038 12.9345 10.8598 13.0246C10.9159 13.1137 10.9439 13.2148 10.9439 13.3279C10.9439 13.449 10.9199 13.5596 10.8718 13.6597C10.8238 13.7598 10.7537 13.8589 10.6616 13.957C10.5705 14.0551 10.4604 14.1637 10.3313 14.2828L10.0491 14.5485V14.5695H11.0054V14.9599Z" fill="#FFF1C0"/>
</svg>
