<svg xmlns="http://www.w3.org/2000/svg" viewBox="0 0 1.1161698 1.1112012"><path d="M.56135634.10599499c-.027921.00007552-.0557604.002895-.0827544.00805-.0337184.005572-.0617237.0144844-.0988649.0234231-.0840132.0362643-.14913126.0909427-.20514002.16349946-.19540834.27283053-.0188378.65505006.30742739.70022486.0537175.00727.1074359.00447.15826803-.00724l.0360083-.00948c.001131-.0005658.002859-.00113.00399-.00113l.0411575-.015614c.002263-.00113.003989-.0017.00628-.0028l.0171408-.00781a.46928646.46928646 0 0 0 .0919916-.0596891.52552163.52552163 0 0 1-.0834199.0619211l.001699.00113c.005742-.0017.0108612-.00337.0165755-.00448 0 0-.00000167.00891-.001133.00724-.009137.0067.00515.0005654.0234231-.00894.0183019-.00948.0360107-.021215.0519929-.034595.0234502-.019518.044014-.0407361.0731498-.0753031.029702-.051907.066871-.0971087.084013-.1579263.00572-.0161803.010836-.0351342.014286-.0546805.00339-.0195182.00571-.0396014.00571-.0602512-.0005658-.0206497-.00286-.0418656-.00744-.0680597-.0017-.022347-.00744-.0519079-.01601-.0803365A.4074504.4074504 0 0 0 .91001059.265242C.88828637.24182011.86373382.22003823.82713023.19438159a1.3969688 1.3969688 0 0 1-.082261-.0440713C.72716143.1402681.70600353.12796348.67802746.11905298a.48280779.48280779 0 0 0-.10115679-.0128139.4207603.4207603 0 0 0-.0155143-.00024409zm-.00011881.0257587c.0230161-.0000248.0463802.00183.0699462.005714.0371412.008939.0742827.0184131.11201789.0273519.0468436.0183867.0931223.0457424.13026359.0820349.0371409.036236.0651435.0820029.0931478.12717765.018839.0362925.028004.0820334.037142.11829765.0017.0206496.0017.0418652 0 .0625147l-.0000283-.00002825C.99970673.29259372.73859078.11571384.48431666.15144064c-.0742823.0183867-.15544044.0552165-.21314643.10655778-.0280044.0183867-.0411294.0524458-.0691338.0797713-.11201748.1635003-.0925558.37274102.0468438.49997704a.54048562.54048562 0 0 0 .0571395.049107C.189476.81706976.13688995.71158706.11861639.58330434c0-.0457687.009137-.0909723.0188392-.13671291C.19575569.26738972.36603192.1319641.56123753.13175369Zm-.001479.0661146c.063766-.00003027.12608144.0117174.18338701.0394823.11201752.0635897.18630069.16349987.20513999.28174055v.1093868C.92486333.80759286.77058141.94373981.59288092.96215491.69287632.94651211.77686417.89129466.84543249.81596576.86429998.78861209.87914918.76349432.89742281.73616884.92027883.68035807.91858133.63071397.92599263.59558123.93515813.53193494.91343268.48062001.89515914.42594075.86715474.36232269.83001539.31491416.76486987.27808414.60029465.17653295.37631508.20496113.26947415.35675053c-.00056575 0-.003451.003904-.009166.0117114.00744-.0312291.026306-.0496451.0451453-.0675226.0560088-.0457405.1211554-.0820332.19543776-.0998541.0196906-.002096.0393458-.003208.0588673-.003217zm.001619.15295184c.0404183-.00018132.0816335.0108579.1189143.0354893.0354439.0251191.0622866.0546803.0805883.0926417.004554.0172835.009137.0295616.0119942.0451762l.00002826.00002826c.003451.0145114.004583.0295873.005149.0452018a.26276081.26276081 0 0 1-.005714.0463066c-.004017.0128424-.009732.0223191-.0142862.0306921-.004582.008373-.005711.0178781-.0154424.0368306-.0119654.016746-.0274123.0295867-.0382746.0396003a.19835061.19835061 0 0 1-.0754419.0424319.23478467.23478467 0 0 1-.0382721.007778c-.0125595.002263-.0228576.003397-.0325602.003397-.0102968 0-.0194325-.00056659-.0291351-.002263-.009166-.001669-.0183008-.003876-.0263061-.006139-.0291359-.007808-.0513993-.0245534-.0765748-.0373676-.0171421-.0128424-.0274106-.0223199-.0371414-.0329275-.006846-.007241-.0125583-.0150759-.0171408-.0234489-.00512-.008344-.007979-.0144847-.004556-.0106089-.00116.00056574.003422.00056801.003422.00056801-.001131-.003338-.005713-.005573-.006844-.008911l.00113-.001133c.008571.013974.021132.0262245.0325602.0379637C.35976698.64859157.33863497.59167533.34604623.53252663.35999366.42503418.45808581.35128376.56137753.35082013Zm-.0118529.0114494c-.001362.00000134-.002722.00001861-.00408.00005404-.0616945.009504-.11311953.0424012-.14514071.0892731a.27138844.27138844 0 0 1 .0234489-.0273236c.0599973-.0652869.16511454-.0753309.24454513-.0256867.0131253.0128424.030862.0206505.0399987.0334929.0222904.0295602.0405616.059149.0497266.0931787.0188393.11662835-.0680016.23433133-.19486989.23769752.0102968.00053746.0222892.005009.0325858.003878.0177078-.004441.0394348-.008911.0565768-.0178218.0216964-.0128424.04342-.0262224.060562-.0435343.0171421-.0172835.029701-.0390383.0382721-.0602537.004017-.0173118.008034-.0340284.0119942-.0513402v.00002828C.77858876.49122827.70716266.39858709.61115572.36959265c-.0203403-.00366-.0412021-.007343-.0616311-.007323zm.087346.0580979c.0565745.0474094.11600594.12327659.0657394.20530961-.0171703.0301542-.0526145.0820335-.0840135.0931787-.0291359.0106079-.0394332.020651-.0554437.0234514.006308-.00056574.013153-.00056774.0194328-.00056774.0565745-.009477.10401276-.0440696.13371438-.0959485.016548-.0340578.020565-.072558.0154167-.11105691-.009137-.0340295-.0274106-.0635887-.049701-.0887078-.009137-.008373-.0182745-.0167475-.0331536-.0200855.0102968.007241.007441.005572-.0119915-.005573zm-.2702582.16067309c.009137.082033.0760075.15289313.16284936.16180363v.00002827h.0125595c-.0217246-.003903-.0348493-.012843-.0571395-.0212161-.0131537-.008373-.0325596-.0200837-.0457133-.0284567-.0371413-.0312573-.0645792-.0663903-.0725561-.1121591z"/></svg>