<svg width="24" height="24" viewBox="0 0 24 24" fill="none" xmlns="http://www.w3.org/2000/svg">
<path fill-rule="evenodd" clip-rule="evenodd" d="M5.5 11.548C5.5 12.9287 4.38071 14.048 3 14.048C1.61929 14.048 0.5 12.9287 0.5 11.548C0.5 10.1673 1.61929 9.048 3 9.048C4.38071 9.048 5.5 10.1673 5.5 11.548ZM4.5 11.548C4.5 12.3764 3.82843 13.048 3 13.048C2.17157 13.048 1.5 12.3764 1.5 11.548C1.5 10.7196 2.17157 10.048 3 10.048C3.82843 10.048 4.5 10.7196 4.5 11.548Z" fill="#FFF1C0"/>
<path d="M6.44756 10.3701H8.48863L6.62346 12.8693H6.62002L5.78484 13.9762H10.112C10.4176 13.9762 10.6654 13.7284 10.6654 13.4228C10.6654 13.1171 10.4176 12.8693 10.112 12.8693H8.04581L9.93951 10.3701L10.7747 9.26321H6.44756C6.14191 9.26321 5.89412 9.511 5.89412 9.81665C5.89412 10.1223 6.14191 10.3701 6.44756 10.3701Z" fill="#FFF1C0"/>
<path d="M19.8939 11.5493V13.5904C19.8939 13.896 19.6461 14.1438 19.3405 14.1438C19.0348 14.1438 18.787 13.896 18.787 13.5904V9.26323L19.8939 10.0984L22.3931 11.9921V9.92595C22.3931 9.6203 22.6409 9.37252 22.9466 9.37252C23.2522 9.37252 23.5 9.6203 23.5 9.92595V14.2531L22.3931 13.4179V13.4145L19.8939 11.5493Z" fill="#FFF1C0"/>
<path fill-rule="evenodd" clip-rule="evenodd" d="M18.047 11.548C18.047 12.9287 16.4651 14.048 14.5139 14.048C12.5626 14.048 10.9808 12.9287 10.9808 11.548C10.9808 10.1673 12.5626 9.048 14.5139 9.048C16.4651 9.048 18.047 10.1673 18.047 11.548ZM17.047 11.548C17.047 11.8274 16.8885 12.1783 16.4345 12.4995C15.9831 12.8189 15.3072 13.048 14.5139 13.048C13.7206 13.048 13.0447 12.8189 12.5933 12.4995C12.1393 12.1783 11.9808 11.8274 11.9808 11.548C11.9808 11.2686 12.1393 10.9177 12.5933 10.5965C13.0447 10.2771 13.7206 10.048 14.5139 10.048C15.3072 10.048 15.9831 10.2771 16.4345 10.5965C16.8885 10.9177 17.047 11.2686 17.047 11.548Z" fill="#FFF1C0"/>
</svg>
