<?xml version="1.0" encoding="UTF-8"?>
<svg width="24" height="24" fill="none" version="1.1" viewBox="0 0 24 24" xml:space="preserve" xmlns="http://www.w3.org/2000/svg"><style type="text/css">
	.st0{fill:#FFFFFF;}
</style><style type="text/css">
	.st0{fill:#FFFFFF;}
</style><style type="text/css">
	.st0{fill:#FFFFFF;}
</style><path d="m12 2a10 10 0 0 0-10 10 10 10 0 0 0 10 10 10 10 0 0 0 10-10 10 10 0 0 0-10-10zm-0.4707 5.3535h0.94141c0.46969 0 0.84766 0.37796 0.84766 0.84766v7.5977c0 0.46969-0.37796 0.84766-0.84766 0.84766h-0.94141c-0.46969 0-0.84766-0.37796-0.84766-0.84766v-7.5977c0-0.46969 0.37796-0.84766 0.84766-0.84766zm4.2812 1.7383h0.94141c0.46969 0 0.84766 0.37796 0.84766 0.84766v5.8594c0 0.46969-0.37796 0.84766-0.84766 0.84766h-0.94141c-0.46969 0-0.84766-0.37796-0.84766-0.84766v-5.8594c0-0.46969 0.37796-0.84766 0.84766-0.84766zm-8.6074 4.918c0.01449-7.3e-4 0.030244 0 0.044922 0h0.94141c0.46969 0 0.84766 0.37796 0.84766 0.84766v0.94141c0 0.46969-0.37796 0.84766-0.84766 0.84766h-0.94141c-0.46969 0-0.84766-0.37796-0.84766-0.84766v-0.94141c0-0.45502 0.35353-0.82503 0.80273-0.84766z" fill="#000" stroke-width="1.5"/></svg>
