<?xml version="1.0" encoding="UTF-8"?>
<svg width="24" height="24" fill="none" version="1.1" viewBox="0 0 24 24" xml:space="preserve" xmlns="http://www.w3.org/2000/svg"><path d="m15.055 17.405h-6.1081a1 1 135 0 0-1 1v2.3243a1 1 45 0 0 1 1h6.1081a1 1 135 0 0 1-1v-2.3243a1 1 45 0 0-1-1z" fill="#000" stroke-linecap="round" stroke-linejoin="round"/><path d="m3 9.8916a1 1 0 0 0-1 1v7.5957a1 1 0 0 0 1 1h1.7852a1 1 0 0 0 1-1v-3.541a1 1 0 0 1 1-1h10.432a1 1 0 0 1 1 1v3.541a1 1 0 0 0 1 1h1.7832a1 1 0 0 0 1-1v-7.5957a1 1 0 0 0-1-1zm16.945 1.1328a1.1235 1.1235 0 0 1 1.123 1.123 1.1235 1.1235 0 0 1-1.123 1.123 1.1235 1.1235 0 0 1-1.123-1.123 1.1235 1.1235 0 0 1 1.123-1.123z" fill="#000"/><path d="m6.4604 3.2705v4.4865a1 1 45 0 0 1 1h9.216a1 1 135 0 0 1-1v-4.4865a1 1 45 0 0-1-1h-9.216a1 1 135 0 0-1 1z" fill="#000"/></svg>
