<?xml version="1.0" encoding="UTF-8"?>
<svg width="24" height="24" fill="none" version="1.1" viewBox="0 0 24 24" xml:space="preserve" xmlns="http://www.w3.org/2000/svg"><defs><style>.cls-1,.cls-2{fill:none;}.cls-2{stroke:#000;stroke-linecap:round;stroke-miterlimit:10;stroke-width:12px;}</style></defs><path d="m14.863 15.039c0.4824-1.0351 0.71179-2.433 0.71179-4.1657 0-4.3271-2.8116-5.6774-4.5667-5.6774-1.7551 0-4.5128 1.3502-4.5128 5.6772 0 0.98641 0.29333 2.3949 0.88364 3.319 2.3091-2.1503 5.8997-1.4425 7.4841 0.84684zm-4.4119 3.8632c-3.9523-0.32989-7.7475-3.4731-7.7475-8.0292 0-4.8585 3.8243-8.1689 8.3046-8.1689 4.4803 0 8.3353 3.2865 8.3353 8.169 0 2.716-1.282 4.9229-3.1454 6.3493 0.60212 0.89181 1.2218 1.4839 2.085 1.4839 0.94181 0 1.3517-0.64848 2.0286-1.2128 1.7628 0 1.3369 3.803-2.8171 3.803-4.718 0-4.528-6.6556-8.452-5.2115 1.0816 1.2791 1.4559 2.1652 1.4086 2.8171z" fill="#000" stroke="#000" stroke-linecap="round" stroke-linejoin="round" stroke-width="1.5075"/></svg>
