<?xml version="1.0" encoding="UTF-8"?>
<svg width="24" height="24" version="1.1" viewBox="0 0 24 24" xmlns="http://www.w3.org/2000/svg">
 <path d="m9.0591 8.1214s1.8883-5.6224 3.2403-5.6224c1.2447 0 3.1772 5.6649 3.1772 5.6649s6.0136 0.00781 6.4175 1.2325c0.49686 1.5067-4.42 4.8025-4.42 4.8025z" stroke-width=".99999"/>
 <path d="m16.928 14.735s1.7285 5.5688 0.86245 6.4349c-0.96681 0.96682-6.1749-2.7799-6.1749-2.7799l-5.0151-3.74s-4.9247-3.2024-4.5042-4.7714c0.33235-1.2403 6.4168-1.2211 6.4168-1.2211z" stroke-width=".99999"/>
 <path d="m5.8418 14.993s-1.9738 5.7066-0.9775 6.4601c1.1982 0.90609 5.9925-2.7201 5.9925-2.7201z" stroke-width=".99999"/>
</svg>
