<svg width="24" height="24" viewBox="0 0 24 24" fill="none" xmlns="http://www.w3.org/2000/svg">
<path d="M19.0262 5.42864C19.0161 5.41792 16.9801 5.10406 14.5019 4.73115C12.0236 4.3582 9.94198 4.04117 9.87601 4.02655L9.75607 4L9.44627 6.32856C9.27591 7.60929 9.11773 8.82811 9.1044 8.89881C9.1044 8.89881 9.50683 8.95642 9.90236 9.01552C9.91171 9.00568 10.0349 8.10132 10.1762 7.00583C10.3175 5.91034 10.4434 5.00316 10.456 4.98991C10.4763 4.96862 18.0737 6.09802 18.1128 6.12813C18.1213 6.1347 18.0508 6.75653 17.9562 7.50995C17.8616 8.26342 17.7934 8.88958 17.8047 8.90141C17.8349 8.93328 18.5374 9.03847 18.5601 9.01459C18.5887 8.98448 19.048 5.45149 19.0262 5.42864Z" fill="#FFF1C0"/>
<path d="M8.65346 5.4416L8.68021 4.58899H5.20461V8.97386H5.99829C5.99829 8.97386 5.99159 7.14766 5.99159 6.5423L5.99155 5.4416H8.65346Z" fill="#FFF1C0"/>
<path fill-rule="evenodd" clip-rule="evenodd" d="M3.20761 9.21976C3.75244 9.31281 4.17019 9.63345 4.37897 10.1188C4.46109 10.3097 4.48396 10.452 4.4847 10.7765C4.48549 11.143 4.47017 11.2201 4.35156 11.4466C4.2068 11.7231 4.05547 11.8657 3.71165 12.0493L3.49176 12.1668L4.37008 13.3109C4.8532 13.9401 5.249 14.4714 5.24965 14.4915C5.27973 14.5267 5.30178 14.5568 5.31646 14.5825H4.07378L3.16771 13.4078C2.42808 12.4415 2.29392 12.2887 2.18397 12.2879L2.05667 12.2869V14.5825H1.01358L1.00303 11.8971C0.996414 10.4635 1.001 9.26317 1.01317 9.22965C1.04123 9.15242 2.76773 9.14468 3.20761 9.21976ZM2.05667 10.1811V11.3206H2.95247C3.09633 11.3206 3.23068 11.2487 3.31047 11.129C3.5337 10.8658 3.46824 10.4359 3.18275 10.2903C3.1078 10.2521 2.83953 10.2145 2.55432 10.2024L2.05667 10.1811Z" fill="#FFF1C0"/>
<path d="M9.04695 14.5825H10.0631L10.074 13.3466C10.0866 12.3199 10.0995 12.144 10.1718 12.0046C10.391 11.582 10.9792 11.5283 11.1876 11.9118C11.2284 11.9867 11.2528 12.3925 11.269 13.2613L11.2869 14.5825H12.296V13.3725C12.3123 12.0829 12.3438 11.9297 12.631 11.7454C12.8066 11.6327 13.11 11.6266 13.2542 11.733C13.476 11.8964 13.5066 12.0768 13.528 13.3466V14.5825H14.4945L14.5096 13.2715C14.5096 11.9089 14.4744 11.6296 14.2573 11.2676C13.8376 10.568 12.8521 10.47 12.2809 11.0712L12.0626 11.3009L11.9143 11.1065C11.8302 10.9965 11.6632 10.8618 11.529 10.7961C11.3573 10.712 11.2158 10.6811 11.0144 10.684C10.6404 10.6892 10.4908 10.7419 10.2603 10.9496L10.0654 11.1252V10.7765H9.04695V14.5825Z" fill="#FFF1C0"/>
<path d="M15.1467 14.5825H16.1552L16.1772 10.7765H15.1577L15.1467 14.5825Z" fill="#FFF1C0"/>
<path d="M16.8705 14.5825H17.8403L17.8512 13.3953C17.865 12.3236 17.8716 12.2513 17.9718 12.0536C18.1132 11.7748 18.3097 11.6539 18.6216 11.6537C18.8307 11.6536 18.8882 11.6745 18.9992 11.7913C19.2016 12.0044 19.2309 12.2101 19.2312 13.4213L19.2314 14.5825H20.2303L20.2399 13.5049C20.2555 12.3131 20.204 11.7794 20.0392 11.4248C19.897 11.1188 19.6229 10.8586 19.3335 10.7548C19.1131 10.6758 18.6453 10.6603 18.4418 10.7253C18.2586 10.7838 18.1091 10.8743 17.97 11.0108L17.8427 11.1358V10.7765H16.8705V14.5825Z" fill="#FFF1C0"/>
<path d="M20.898 14.5825H21.8702V10.7765H20.898V14.5825Z" fill="#FFF1C0"/>
<path fill-rule="evenodd" clip-rule="evenodd" d="M7.4334 10.7769C8.12608 11.0072 8.52758 11.5927 8.57346 12.4394L8.59684 12.8715C7.72749 12.8713 5.93359 12.8715 5.93359 12.8715C5.91869 12.9097 5.95931 13.0525 5.99829 13.1307L6.01469 13.1638C6.17871 13.4976 6.59767 13.6769 7.0375 13.6016C7.32757 13.5519 7.44715 13.493 7.635 13.307L7.77388 13.1696L8.05164 13.3903C8.20441 13.5116 8.37107 13.6431 8.42199 13.6824C8.51129 13.7513 8.50439 13.764 8.22909 14.0385C7.81476 14.4516 7.60453 14.5594 6.89453 14.5625C6.35957 14.5648 6.27926 14.5464 5.98858 14.3959C5.61227 14.201 5.29479 13.8767 5.12582 13.5146C5.00583 13.2574 4.95703 13.1901 4.95703 12.6484C4.95703 12.1436 5.01064 12.0349 5.10133 11.8279C5.50552 10.9055 6.48814 10.4626 7.4334 10.7769ZM6.38143 11.6484C6.18954 11.7402 5.97266 12.0501 5.97266 12.1668H7.56547C7.56533 12.14 7.52446 11.9973 7.4746 11.9112C7.28461 11.5833 6.77446 11.4606 6.38143 11.6484Z" fill="#FFF1C0"/>
<path d="M5.96845 15.7704L5.99474 16.8179H7.24151V17.6462H5.20461V15.7704H5.96845Z" fill="#FFF1C0"/>
<path d="M8.904 16.0674C8.91446 16.078 8.8796 16.5028 8.8796 16.5028C8.83812 16.9 8.84044 16.9199 8.92997 16.9407C8.98158 16.9527 10.71 17.2149 12.7709 17.5234C15.2697 17.8975 16.528 18.0673 16.548 18.0334C16.5644 18.0053 16.6262 17.6338 16.6853 17.2077C16.7444 16.7816 16.8069 16.409 16.8241 16.3797L17.5586 16.5195L17.4069 17.7275C17.3108 18.4197 17.2265 18.9922 17.2196 18.9998C17.2034 19.0174 8.02044 17.6467 7.98063 17.6208C7.96438 17.6102 8.10733 16.4437 8.16608 16.0205L8.904 16.0674Z" fill="#FFF1C0"/>
<path d="M15.6447 10.227L15.2971 9.46218L14.5323 9.11453L15.2971 8.76688L15.6447 8.00204L15.9924 8.76688L16.7572 9.11453L15.9924 9.46218L15.6447 10.227Z" fill="#FFF1C0"/>
<path d="M21.387 9.74438C21.7525 9.74438 22.0488 9.44806 22.0488 9.08252C22.0488 8.71698 21.7525 8.42065 21.387 8.42065C21.0214 8.42065 20.7251 8.71698 20.7251 9.08252C20.7251 9.44806 21.0214 9.74438 21.387 9.74438Z" fill="#FFF1C0"/>
</svg>
