<svg xmlns="http://www.w3.org/2000/svg" xml:space="preserve" viewBox="0 0 24 24"><path d="M2.5541447 7.4375C2.2479478 7.4375 2 7.68575 2 7.9919467c0 .3056813.2477081.5536291.5533896.5541446l4.3248754.00644c.8871459 0 1.6039204.7435514 1.5595889 1.6402347-.041239.838948-.765224 1.483071-1.6049453 1.483071H5.4021903l2.1426287 2.423275h1.486646L7.7347527 12.66321c1.0580285-.230421 1.8511083-1.170919 1.8511083-2.298281v-.573472c0-1.3000479-1.0539087-2.353957-2.3539564-2.353957ZM3.30522 9.57137c-.4698626 0-.8825339.267532-1.0771288.698218-.1966565.435068-.1226665.927596.1925512 1.285083l2.2564984 2.553456h1.4451656l-2.0698873-2.34258-.9841-1.109849h.2160098c.00824-.0013.015478-.0018.020891-.0018h3.6655702c.2989798 0 .5415091-.242272.5415091-.54151 0-.299239-.2422774-.541006-.5412576-.541006z"/><path d="M19.586742 9.5394037c-1.234839 0-2.239231.8899853-2.239231 2.4119473 0 1.329947 1.00465 2.41195 2.239231 2.41195.497905 0 .95823-.176188 1.330492-.473449v.688654c0 .496924-.518612.90109-1.156264.90109-.472956 0-.906702-.233542-1.079646-.580978l-.969401.482512c.357231.717551 1.161385 1.181232 2.049047 1.181232 1.224921 0 2.222729-.876492 2.238276-1.958334H22V9.548407h-1.082766v.464342c-.372276-.297206-.832635-.4733453-1.330492-.4733453Zm0 1.0827663c.637652 0 1.156214.596167 1.156214 1.329181 0 .733018-.518562 1.329182-1.156214 1.329182-.637652 0-1.156213-.596164-1.156213-1.329182 0-.733014.518561-1.329181 1.156213-1.329181z"/><path d="M14.818521 9.5244526c-.621602 0-1.129718.3080454-1.48126.8079094v-.783947h-1.082767v4.529809h1.082767v-2.141622l.000301-.000201c0-.733017.631196-1.399009 1.156215-1.437413.537392-.05155 1.156213.218316 1.156213 1.329181v2.250055h1.082767v-2.264755h-.000253c-.005-1.322358-.683988-2.2890176-1.913983-2.2890164z"/><path d="M10.305468 9.548429h1.082773v4.529809h-1.082773z"/><path d="M10.842602 8.9966036c-.09588 0-.187636-.018299-.275012-.054899-.08739-.0366-.163664-.087373-.228358-.1523254-.06496-.064693-.115468-.139696-.152068-.2242352-.03685-.084797-.0549-.1775841-.0549-.2791343 0-.10155.0183-.194595.0549-.2791342.0366-.08454.08739-.1592845.152068-.2242353.06497-.064693.140985-.1154684.228358-.1523252.08739-.036599.178874-.054899.275012-.054899.19743 0 .366509.069075.507751.2072244.140985.1381494.211606.3059393.211606.5033694 0 .1974301-.07062.36522-.211606.5033696-.141242.1384073-.310321.2072242-.507751.2072242"/></svg>