<?xml version="1.0" encoding="UTF-8"?>
<svg width="24" height="24" fill="none" version="1.1" viewBox="0 0 24 24" xml:space="preserve" xmlns="http://www.w3.org/2000/svg"><path d="m9.5213 21.873c-2.2044-0.47045-4.0882-1.7021-5.5459-3.6261-1.4796-1.9529-2.1115-4.1988-1.9511-6.9339 0.50473-4.7038 3.6155-8.0974 7.5614-9.1334 0.34202-0.07501 0.63355-0.26259 0.95193-0.10027 0.24426 0.1244 0.4573 0.33882 0.54664 0.55 0.0948 0.22414 0.1424 1.6339 0.07504 2.2248-0.08159 0.71756-0.29407 0.94193-1.1048 1.1672-2.2546 0.77332-3.6489 2.5842-4.0732 4.6282-0.3641 2.2504 0.22383 4.5306 1.633 5.9715 0.6801 0.68214 1.3592 1.0801 2.3414 1.3719 0.65581 0.19499 1.0159 0.4368 1.1405 0.76626 0.08232 0.21744 0.12362 1.7433 0.05904 2.1824-0.10082 0.68617-0.12905 0.74299-0.4393 0.8849-0.38144 0.17449-0.56158 0.18149-1.1949 0.04629zm3.8464 0.02212c-0.23451-0.10636-0.43033-0.36638-0.51047-0.67812-0.01005-0.7136-0.17948-1.9535 0.07741-2.5313 0.14257-0.31315 0.35266-0.45508 0.94301-0.6369 1.6132-0.49685 2.8515-1.5079 3.5504-2.8986 0.84275-1.677 0.90094-4.1859 0.13716-5.9146-0.69433-1.5719-1.9494-2.6713-3.6831-3.2264-0.67294-0.21542-0.91057-0.38419-0.98363-0.69859-0.076-0.32692-0.1089-1.5072-0.05952-2.1404 0.05172-0.66492 0.09467-0.75777 0.46737-1.0102 0.28073-0.19001 0.41581-0.18553 1.3064 0.04362 2.7852 0.76436 5.004 2.5485 6.2977 5.0579 1.4029 2.8092 1.4556 6.5315 0.13214 9.3035-1.3072 2.7374-3.8374 4.7417-6.7221 5.3245-0.61986 0.12511-0.68798 0.12559-0.95273 0.0059z" fill="#000" stroke-width=".075854"/></svg>
