<?xml version="1.0" encoding="UTF-8"?>
<svg width="24" height="24" version="1.1" viewBox="0 0 24 24" xml:space="preserve" xmlns="http://www.w3.org/2000/svg"><path d="m13.361 10.088c-0.09872 0.0042-0.1854 0.0033-0.28066 0.0059l1.682 0.91408c0.71711 0.3901 0.7368 1.4127 0.03508 1.8301l-1.9022 1.1324h0.86145c1.3163 0.26325 2.0403 1.6459 0.85561 2.6331l-5.3968 5.3967h5.5273l3.0287-3.0287c0.98722-0.98722 1.1839-1.776 1.3156-3.553 0-3.6198-2.7645-5.2647-5.7261-5.3305z" stroke-width=".13163"/><path d="m9.5797 2-3.0202 2.882c-1.2439 1.4994-1.6463 2.3344-1.6463 3.9815 0 3.1881 2.2505 4.8944 4.3311 5.5059l-0.0040692-4.3758c-1.041e-4 -0.14305 0.028056-0.27633 0.075204-0.39836-0.57911-0.60118-0.28945-1.4482 0.6768-2.3109l5.2843-5.2843z" stroke-width=".13726"/><path d="m9.838 10.154c-4.657e-4 -0.61451 0.65687-1.0056 1.1967-0.71195l3.2194 1.751c0.55146 0.29998 0.56664 1.0863 0.02702 1.4073l-3.2166 1.9137c-0.53954 0.32098-1.2233-0.067513-1.2238-0.69539z" stroke-width=".10122"/></svg>
