<?xml version="1.0" encoding="UTF-8"?>
<svg width="24" height="24" fill="none" version="1.1" viewBox="0 0 24 24" xml:space="preserve" xmlns="http://www.w3.org/2000/svg"><path d="m3.6216 5.5135c-0.89554 0-1.6216 0.72608-1.6216 1.6216v9.7297c0 0.89554 0.72608 1.6216 1.6216 1.6216h11.892c0.89554 0 1.6216-0.72608 1.6216-1.6216v-3.7838l4.8649 3.7838v-9.7297l-4.8649 3.7838v-3.7838c0-0.89554-0.72608-1.6216-1.6216-1.6216zm2.027 6.7568h0.81081c0.66676 0 1.2162 0.54932 1.2162 1.2162 0 0.61757-0.47754 1.1147-1.0769 1.1877l0.95809 0.95809a0.40536 0.40536 0 1 1-0.57327 0.57327l-0.92958-0.92958v0.64295a0.40527 0.40527 0 0 1-0.4054 0.40541 0.40514 0.40514 0 0 1-0.40541-0.40541v-3.2432a0.40541 0.40541 0 0 1 0.40541-0.4054zm3.5135 0h1.2162a0.40541 0.40541 0 0 1 0.28663 0.11877 0.40527 0.40527 0 0 1-0.28663 0.69204h-1.2162v0.81081h0.4054a0.40527 0.40527 0 0 1 0.28664 0.11877 0.40527 0.40527 0 0 1-0.28664 0.69204h-0.4054v0.81081h1.2162a0.40527 0.40527 0 0 1 0.28663 0.11877 0.40527 0.40527 0 0 1-0.28663 0.69204h-1.2162c-0.44297 0-0.81081-0.36784-0.81081-0.81081v-2.4324c0-0.44297 0.36784-0.81081 0.81081-0.81081zm3.5135 0h0.81081a0.40514 0.40514 0 0 1 0.28663 0.11877 0.40486 0.40486 0 0 1 0 0.57327c-0.07595 0.07608-0.17907 0.11877-0.28663 0.11877h-0.81081c-0.22865 0-0.40541 0.17676-0.40541 0.4054v1.6216c0 0.22865 0.17676 0.4054 0.40541 0.4054h0.81081a0.40486 0.40486 0 0 1 0.28663 0.11877 0.40486 0.40486 0 0 1 0 0.57327c-0.07595 0.07608-0.17907 0.11877-0.28663 0.11877h-0.81081c-0.66689 0-1.2162-0.54933-1.2162-1.2162v-1.6216c0-0.66689 0.54932-1.2162 1.2162-1.2162zm-6.6216 0.81081v0.81081h0.4054c0.22865 0 0.40541-0.17676 0.40541-0.4054s-0.17676-0.4054-0.40541-0.4054z" fill="#000" stroke-width=".13514"/></svg>
