<?xml version="1.0" encoding="UTF-8"?>
<svg width="24" height="24" fill="none" version="1.1" viewBox="0 0 24 24" xml:space="preserve" xmlns="http://www.w3.org/2000/svg"><path d="m12 1.9472a10.044 10.052 0 0 0-10.044 10.053 10.044 10.052 0 0 0 10.044 10.052 10.044 10.052 0 0 0 10.044-10.052 10.044 10.052 0 0 0-10.044-10.053zm-0.16616 1.547c0.10498-0.00214 0.20987-0.00185 0.31513 0 1.6843 0.030454 3.3209 0.56158 4.7018 1.5264 1.384 0.96741 2.4508 2.3234 3.0654 3.8962 0.616 1.5752 0.75486 3.2972 0.39764 4.9505-0.35762 1.6545-1.1942 3.0903-2.5016 4.3408a0.43648 0.43648 0 0 1-0.61766-0.01378 0.43648 0.43648 0 0 1 0.01376-0.61766c1.2024-1.1501 1.9309-2.4094 2.2518-3.8939 0.32099-1.4856 0.19714-3.0331-0.35639-4.4486-0.5519-1.4123-1.5098-2.6299-2.7526-3.4986-1.2388-0.86552-2.7073-1.3421-4.2182-1.3694-1.5108-0.02665-2.9943 0.39839-4.2629 1.2193v-0.00115c-1.2726 0.82374-2.2729 2.0061-2.874 3.3977-0.60313 1.395-0.78193 2.9378-0.51338 4.4337 0.26349 1.4679 1.1843 3.1399 2.2999 4.154a0.43648 0.43648 0 0 1 0.029794 0.61652 0.43648 0.43648 0 0 1-0.61652 0.02865c-1.2851-1.1682-2.2687-2.9524-2.5726-4.6457-0.29887-1.6648-0.099401-3.3808 0.57183-4.9333 0.66952-1.5499 1.7833-2.8665 3.2006-3.7839 1.3258-0.85792 2.8635-1.3272 4.4382-1.3579zm0.04927 2.6334c0.07269-0.00142 0.146-0.00128 0.21888 0 1.1662 0.02104 2.3007 0.38847 3.2568 1.0566 0.95804 0.66962 1.6957 1.6077 2.1211 2.6964 0.42644 1.0903 0.52239 2.2821 0.27503 3.4264-0.24628 1.1398-0.79881 2.126-1.6318 2.9348a0.43648 0.43648 0 0 1-0.61766-0.0091 0.43648 0.43648 0 0 1 0.0092-0.61766c0.71953-0.69859 1.1746-1.5112 1.3866-2.4924 0.21111-0.97656 0.13017-1.9928-0.23377-2.9233-0.36274-0.9282-0.99269-1.729-1.8095-2.2999v0.00117c-0.81396-0.56878-1.7781-0.88283-2.7709-0.90073-0.99268-0.017469-1.9683 0.26164-2.8018 0.80101-0.83635 0.54142-1.4934 1.3177-1.8885 2.2323-0.39651 0.91699-0.51348 1.9308-0.33691 2.9141 0.17201 0.95879 0.74074 1.9548 1.4359 2.6792a0.43648 0.43648 0 0 1-0.012597 0.61652 0.43648 0.43648 0 0 1-0.61766-0.01262c-0.8033-0.83711-1.4538-1.9511-1.6651-3.1284-0.20691-1.1522-0.06927-2.3404 0.39535-3.4149 0.4635-1.0729 1.234-1.9845 2.2151-2.6196 0.91795-0.59399 1.982-0.91839 3.0723-0.93967zm0.11689 3.4722c0.63645 9.7e-5 1.247 0.2525 1.6971 0.70246 0.45001 0.45001 0.70361 1.0618 0.70361 1.6983-9.8e-5 0.63646-0.25364 1.247-0.70361 1.6971-0.45001 0.45001-1.0607 0.70246-1.6971 0.70246-0.63646-9.7e-5 -1.247-0.2525-1.6971-0.70246h-0.0011c-0.45005-0.45001-0.70251-1.0607-0.70251-1.6971v-0.0012c9.67e-5 -0.63646 0.2525-1.247 0.70246-1.6971h0.0011c0.45012-0.44997 1.0607-0.70237 1.6971-0.70246zm0 0.87206c-0.40536 6e-5 -0.79394 0.16147-1.0806 0.44806-0.28659 0.28668-0.44686 0.67526-0.44692 1.0806 0 0.40498 0.16059 0.79315 0.44692 1.0795 0.28668 0.28659 0.67526 0.448 1.0806 0.44806 0.40498 0 0.79315-0.16174 1.0795-0.44806 0.28659-0.28668 0.448-0.67526 0.44806-1.0806-2.91e-4 -0.40459-0.16199-0.79341-0.44806-1.0795-0.28661-0.2861-0.67448-0.448-1.0795-0.44806z" fill="#000"/></svg>
