<?xml version="1.0" encoding="UTF-8"?>
<svg width="24" height="24" version="1.1" viewBox="0 0 24 24" xml:space="preserve" xmlns="http://www.w3.org/2000/svg"><path d="m10.88 4.0058c-0.90021-7.34e-4 -1.6465 0.74582-1.6452 1.6462v12.697c-7.34e-4 0.89988 0.74529 1.6459 1.6452 1.6452h2.3639c0.89978 1e-6 1.6452-0.74637 1.6439-1.6462v-12.697c7.59e-4 -0.89933-0.74448-1.6452-1.6439-1.6452h-2.3629z" color="#000000" stroke-linecap="round" stroke-linejoin="round" stroke-width=".12655" style="-inkscape-stroke:none"/><path d="m17.991 11.179c-0.89978-1e-6 -1.6452 0.74662-1.6439 1.6464v5.4632c0 0.8989 0.74502 1.6439 1.6439 1.6439h2.3629c0.89978 0.0013 1.6462-0.74414 1.6462-1.6439v-5.4644c6.33e-4 -0.89977-0.74537-1.6459-1.6452-1.6452z" color="#000000" stroke-linecap="round" stroke-linejoin="round" stroke-width=".12655" style="-inkscape-stroke:none"/><path d="m3.6452 8.1402c-0.89933-7.34e-4 -1.6452 0.74448-1.6452 1.6439v8.5649c-7.34e-4 0.89988 0.74529 1.6459 1.6452 1.6452h2.3639c0.89978 1e-6 1.6452-0.74637 1.6439-1.6462v-8.5639c0-0.8989-0.74502-1.6439-1.6439-1.6439h-2.3629z" color="#000000" stroke-linecap="round" stroke-linejoin="round" stroke-width=".12655" style="-inkscape-stroke:none"/></svg>
