<?xml version="1.0" encoding="utf-8"?>
<svg version="1.1" viewBox="0 0 192 192" width="192" height="192" style="stroke:none;stroke-linecap:butt;stroke-linejoin:miter;stroke-width:1;stroke-dasharray:none;fill:#000000;fill-opacity:1;fill-rule:evenodd" font-family="Arial" font-size="15px" xmlns:xlink="http://www.w3.org/1999/xlink" xmlns="http://www.w3.org/2000/svg">
  <path id="Union" d="M150.5919,72.5241L133.7276,83.0209L133.7504,113.5238L133.7536,117.7594L130.087,119.88L99.6991,137.4547L96.0326,139.5752L92.3628,137.4602L65.061,121.7247L48.8162,131.8358L96.0471,159.0576L150.633,127.488L150.5919,72.5241zM95.9801,69.3672L72.9254,82.7008L72.9453,109.3336L96.0199,122.6328L119.0746,109.2992L119.0547,82.6663C111.3632,78.2333 103.6716,73.8002 95.9801,69.3672zM95.9529,32.9424L41.367,64.512L41.4078,119.1644L58.2722,108.6676L58.2496,78.4762L58.2464,74.2406L61.913,72.1201L92.3009,54.5453C93.523,53.8385 94.7452,53.1316 95.9674,52.4248L99.6371,54.5398L126.679,70.1255L142.9238,60.0143L95.9529,32.9424zM95.9402,16L99.6099,18.1151L161.5824,53.8331L165.2522,55.9482L165.2553,60.1838L165.3088,131.7126L165.3119,135.9482L161.6454,138.0687L99.7264,173.8795L96.0598,176L92.3901,173.8849L30.4176,138.1669L26.7479,136.0518L26.7447,131.8162L26.6912,60.2874L26.6881,56.0518L30.3546,53.9313L92.2736,18.1205C93.4958,17.4137 94.718,16.7068 95.9402,16z" />
  <path id="Union1" d="M96,85.1565C98.9433,85.1565 101.3652,87.5785 101.3652,90.5217C101.3652,91.9933 100.7597,93.3346 99.7863,94.308L98.2278,95.3625L100.7258,106.8435L91.2742,106.8085L93.7797,95.3676L92.2137,94.308C91.2403,93.3346 90.6348,91.9933 90.6348,90.5217C90.6348,87.5785 93.0567,85.1565 96,85.1565z" />
</svg>