<svg xmlns="http://www.w3.org/2000/svg" viewBox="0 0 24 24"><path d="M12.028281 22c-.313333-.3425-1.729166-2.153333-3.2916659-4.594166-.4558333-.763333-.7508332-1.358333-.6941666-1.511666.1483333-.4 2.7958325-.619166 3.6108325-.256667.248334.11.241667.255834.241667.340834 0 .366666-.01833 1.349166-.01833 1.349166a.36791754.36791754 0 1 0 .735833-.0017l-.0042-2.449166c0-.2125-.231667-.265833-.275833-.274166-.425833-.0017-1.29-.005-2.2175-.005-2.0474995 0-2.5049994.08417-2.8524993-.143334-.7533032-.492467-1.9858029-3.814133-2.0141363-5.6824657-.0408333-2.6349995 1.5208331-4.917499 3.7199993-6.0483321a6.7749986 6.7749986 0 0 1 3.0533333-.7233332c3.480832 0 6.347498 2.6274995 6.729165 6.0074988l.000833.00917c.07.8174998-4.434166.9908331-5.324999.7533332-.136666-.036667-.171666-.1766667-.171666-.2366667l-.005-2.3699995a.36833445.36833445 0 0 0-.736667.00167l.0075 3.221666a.27499995.27499995 0 0 0 .223333.2666666l2.795-.0008333c1.491666 0 2.118333.1724999 2.534999.4899999.2775.211667.384167.615833.290834 1.141666-.8375 4.678333-6.137499 10.474166-6.336666 10.715832z"/></svg>