<?xml version="1.0" encoding="UTF-8"?>
<svg width="24" height="24" version="1.1" viewBox="0 0 24 24" xml:space="preserve" xmlns="http://www.w3.org/2000/svg"><path id="path" d="m11.204 3.3748c3.5863-0.043546 4.4852 1.4992 5.7605 2.3235 0.67185 0.25816 0.55054 0.507 0.81493 0.89269 0.07776 0.10886 0.17107 0.15552 0.29549 0.23328 0.94246 0.5661-0.33592 1.2317-0.87714 1.2535 0.22084-0.14308 0.41058-0.18351 0.55054-0.38569h-0.02799v-0.027994c-0.45412-0.12442-0.41369 0.27372-0.90824 0.19285 0.10886-0.012442 0.39191-0.1804 0.38569-0.41369-0.37014-0.22395-0.98289-0.47278-1.4588-0.44168-0.0031 0.012442-0.0031 0.012442-0.0062 0.024883 1.1291 0.75272 0.79938 1.7823 1.465 1.9844-0.36081-0.015552-0.18352 0.065319 0 0.22084-0.45412-0.093313-0.50078-0.5972-0.7154-1.0451-0.24261-0.40124-0.479-0.88647-0.74339-0.90824-0.06221 0.28616 0.06221 1.7543 0.45723 1.4495-0.31104 0.38258 0.13686 0.22395 0.34215 0.14619-0.74341 0.59098-1.0918 0.42924-1.3313-0.42924-0.19285-0.4168-0.45412-1.0638-0.60653-1.4495-0.087091-0.22084-0.23328-0.41369-0.42302-0.55677-1.3002-0.97045-2.2644-1.0358-3.6361-0.81182-0.34526-0.66563-0.85536-1.2566-1.21-1.9253 0.64697-0.15552 1.1757-0.32037 1.8725-0.32659z" stroke-width=".031104"/><path d="m6.196 6.2924c2.5474 4.9238 5.2442 3.3188 9.1353 5.1882 3.3997 2.112 2.6065 6.619-0.93624 8.0156v-2.6407c1.4432-1.4028 0.64386-3.4868-1.154-3.888-2.14-0.46656-4.5288-0.91757-5.9627-1.944-1.5614-1.1757-1.916-3.1509-1.0824-4.7309z" stroke-width=".031104"/><path d="m9.661 17.322c0.00311 0.79005 0.059098 1.6765-0.027994 2.4199-2.93-0.79938-5.0544-3.2131-3.8787-5.9969v0.44168c0.2675 1.8725 1.8694 2.8865 3.9067 3.1353z" stroke-width=".031104"/><path d="m4.1306 2 4.3204 1.154 3.549 5.5863 1.4868-2.2551c1.0731 0.45101 1.1509 2.6594 1.7325 2.9984l-0.7154 1.0731c-3.2193-0.87714-5.9938-1.0327-7.1291-3.3717-1.0389-1.661-3.2411-5.182-3.2442-5.1851z" stroke-width=".031104"/><path d="m15.191 3.7885c0.50389 0.2986 1.0295 0.61586 1.4463 1.0202 0.23328 0.22395 0.46345 0.38258 0.78694 0.56921 0.12131 0.068429 0.14619 0.065319 0.24261 0.14619l2.2022-3.5241-4.2644 1.154z" stroke-width=".031104"/><path d="m12.028 22 1.9253-1.5677 0.02799-6.6034s-0.13997-0.35459-2.6501-0.79316c-0.53188-0.09331-0.9238-0.22395-0.9269-0.22395l-0.38258-0.11198 0.05599 7.7294z" stroke-width=".031104"/></svg>
