<svg width="25" height="24" viewBox="0 0 25 24" fill="none" xmlns="http://www.w3.org/2000/svg">
<path fill-rule="evenodd" clip-rule="evenodd" d="M10.1293 22L9.76275 19.0678L12.4072 16.9652C12.6016 16.9882 12.7994 17 13 17C15.5827 17 17.708 15.0419 17.9723 12.5292C17.9723 12.5292 18.0011 12.2801 17.9973 12.1673C17.9944 12.0719 17.9994 11.9192 17.9994 11.9192C17.974 10.3158 17.1938 8.89574 15.9987 7.99863L17.2266 5.86563L20.1793 4.625L22.9293 9.375L20.3543 11.325C20.3709 11.4417 20.3793 11.554 20.3793 11.662V12.337C20.3793 12.4457 20.3626 12.5583 20.3293 12.675L22.9043 14.625L20.1543 19.375L17.2043 18.125C17.0209 18.2583 16.8293 18.3833 16.6293 18.5C16.4293 18.6167 16.2293 18.7167 16.0293 18.8L15.6293 22H10.1293ZM15.9958 4.93235L16.0293 5.2C16.2459 5.28333 16.4503 5.38333 16.6423 5.5C16.8336 5.61667 17.0209 5.74167 17.2043 5.875L17.2266 5.86563L18.0782 4.38623L18.8414 3.02721L15.9958 4.93235ZM13.3776 7.01404C14.3569 7.08717 15.2576 7.44236 15.9987 7.99863L14.5504 10.5144L17.8002 11.8141C17.8801 11.846 17.9465 11.8811 17.9994 11.9192C17.9998 11.9461 18 11.973 18 12C18 12.1788 17.9906 12.3553 17.9723 12.5292C17.9359 12.5658 17.894 12.6028 17.8466 12.6404L12.4072 16.9652C11.4377 16.8507 10.5531 16.4588 9.83502 15.871L11.2081 13.4858L8.0041 12.2044C8.00138 12.1366 8.00387 12.2546 8.00387 12.1861L8.05668 11.2446L13.3776 7.01404ZM8.05668 11.2446C8.42082 8.84163 10.4953 7 13 7C13.127 7 13.253 7.00474 13.3776 7.01404L15.9958 4.93235L15.6293 2H10.1293L9.72927 5.2C9.52927 5.28333 9.32927 5.38333 9.12927 5.5C8.92927 5.61667 8.7376 5.74167 8.55427 5.875L5.57927 4.625L2.82927 9.375L5.40427 11.325C5.3876 11.4417 5.37927 11.554 5.37927 11.662V12.337C5.37927 12.4457 5.3876 12.5583 5.40427 12.675L2.82927 14.625L5.57927 19.375L8.53209 18.1343L7.68031 19.614L7 21L9.76275 19.0678L9.72927 18.8C9.5126 18.7167 9.3086 18.6167 9.11727 18.5C8.92527 18.3833 8.7376 18.2583 8.55427 18.125L8.53209 18.1343L9.83502 15.871C8.76404 14.9943 8.06352 13.6819 8.0041 12.2044L7.95834 12.1861C7.72621 12.0933 8.0041 12.2044 8.0041 12.2044C7.99976 12.0591 8.05668 11.2446 8.05668 11.2446Z" fill="#FFF1C0"/>
</svg>
