<svg xmlns="http://www.w3.org/2000/svg" viewBox="0 0 24 24"><path d="M15.599943 5.7653157c.301386-.2196616.503885-.5510977.56306-.9214082.059175-.3703103-.029871-.7491706-.247556-1.0532467l-.146475-.2045474c-.217743-.3040456-.5463-.5083865-.913329-.5680807-.367032-.0596943-.742557.0301473-1.043944.2497645l-3.192467 2.3270136c-.298462.2175074-.55153.4921985-.7448049.8083908-.1932192.3161867-.322875.6676814-.3814314 1.0344087-.058612.3667328-.045056.7415151.039937 1.1029492.084994.3614115.2396809.7024552.4552876 1.003561l.1465307.204525z"/><path d="M18.389771 13.884311c.30015.221287.675169.3132 1.042536.2556.367314-.0576.696939-.2601.916369-.562893l.1476-.203963c.108619-.149962.186919-.320005.2304-.500512.04348-.180449.05125-.367818.02295-.551362-.02829-.183487-.09214-.359606-.187931-.518231-.09574-.158625-.221569-.296661-.370238-.406236l-3.180598-2.3441617c-.600356-.4426198-1.350391-.6265122-2.08513-.5112222-.734736.1152788-1.393986.5203347-1.832736 1.1259779l-.1476.2040191z"/><path d="M11.655019 19.066452c-.115762.356399-.08651.744637.08139 1.079268.16785.334631.460631.588319.813882.705205l.237824.07864c.174938.05788.359438.08043.542983.06638.183542-.01399.36253-.0644.52678-.148274.16425-.08381.3105-.199461.43048-.340368.119925-.14085.211163-.3042.268538-.480657l1.226418-3.775214c.114806-.352914.159525-.725231.131681-1.095639-.02785-.370405-.127743-.731642-.293962-1.063066-.166219-.331483-.39555-.626625-.674887-.868668-.279338-.241991-.603168-.426153-.953043-.541861l-.2376-.07892z"/><path d="M4.6393159 14.252411c-.184213-.000507-.3667273.03555-.5371028.106257-.1703755.07065-.325271.174486-.4558345.305605-.1305629.13112-.2342304.286875-.305075.458437-.070844.171562-.1074753.355558-.1077991.541408v.252392c-.0004689.18585.035355.369957.1054259.5418.070071.171843.1730148.328106.3029522.459787.1299374.131737.2843244.236306.4543343.3078.1700099.0715.3523216.108506.5365122.1089l3.9381329.0108c.7434277.0016 1.457015-.294863 1.983908-.824062.526837-.529143.82378-1.247792.825524-1.997831v-.25245z"/><path d="M6.9683794 6.0631818c-.0563344-.1768387-.1466549-.3407511-.2657979-.482366-.1191432-.1416149-.2647687-.2581649-.4285685-.3429841-.1637943-.0848249-.3425511-.1362599-.5260553-.1513743-.1835044-.0151086-.3681616.0064014-.5434253.0633037l-.2381398.0772256c-.353936.1149806-.6481233.367048-.8179026.7007958-.1697793.3337479-.2012399.7218502-.08748 1.0789924l1.2071749 3.7818761c.1127418.353643.2934279.681468.5317422.964688.2383198.283161.5295934.516261.8571987.685911.3276054.16965.6851245.27253 1.0521443.302738.3670142.03027.7363402-.01277 1.0868843-.126507l.2381229-.07723z"/></svg>