<svg width="24" height="24" viewBox="0 0 24 24" fill="none" xmlns="http://www.w3.org/2000/svg">
<path d="M4.49984 2H19.5002C20.8752 2 22 3.125 22 4.5V19.5C22 20.875 20.8752 22 19.5002 22H4.49984C3.12477 22 2 20.875 2 19.5V16.0442C2.82191 16.5286 4.86861 17.7316 5.36425 18.0149C5.66001 18.183 5.94332 18.1793 6.22975 18.013C6.38743 17.9209 8.00504 16.9803 9.74643 15.9681L9.76556 15.9569C11.8696 14.7339 14.1462 13.4106 14.2397 13.3555C14.4109 13.2559 14.4202 12.9495 14.2272 12.8387L14.2043 12.8255C14.0077 12.7125 13.666 12.5162 13.5361 12.4389C13.3431 12.3328 13.1087 12.3356 12.9184 12.4464C12.8225 12.5025 6.42215 16.2198 6.20858 16.3418C5.95142 16.4887 5.63573 16.4912 5.38043 16.3418L2 14.358V12.6569C2.82191 13.1413 4.86861 14.3443 5.36425 14.6276C5.66001 14.7957 5.94332 14.792 6.22975 14.6257C6.38798 14.5333 8.01629 13.5865 9.76456 12.5702L9.76547 12.5697L9.77272 12.5655C11.8748 11.3436 14.1463 10.0232 14.2397 9.96821C14.4109 9.86858 14.4202 9.56223 14.2272 9.4514L14.2041 9.43813C14.0074 9.32507 13.6658 9.12877 13.5361 9.05165C13.3431 8.94551 13.1087 8.94835 12.9184 9.05912C12.8225 9.11516 6.42215 12.8325 6.20858 12.9545C5.95142 13.1014 5.63573 13.1039 5.38043 12.9545L2 10.9707V9.46885C2.82191 9.95328 4.86861 11.1563 5.36425 11.4396C5.66001 11.6077 5.94332 11.604 6.22975 11.4377C6.38801 11.3453 8.01688 10.3981 9.76552 9.38166L9.77088 9.37854C11.8735 8.15635 14.1462 6.83523 14.2397 6.78019C14.4109 6.68057 14.4202 6.37422 14.2272 6.26338L14.2042 6.25013C14.0075 6.13711 13.6659 5.9408 13.5361 5.86363C13.3431 5.75749 13.1087 5.76033 12.9184 5.8711C12.8225 5.92714 6.42215 9.64444 6.20858 9.76648C5.95142 9.91343 5.63573 9.91592 5.38043 9.76648L2 7.78268V4.5C2.0048 3.12007 3.12171 2.00309 4.49984 2Z" fill="#FFF1C0"/>
</svg>
