<svg width="24" height="24" viewBox="0 0 24 24" fill="none" xmlns="http://www.w3.org/2000/svg">
<path fill-rule="evenodd" clip-rule="evenodd" d="M12.6105 4.27287C12.5131 5.61317 12.4535 7.05713 12.4527 8.08964L12.4517 9.21171L12.6519 9.09449C13.3501 8.68588 15.5788 7.74212 16.7913 7.34176C17.9428 6.96154 20.1126 6.47463 21.2476 6.34171L21.5985 6.30063L21.4445 6.49058C21.3598 6.59505 20.9876 7.00847 20.6174 7.40927C18.2127 10.0121 16.0044 12.9432 14.9968 14.8696L14.7171 15.4044L14.7426 15.9385C14.78 16.7208 14.9968 17.1222 15.8378 17.9662C16.5338 18.6647 17.2453 19.1749 18.3648 19.7784L19.0116 20.127L18.6112 20.0891L18.2108 20.0512L18.3956 20.207C18.5256 20.3167 18.334 20.2472 17.7489 19.9725C16.1333 19.2141 14.5108 18.6213 13.1715 18.3004C12.8264 18.2177 11.8789 18.0231 11.0658 17.8679C9.02115 17.4777 7.98378 17.2058 7.37683 16.9009C6.9756 16.6995 6.54659 16.2417 6.18016 15.624C5.75923 14.9146 5.3944 14.5416 4.86943 14.2839C4.37045 14.039 2.98045 13.6259 1.3955 13.2516C-0.572759 12.7867 -0.512704 12.7766 1.91905 13.163C2.9523 13.3272 3.91164 13.4625 4.05096 13.4637C4.20711 13.4651 4.46691 13.392 4.7285 13.2731C5.49166 12.9263 6.05741 12.9666 7.08628 13.4408C7.57812 13.6675 7.70827 13.6874 8.01033 13.5821C8.24648 13.4998 8.51651 13.0138 8.62929 12.4682C8.7202 12.0284 8.67339 11.7589 8.26902 10.3955C7.59296 8.11594 7.62561 7.4931 8.4846 6.28135C9.12753 5.37443 10.3577 4.52806 11.8771 3.9474C12.682 3.6398 12.6572 3.62884 12.6105 4.27287Z" fill="#FFF1C0"/>
</svg>
