<svg width="24" height="24" viewBox="0 0 24 24" fill="none" xmlns="http://www.w3.org/2000/svg">
<path d="M4.65384 3.9445C7.32776 3.80839 8.77608 3.36539 10.708 2.09283C11.2066 1.76442 11.8286 1.46826 11.9857 1.46747C11.9902 1.46745 11.995 1.46767 12 1.46813C12.005 1.46767 12.0098 1.46745 12.0143 1.46747C12.1714 1.46826 12.7934 1.76442 13.292 2.09283C15.2239 3.36539 16.6722 3.80839 19.3462 3.9445C20.4599 4.00112 21.0037 4.01397 21.2687 4.29226C21.535 4.57207 21.5195 5.12022 21.5181 6.25099C21.5135 9.93923 20.9639 14.8221 20.3913 16.2625C19.7043 17.9908 18.4843 19.1887 16.3223 20.2576C15.6911 20.5698 14.5421 21.2007 13.7689 21.6597C12.9957 22.1188 12.1713 22.5325 12.0217 22.5325C12.0155 22.5325 12.0083 22.5317 12 22.5302C11.9917 22.5317 11.9845 22.5325 11.9783 22.5325C11.8287 22.5325 11.0043 22.1188 10.2311 21.6597C9.45791 21.2007 8.30888 20.5698 7.67767 20.2576C5.51572 19.1887 4.29571 17.9908 3.60871 16.2625C3.03608 14.8221 2.48646 9.93923 2.48186 6.25099C2.48046 5.12022 2.46497 4.57207 2.73135 4.29226C2.99628 4.01397 3.54005 4.00112 4.65384 3.9445Z" fill="#FFF1C0"/>
</svg>
