<?xml version="1.0" encoding="UTF-8"?>
<svg width="24" height="24" fill="none" version="1.1" viewBox="0 0 24 24" xml:space="preserve" xmlns="http://www.w3.org/2000/svg"><defs><style>
            .a {
                fill: none;
                stroke: #b1b5bd;
                stroke-linecap: round;
                stroke-linejoin: round;
                isolation: isolate;
                opacity :0.63;
            }
        </style></defs><path class="cls-2" d="m12.011 2.875c-5.0216 0-9.1356 4.4268-9.1356 9.7678 3.6615-2.5662 6.6743-8.8573 12.027-5.7987a6.5715 6.539 0 0 1 1.8599 1.6668 6.1151 6.085 0 0 1 1.1791 2.8883c0.72408-0.50457 2.3372-1.6977 2.4884-2.6021 0.09173-0.54407-0.39667-1.2152-0.66834-1.6495a9.3128 9.2669 0 0 0-7.7503-4.2726zm0 6.8721a2.8121 2.7982 0 0 0-0.56169 0.054501c-2.9027 0.55772-1.8884 5.0586 0.96713 4.5836 2.8988-0.48239 2.264-4.618-0.4093-4.6377zm9.1144 1.6572c-3.6415 2.5526-6.8479 9.0202-12.163 5.6754a6.6098 6.5774 0 0 1-1.7035-1.5521c-0.65971-0.85134-0.98328-1.8506-1.2003-2.8883-0.71286 0.49361-2.3557 1.7101-2.4884 2.6132-0.080655 0.52554 0.43655 1.2337 0.70053 1.6495a9.0599 9.0152 0 0 0 3.7197 3.3164c6.5453 3.0623 13.132-2.0074 13.132-8.8179z" fill="#000" stroke="#000" stroke-linecap="round" stroke-linejoin="round" stroke-width="1.4798"/></svg>
