<svg width="24" height="24" viewBox="0 0 24 24" fill="none" xmlns="http://www.w3.org/2000/svg">
<path fill-rule="evenodd" clip-rule="evenodd" d="M12.0009 22C17.5241 22 22 17.5227 22 12C22 6.4773 17.5241 2 12.0009 2C6.47772 2 2 6.4773 2 12C2 17.5227 6.47772 22 12.0009 22ZM6.4612 11.4746C6.47406 15.2409 9.33304 17.5853 12.0799 17.576C15.4718 17.5649 17.4781 14.7797 17.4708 12.237C17.4616 9.6961 16.0799 7.85888 13.0353 7.11663C13.028 7.08538 13.0225 7.0174 13.0225 6.95314C13.017 5.03323 14.4649 3.33932 16.2839 2.96269C16.113 2.90389 15.8319 2.88188 15.5636 2.88188C13.4837 2.88923 11.1888 3.78029 9.5131 5.16555C7.79698 6.58756 6.452 8.98514 6.4612 11.4746Z" fill="#FFF1C0"/>
</svg>
