<svg width="24" height="24" viewBox="0 0 24 24" fill="none" xmlns="http://www.w3.org/2000/svg">
<path fill-rule="evenodd" clip-rule="evenodd" d="M10.3179 20.6789C10.9574 20.3465 11.3491 19.8099 11.5086 19.0848C11.6339 19.0848 11.7588 19.0842 11.8831 19.0837C12.3916 19.0815 12.8916 19.0793 13.3806 19.1141C13.4239 19.1141 13.4967 19.1853 13.5106 19.244C13.9318 20.7238 15.5282 21.4196 16.9078 20.7377C17.9235 20.215 18.4314 18.9982 18.0691 17.8957C18.0257 17.7797 18.0536 17.7225 18.1558 17.6498C18.3447 17.5339 18.5196 17.4024 18.6791 17.2726C21.4244 15.0259 22.4974 12.1406 21.7867 8.68942C21.0032 4.8764 17.6789 2.15039 13.8017 2.00505C11.5814 1.93392 9.60718 2.61426 7.92409 4.06154C6.09391 5.62787 5.09211 7.62716 4.93263 10.0346C4.91792 10.347 4.91792 10.6589 4.91792 10.9707C4.91792 11.2825 4.91792 11.594 4.90321 11.9056C4.90321 12.153 4.84592 12.4128 4.74373 12.6308C4.51147 13.124 4.04696 13.3266 3.52361 13.3853C3.08852 13.4286 2.92748 13.6312 3.02968 14.0518C3.10245 14.3564 3.21858 14.6471 3.36413 14.9223C4.13367 16.3139 5.25005 17.3437 6.65907 18.0828C6.78913 18.1555 6.83249 18.2142 6.81855 18.3735C6.75972 19.3167 7.1081 20.0852 7.90706 20.5923C8.67661 21.0856 9.50499 21.0995 10.3179 20.6789ZM17.2872 9.57392C17.795 9.55845 18.2162 9.13942 18.2162 8.6168C18.2007 8.09572 17.7811 7.67514 17.2732 7.67514C16.7514 7.6906 16.3442 8.10963 16.3442 8.63226C16.3442 9.16726 16.7638 9.57392 17.2872 9.57392ZM11.5659 9.57393C11.0426 9.57393 10.6229 9.15335 10.6229 8.63227C10.6229 8.11119 11.0441 7.69061 11.5659 7.69061C12.0877 7.69061 12.5089 8.11119 12.5089 8.63227C12.5104 9.13943 12.0893 9.57393 11.5659 9.57393ZM11.0286 12.1994C11.7548 13.5616 12.8867 14.2435 14.6007 14.3301C14.6717 14.315 14.7533 14.3 14.8425 14.2835C15.0996 14.2361 15.4199 14.1771 15.7326 14.0704C16.691 13.7518 17.4017 13.0854 17.8523 12.1716C18.0118 11.8391 17.8074 11.4758 17.4451 11.4619C17.1989 11.4619 17.0688 11.6211 16.9666 11.8237C16.1088 13.4905 13.873 13.8956 12.5089 12.6061C12.2627 12.3741 12.0738 12.085 11.8849 11.7943C11.7393 11.5624 11.5504 11.417 11.3476 11.4603C11.0147 11.533 10.8537 11.8654 11.0286 12.1994Z" fill="#FFF1C0"/>
</svg>
