<svg width="24" height="24" viewBox="0 0 24 24" fill="none" xmlns="http://www.w3.org/2000/svg">
<path d="M5.42045 16.7273L3 8H4.38494L6.08523 14.7585H6.16619L7.93466 8H9.30682L11.0753 14.7628H11.1562L12.8523 8H14.2415L11.8168 16.7273H10.4915L8.65483 10.1903H8.58665L6.75 16.7273H5.42045Z" fill="#FFF1C0"/>
<path d="M15.4421 16.7273V8H18.6381C19.2575 8 19.7702 8.10227 20.1765 8.30682C20.5827 8.50852 20.8867 8.78267 21.0884 9.12926C21.2901 9.47301 21.391 9.8608 21.391 10.2926C21.391 10.6562 21.3242 10.9631 21.1907 11.2131C21.0572 11.4602 20.8782 11.6591 20.6538 11.8097C20.4322 11.9574 20.1879 12.0653 19.9208 12.1335V12.2188C20.2106 12.233 20.4933 12.3267 20.7688 12.5C21.0472 12.6705 21.2773 12.9134 21.4592 13.2287C21.641 13.544 21.7319 13.9276 21.7319 14.3793C21.7319 14.8253 21.6268 15.2259 21.4165 15.581C21.2092 15.9332 20.8881 16.2131 20.4535 16.4205C20.0188 16.625 19.4634 16.7273 18.7873 16.7273H15.4421ZM16.7589 15.598H18.6594C19.2901 15.598 19.7418 15.4759 20.0146 15.2315C20.2873 14.9872 20.4237 14.6818 20.4237 14.3153C20.4237 14.0398 20.354 13.7869 20.2148 13.5568C20.0756 13.3267 19.8768 13.1435 19.6183 13.0071C19.3626 12.8707 19.0586 12.8026 18.7063 12.8026H16.7589V15.598ZM16.7589 11.7756H18.5231C18.8185 11.7756 19.0842 11.7188 19.32 11.6051C19.5586 11.4915 19.7475 11.3324 19.8867 11.1278C20.0288 10.9205 20.0998 10.6761 20.0998 10.3949C20.0998 10.0341 19.9734 9.73153 19.7205 9.48722C19.4677 9.2429 19.0799 9.12074 18.5572 9.12074H16.7589V11.7756Z" fill="#FFF1C0"/>
</svg>
