<?xml version="1.0" encoding="UTF-8"?>
<svg width="24" height="24" fill="none" version="1.1" viewBox="0 0 24 24" xml:space="preserve" xmlns="http://www.w3.org/2000/svg"><path d="m12 2-0.26229 0.10506-6.8803 2.7524-2.8574 7.1426 2.8574 7.1426 7.1426 2.8574 7.1426-2.8574 2.8574-7.1426-2.8574-7.1426zm-4.076 5.6252a0.70619 0.70619 0 0 1 0.70619 0.70619v5.9619l2.9583-2.1209a0.70626 0.70626 0 0 1 0.82297 0l2.9583 2.1209v-5.9619a0.70619 0.70619 0 0 1 0.70619-0.70619 0.70619 0.70619 0 0 1 0.70619 0.70619v7.3373a0.70626 0.70626 0 0 1-1.1179 0.57401l-3.6643-2.6275-3.6643 2.6275a0.70626 0.70626 0 0 1-1.1179-0.57401v-7.3373a0.70619 0.70619 0 0 1 0.70619-0.70619z" color="#000000" fill="#000" stroke-linecap="square" stroke-width=".1177" style="-inkscape-stroke:none"/></svg>
