<?xml version="1.0" encoding="utf-8"?>
<svg version="1.1" viewBox="0 0 192 192" width="192" height="192" style="stroke:none;stroke-linecap:butt;stroke-linejoin:miter;stroke-width:1;stroke-dasharray:none;fill:#000000;fill-opacity:1;fill-rule:evenodd" font-family="Arial" font-size="15px" xmlns:xlink="http://www.w3.org/1999/xlink" xmlns="http://www.w3.org/2000/svg">
  <path id="Substract" d="M109.9662,37.3375C108.9114,37.3216 107.9712,37.3632 107.1686,37.4477C100.7481,38.1236 98.3696,42.1523 98.2312,44.7142C98.0928,47.276 98.8712,52.9515 105.5085,54.1883C112.1458,55.4251 120.8022,55.1527 129.7677,64.0289C138.7331,72.9052 138.7264,84.1413 140.0464,88.8613C141.3664,93.5813 145.6385,95.2677 148.3155,95.0466C150.9925,94.8255 155.9682,93.7499 155.7375,84.424C155.5069,75.0982 153.1862,63.3713 141.0043,51.1066C130.3452,40.375 117.3498,37.4486 109.9662,37.3375zM96,16C139.8867,16 176,52.1133 176,96C176,139.8867 139.8867,176 96,176C52.1133,176 16,139.8867 16,96C16,52.1133 52.1133,16 96,16z" />
</svg>