<svg xmlns="http://www.w3.org/2000/svg" viewBox="0 0 24 24"><path d="m18.345833 9.875-1.048333.394167-.139167.591666-.371666.0175-.09583.815h.34L16.855 12.951667c-.109167.7825.03 1.150833.720833 1.150833.406667 0 .758334-.145833.945834-.2475l.120833-.75c-.139167.06917-.363333.158333-.515.158333-.205833 0-.23-.108333-.1875-.406666l.1575-1.163334H18.8c.025-.171666.109167-.730833.133333-.833333H18.2125Zm-3.149166.835c-.09583.0017-.196667.0083-.300834.02167a2.9933333 2.9933333 0 0 0-1.1225.36l.216667.6575c.224167-.125.5125-.233334.815-.271667.448333-.055.630833.08333.658333.3125.01167.09083.0033.165833-.0042.240833l-.011633.046664a2.8833333 2.8833333 0 0 0-.914167-.03c-.431666.0525-.785833.2275-1.003333.5a1.1033333 1.1033333 0 0 0-.1875.861667c.105833.485833.460833.7.999167.633333.375-.04583.676666-.225.896666-.525a2.2208333 2.2208333 0 0 1-.025.253333 1.45 1.45 0 0 1-.06.241667l1.036667.000833a3.0475 3.0475 0 0 1-.000833-.304166c.03-.3825.09833-.9525.205833-1.709167a1.9975 1.9975 0 0 0-.0017-.491667c-.066633-.536666-.5233-.8075-1.196633-.798333Zm5.446666.0525c-.995 0-1.755833.889167-1.755833 1.951667 0 .799166.46 1.410833 1.356667 1.410833 1 0 1.755833-.889167 1.755833-1.958333 0-.791667-.448333-1.404167-1.356667-1.404167Zm-9.814166.03417c-.448334 0-.9333337.3875-1.266667 1.03.085-.42.066667-.896667.0425-.998334A7.47 7.47 0 0 1 8.5325 10.93a5.75 5.75 0 0 1-.0608333 1.035833L8.3325 12.92c-.055.375-.115.8075-.1758333 1.080833h1.1275C9.29 13.835 9.3325 13.575 9.3625 13.345833l.096667-.655c.0791663-.425833.418333-.928333.679166-.928333.151667 0 .145834.146667.103334.42l-.109167.7375c-.055.375-.115.8075-.1758333 1.080833h1.1391663c.0067-.165833.0425-.426666.07333-.655l.09667-.655c.07833-.426666.418334-.928333.678334-.928333.151666 0 .145833.14.121666.33l-.2725 1.908333h1.04l.365-2.174166c.07917-.540834.03667-1.03-.563333-1.03-.435833 0-.908333.369166-1.241667.985.0725-.508334.03-.985-.564166-.985zm-4.066667.0067c-.9808333 0-1.7333333.8775-1.7333333 1.926667 0 .788333.455 1.391667 1.34 1.391667.9875 0 1.7333333-.876667 1.7333333-1.9325 0-.781667-.4425-1.385834-1.3391667-1.385834zm-4.2716667.07583c-.041667.325-.085.648333-.1458333.941666.2733333-.0067.5158333-.01333 1.1758333-.01333L2.0125 13.440833 2 14.026667c.37-.025.8308333-.0325 1.3583333-.0325.4716667 0 .945.0067 1.2475.0325.054167-.381667.1083334-.635834.175-.9475-.2291666.0125-.6291666.01917-1.26.01917L5.0291667 11.4575l.0191666-.578333c-.3641666.01917-.6916666.025-1.2666666.025-.6241667 0-.8125-.0058-1.2908334-.025zm4.1566667.772467c.2125 0 .34.19.34.584166 0 .5725-.23 1.0425-.5216667 1.0425-.2175 0-.345-.196666-.345-.585 0-.578333.2358334-1.041666.5266667-1.041666zm13.8575 0c.211667 0 .339167.19.339167.584166 0 .5725-.23 1.0425-.520834 1.0425-.218333 0-.345833-.196666-.345833-.585 0-.578333.236667-1.041666.5275-1.041666zm-5.58.881666c.171667-.0025.335833.02.458333.04833L15.3725 12.68c-.0625.366667-.325.734167-.706667.781667-.258333.03083-.481666-.123334-.506666-.325a.44833333.44833333 0 0 1 .095-.341667c.0975-.1325.28-.223333.499166-.25.0575-.0075.115-.01083.171667-.01167z"/></svg>